{"glyphs":{"0":{"ha":644,"x_min":24,"x_max":640,"o":"m 356 1000 q 563 865 485 1000 q 640 521 640 729 q 572 172 640 332 q 470 35 538 88 q 310 -17 403 -17 q 150 47 217 -17 q 24 432 24 168 q 62 700 24 572 q 178 914 100 828 q 356 1000 256 1000 m 329 818 q 253 741 279 818 q 228 551 228 664 q 263 372 228 438 q 347 307 297 307 q 426 360 397 307 q 454 524 454 413 q 419 726 454 635 q 329 818 385 818 z "},"1":{"ha":314,"x_min":-36,"x_max":282,"o":"m 8 771 q -36 817 -36 782 q 67 931 -36 865 q 222 997 171 997 q 274 951 274 997 q 267 786 274 911 q 261 404 261 617 q 276 111 261 192 q 282 88 282 101 q 212 6 282 38 q 90 -25 142 -25 q 39 22 39 -25 l 43 47 q 76 521 76 294 l 69 704 q 53 744 69 725 q 8 771 36 764 z "},"2":{"ha":504,"x_min":-14,"x_max":497,"o":"m 461 917 q 485 834 485 879 q 480 758 485 789 q 459 693 475 728 q 435 643 443 658 q 398 583 426 628 q 363 526 369 538 l 239 304 q 231 267 231 285 q 277 236 231 236 q 353 249 324 236 q 392 272 382 261 l 401 285 q 458 322 432 322 q 497 264 497 322 q 438 17 497 64 q 217 -11 414 -11 l 51 -7 q -14 58 -14 -4 q 76 308 -14 149 l 211 558 q 276 743 276 676 q 260 797 276 778 q 226 817 243 815 l 210 819 q 157 804 181 819 q 125 772 133 789 l 115 757 q 65 726 99 726 q 25 806 25 726 q 92 967 25 924 q 268 1011 160 1011 q 461 917 404 1011 z "},"3":{"ha":501,"x_min":0,"x_max":486,"o":"m 147 474 l 119 472 q 89 521 89 472 l 97 579 q 117 619 103 604 q 157 639 136 639 q 233 674 200 639 q 265 750 265 708 q 183 832 265 832 q 122 808 146 832 q 69 776 93 779 q 31 838 31 782 q 244 1004 31 1004 q 333 992 288 1004 q 405 960 378 979 q 453 901 432 940 q 474 810 475 861 q 459 718 474 758 q 425 656 444 678 q 350 596 385 610 l 336 590 q 326 576 326 586 l 335 564 q 486 321 486 507 q 460 160 486 228 q 400 59 433 92 q 322 7 367 26 q 217 -18 265 -18 q 137 -13 169 -18 q 69 7 104 -8 q 0 139 0 39 q 8 240 0 197 l 13 257 q 60 304 24 304 q 94 288 81 304 q 178 247 124 247 q 260 283 233 247 q 288 369 288 319 q 245 447 288 419 q 147 474 203 474 z "},"4":{"ha":592,"x_min":0,"x_max":592,"o":"m 343 485 l 344 574 l 342 704 q 329 717 338 717 q 313 703 321 717 q 229 492 229 553 q 243 467 229 472 q 300 463 257 463 q 343 485 343 463 m 533 478 l 564 481 q 592 451 592 481 q 529 268 592 311 q 515 244 515 265 l 514 219 q 531 100 514 163 q 536 76 536 90 q 475 7 536 31 q 353 -18 414 -17 q 303 29 303 -18 l 307 54 q 332 222 332 126 q 315 240 332 240 q 236 239 288 239 l 100 242 q 21 267 42 242 q 0 322 0 292 l 1 336 q 108 612 29 458 q 253 858 188 765 l 317 950 q 482 1007 358 1007 q 543 965 543 1007 q 528 889 543 960 q 512 758 513 818 q 511 581 511 697 l 511 489 q 533 478 511 478 z "},"5":{"ha":511,"x_min":1,"x_max":496,"o":"m 174 519 l 83 507 q 42 546 42 507 q 63 929 42 813 q 97 985 72 972 q 165 997 122 997 l 339 992 q 415 1000 388 992 q 449 1008 443 1008 q 478 976 478 1008 q 429 822 478 858 q 333 803 408 803 l 288 806 q 218 781 232 806 q 208 718 208 758 l 210 692 q 231 671 213 671 q 269 674 244 674 q 319 668 293 674 q 378 642 344 663 q 437 589 413 622 q 478 492 461 556 q 496 379 496 429 q 494 308 496 329 q 484 240 492 286 q 456 156 476 194 q 403 77 435 117 q 315 15 371 38 q 183 -8 260 -8 q 47 31 107 -8 q 1 183 1 61 q 63 306 1 306 q 103 283 74 306 q 176 260 133 260 q 238 275 206 260 q 297 393 297 303 q 233 506 297 471 q 174 519 207 519 z "},"6":{"ha":581,"x_min":21,"x_max":565,"o":"m 376 354 q 351 474 376 415 q 276 533 326 533 q 224 504 242 533 q 207 423 207 475 q 235 315 207 371 q 313 258 263 258 q 376 354 376 258 m 333 678 q 508 588 450 678 q 565 372 565 497 q 506 117 565 228 q 419 26 475 60 q 290 -7 363 -7 q 165 22 217 -7 q 88 92 114 51 q 44 189 61 133 q 21 348 21 272 q 25 485 21 424 q 42 628 29 547 q 81 773 54 708 q 146 894 107 838 q 249 983 185 951 q 393 1015 313 1015 q 472 1007 431 1015 q 529 904 529 996 q 489 813 529 813 q 463 824 485 813 q 406 835 440 835 q 294 783 338 835 q 250 682 250 732 q 263 668 250 668 q 274 669 264 668 q 333 678 310 678 z "},"7":{"ha":342,"x_min":-14,"x_max":433,"o":"m 401 1011 q 433 956 433 1011 q 401 785 433 901 q 353 622 369 669 l 335 575 q 247 178 247 326 q 264 106 247 122 q 274 71 274 88 q 212 6 274 28 q 88 -17 150 -17 q 11 50 11 -17 q 147 481 11 185 q 250 765 242 685 q 179 792 250 792 q 121 785 146 792 q 68 752 96 778 q 19 726 40 726 q -14 798 -14 726 q 10 954 -14 869 q 31 981 15 969 q 74 994 47 992 q 148 996 101 996 q 233 991 194 996 q 292 981 272 986 q 321 976 313 976 q 338 983 329 976 q 401 1011 374 1011 z "},"8":{"ha":617,"x_min":15,"x_max":601,"o":"m 463 582 q 563 464 525 540 q 601 317 601 388 q 542 106 601 203 q 299 -21 465 -21 q 92 56 169 -21 q 15 281 15 133 q 26 344 15 303 q 51 416 36 385 q 96 484 65 447 q 167 544 126 521 q 175 556 175 550 q 161 575 175 567 q 131 599 147 583 q 100 636 114 615 q 65 760 65 689 q 87 856 65 807 q 135 934 108 904 q 213 986 163 964 q 326 1008 263 1008 q 502 955 433 1008 q 571 794 571 901 q 567 751 571 775 q 537 682 563 728 q 465 606 511 636 q 457 594 457 601 q 463 582 457 588 m 388 758 q 388 775 388 758 q 364 827 388 792 q 310 863 340 863 q 263 841 279 863 q 246 785 246 819 q 268 716 246 751 q 322 681 290 681 q 371 703 354 681 q 388 758 388 725 m 221 342 q 221 320 221 342 q 250 255 221 299 q 319 211 279 211 q 379 238 360 211 q 399 309 399 264 q 371 399 399 354 q 303 443 343 443 q 242 415 264 443 q 221 342 221 386 z "},"9":{"ha":542,"x_min":1,"x_max":540,"o":"m 273 583 q 289 583 273 583 q 327 620 306 583 q 348 711 349 657 q 322 803 347 765 q 264 840 296 840 q 210 806 232 840 q 189 717 189 771 q 215 623 189 663 q 273 583 240 583 m 282 1001 q 401 972 351 1001 q 476 901 450 943 q 518 794 503 860 q 540 583 540 701 q 524 372 540 464 q 469 188 507 279 q 358 42 432 97 q 182 -14 283 -14 q 67 8 115 -14 l 51 17 q 1 157 1 50 q 50 264 1 264 q 97 244 64 264 q 169 224 129 224 q 237 241 208 224 q 278 280 265 258 q 300 329 292 301 q 310 383 310 367 q 297 400 310 400 q 272 393 294 400 q 228 386 250 386 q 61 454 121 386 q 1 638 1 522 q 78 899 1 797 q 282 1001 154 1001 z "}," ":{"ha":278,"x_min":0,"x_max":0,"o":""},"!":{"ha":319,"x_min":14,"x_max":306,"o":"m 14 67 q 65 149 18 118 q 158 179 113 179 q 229 162 204 179 q 254 115 254 144 q 206 29 254 61 q 111 -3 157 -3 q 14 67 17 -3 m 213 368 l 214 317 q 140 274 214 274 q 115 275 128 274 q 81 291 101 276 q 60 332 60 306 l 60 339 q 65 498 65 411 q 56 666 65 585 q 39 781 47 747 l 31 815 q 22 857 22 839 q 83 942 22 911 q 206 974 143 974 q 306 914 306 974 l 297 879 q 213 368 213 672 z "},"\"":{"ha":375,"x_min":21,"x_max":354,"o":"m 83 772 q 54 818 61 772 q 33 931 46 868 q 21 996 21 993 q 36 1035 21 1021 q 94 1054 57 1054 q 148 1031 132 1054 q 164 979 164 1008 q 110 792 164 950 q 83 772 101 772 m 300 792 q 272 772 292 772 q 244 818 253 772 q 224 931 236 868 q 211 996 211 993 q 226 1035 211 1021 q 285 1054 247 1054 q 338 1031 322 1054 q 354 979 354 1008 q 300 792 354 950 z "},"#":{"ha":739,"x_min":14,"x_max":725,"o":"m 443 674 l 442 786 q 457 827 442 813 q 481 843 472 842 q 499 844 490 844 q 556 804 556 844 q 553 674 553 782 q 674 674 654 674 q 708 661 693 675 q 725 619 725 643 q 715 580 725 594 q 696 564 706 565 l 686 561 q 553 564 642 564 l 553 414 q 674 415 654 414 q 708 401 693 415 q 724 378 722 388 q 725 353 725 369 q 715 321 725 336 q 696 303 706 306 l 686 301 q 554 304 642 304 l 556 176 q 497 132 556 132 q 459 149 476 132 q 442 190 442 165 l 442 304 l 296 303 l 297 176 q 238 132 297 132 q 189 163 203 132 q 183 190 183 175 l 183 303 l 58 301 q 26 316 38 301 q 14 350 14 331 q 72 415 14 415 q 185 414 121 414 l 185 563 l 58 561 q 14 614 14 561 q 29 656 14 639 q 72 675 44 674 q 185 674 121 674 l 183 786 q 197 825 183 811 q 238 844 215 844 q 297 804 296 844 q 294 674 294 782 l 443 674 m 443 564 l 294 563 l 294 414 l 443 414 l 443 564 z "},"$":{"ha":560,"x_min":1,"x_max":544,"o":"m 250 1011 l 250 1081 q 268 1110 250 1100 q 306 1119 286 1119 q 334 1111 325 1119 q 346 1088 343 1103 l 346 1029 l 365 1029 q 497 911 497 1029 q 457 833 497 833 q 419 844 443 833 q 368 854 396 854 q 321 831 340 854 q 301 768 301 807 q 340 677 301 729 q 423 580 378 625 q 506 455 468 535 q 544 290 544 375 q 524 147 544 206 q 469 56 504 89 q 335 -24 408 -4 l 335 -99 q 313 -128 333 -118 q 271 -137 293 -137 q 239 -107 239 -137 l 239 -33 q 65 42 128 -26 q 1 221 1 110 q 32 339 1 281 q 113 397 63 397 q 140 385 131 397 q 153 342 150 372 q 165 283 156 311 q 186 241 175 254 q 211 219 197 228 q 244 210 231 210 q 299 237 278 210 q 319 305 319 264 q 279 407 319 346 q 192 521 239 468 q 104 641 144 574 q 64 778 64 708 q 113 915 64 849 q 250 1011 163 982 z "},"%":{"ha":835,"x_min":15,"x_max":813,"o":"m 203 1010 q 323 940 281 1010 q 365 789 365 871 q 351 642 365 707 q 292 527 336 576 q 171 478 249 478 q 54 547 93 478 q 15 721 15 617 q 63 917 15 825 q 203 1010 110 1010 m 260 757 q 260 786 260 757 q 240 865 260 815 q 189 914 221 914 q 131 775 131 914 q 151 679 131 711 q 199 647 171 647 q 243 673 226 647 q 260 757 260 699 m 181 1 q 117 -33 165 -33 q 69 -7 69 -33 q 79 18 69 1 l 668 1018 q 726 1042 681 1042 q 772 1017 772 1042 q 768 1001 772 1010 l 181 1 m 650 510 q 770 440 728 510 q 813 289 813 371 q 798 142 813 207 q 740 27 783 76 q 618 -22 696 -22 q 501 47 540 -22 q 463 221 463 117 q 510 417 463 325 q 650 510 557 510 m 707 257 q 707 286 707 257 q 688 365 707 315 q 636 414 668 414 q 578 275 578 414 q 598 179 578 211 q 646 147 618 147 q 690 173 674 147 q 707 257 707 199 z "},"&":{"ha":694,"x_min":0,"x_max":713,"o":"m 551 -14 q 504 1 525 -14 q 475 32 483 17 l 467 47 q 454 56 464 56 q 414 39 444 56 q 222 -12 319 -12 q 63 44 125 -12 q 0 194 0 100 q 19 308 0 250 q 67 408 39 365 q 169 536 122 492 l 189 554 q 193 567 193 558 l 192 578 q 128 792 128 711 q 204 937 128 872 q 400 1001 281 1001 q 556 890 556 1001 q 393 596 556 783 q 382 581 382 589 q 385 568 382 574 q 507 361 432 472 q 517 356 510 356 q 546 385 535 356 q 578 406 556 406 q 615 376 601 406 q 629 313 629 347 q 619 257 629 279 q 608 224 608 235 q 622 201 608 213 q 654 190 636 190 l 675 192 q 713 160 713 192 q 660 47 713 108 q 551 -14 608 -14 m 365 228 q 275 393 308 329 q 260 401 269 401 q 240 390 250 401 q 197 290 197 342 q 222 210 197 239 q 285 182 247 182 q 358 200 322 182 q 369 215 369 206 l 365 228 m 335 701 q 386 822 386 754 q 349 872 386 872 q 308 849 322 872 q 293 801 293 825 q 303 738 293 776 q 328 699 314 699 q 335 701 332 699 z "},"'":{"ha":185,"x_min":21,"x_max":164,"o":"m 83 772 q 54 818 61 772 q 33 931 46 868 q 21 996 21 993 q 36 1035 21 1021 q 94 1054 57 1054 q 148 1031 132 1054 q 164 979 164 1008 q 110 792 164 950 q 83 772 101 772 z "},"(":{"ha":317,"x_min":0,"x_max":335,"o":"m 28 265 q 14 318 28 265 q 0 489 0 371 q 27 711 0 607 q 92 881 54 815 q 233 1058 171 1011 l 261 1079 q 315 1100 297 1100 q 333 1086 333 1100 q 324 1055 333 1072 q 303 1023 314 1038 q 267 956 293 1008 q 221 844 240 903 q 185 688 201 785 q 168 489 168 592 q 183 291 168 386 q 222 133 199 196 q 304 -47 269 3 l 319 -68 q 335 -106 335 -89 q 318 -122 335 -122 q 261 -101 303 -122 q 176 -22 228 -81 q 91 98 125 36 q 28 265 57 160 z "},")":{"ha":296,"x_min":-39,"x_max":296,"o":"m 267 713 q 282 660 267 713 q 296 489 296 607 q 269 267 296 371 q 203 97 242 163 q 61 -81 125 -33 l 35 -101 q -20 -122 -1 -122 q -39 -107 -39 -122 q -28 -74 -39 -89 q -8 -45 -18 -60 q 29 22 3 -31 q 75 134 56 75 q 111 290 94 193 q 128 489 128 386 q 113 687 128 592 q 75 844 97 782 q -8 1025 31 969 l -24 1046 q -37 1086 -37 1072 q -22 1100 -37 1100 q 35 1079 -7 1100 q 119 1000 68 1058 q 205 880 171 942 q 267 713 239 818 z "},"*":{"ha":397,"x_min":0,"x_max":397,"o":"m 260 997 l 247 925 q 263 907 247 907 q 308 932 281 907 q 354 957 335 957 q 385 942 374 957 q 397 907 397 926 q 358 864 397 874 q 294 829 294 846 q 354 782 294 801 q 381 753 381 776 q 367 713 381 729 q 336 696 353 696 q 304 711 319 696 q 247 754 267 754 q 231 728 231 754 q 236 677 231 701 q 242 644 242 653 q 194 608 242 608 q 146 647 146 607 q 154 684 146 658 q 163 730 163 710 q 154 750 163 750 q 81 707 138 750 q 48 693 67 693 q 15 707 29 693 q 0 738 0 721 q 36 783 0 772 q 88 803 54 788 q 121 835 121 819 q 36 885 121 853 q 14 915 14 893 q 30 951 14 936 q 62 965 46 965 q 94 953 78 965 q 154 910 135 910 q 167 936 167 910 l 161 986 q 210 1033 161 1032 q 260 997 260 1035 z "},"+":{"ha":653,"x_min":14,"x_max":639,"o":"m 271 590 l 269 750 q 283 785 269 772 q 311 800 297 799 l 325 803 q 383 764 382 803 q 381 585 381 733 l 381 546 l 426 546 q 588 547 564 546 q 639 493 633 547 q 599 433 639 435 q 421 436 568 436 l 381 436 l 383 222 q 367 189 383 200 q 335 178 350 178 q 310 180 319 178 q 285 197 300 182 q 269 236 269 211 q 271 435 269 328 l 58 433 q 14 493 14 433 q 44 542 14 528 q 110 547 57 547 q 271 546 164 546 l 271 590 z "},",":{"ha":269,"x_min":22,"x_max":249,"o":"m 158 165 q 249 74 249 165 q 204 -61 249 14 q 103 -136 160 -136 q 82 -119 82 -136 l 86 -101 q 107 -39 107 -61 q 88 6 107 1 l 81 7 q 22 60 22 17 q 65 135 24 106 q 158 165 106 165 z "},"-":{"ha":658,"x_min":39,"x_max":604,"o":"m 565 290 q 421 293 539 293 l 76 290 q 49 305 58 290 q 39 342 39 319 q 51 383 39 364 q 89 404 64 403 q 424 403 310 403 q 551 404 538 403 q 590 385 576 403 q 604 344 604 367 q 594 307 604 322 q 565 290 583 292 z "},".":{"ha":263,"x_min":22,"x_max":240,"o":"m 150 167 q 172 167 150 167 q 217 150 194 167 q 240 99 239 133 q 198 33 240 65 q 112 1 156 1 q 45 17 68 1 q 22 60 22 33 q 64 135 22 103 q 150 167 106 167 z "},"/":{"ha":413,"x_min":-43,"x_max":660,"o":"m 68 1 q 5 -33 53 -33 q -43 -7 -43 -33 q -33 18 -43 6 l 554 1018 q 613 1042 567 1042 q 660 1017 660 1042 q 656 1001 660 1010 l 68 1 z "},":":{"ha":263,"x_min":22,"x_max":240,"o":"m 240 590 q 199 515 240 549 q 113 482 157 482 q 46 499 69 482 q 22 540 22 515 q 63 616 22 583 q 149 649 104 649 q 217 632 193 649 q 240 590 240 615 m 150 167 q 172 167 150 167 q 217 150 194 167 q 240 99 239 133 q 198 33 240 65 q 112 1 156 1 q 45 17 68 1 q 22 60 22 33 q 64 135 22 103 q 150 167 106 167 z "},";":{"ha":269,"x_min":22,"x_max":249,"o":"m 242 586 q 197 511 242 540 q 112 482 151 482 q 47 499 72 482 q 22 544 22 517 q 69 619 22 590 q 155 649 115 649 q 218 632 194 649 q 242 586 242 615 m 158 165 q 249 74 249 165 q 204 -61 249 14 q 103 -136 160 -136 q 82 -119 82 -136 l 86 -101 q 107 -39 107 -61 q 88 6 107 1 l 81 7 q 22 60 22 17 q 65 135 24 106 q 158 165 106 165 z "},"<":{"ha":435,"x_min":28,"x_max":419,"o":"m 418 189 q 343 167 418 167 q 283 178 311 167 q 194 253 254 189 q 89 375 135 317 l 42 433 q 28 467 28 447 q 45 508 28 488 q 95 569 63 529 q 193 678 128 608 q 282 754 258 747 q 360 765 301 765 q 419 743 419 765 q 396 710 419 729 q 373 688 388 701 q 322 638 358 675 q 257 572 285 601 q 183 469 183 493 q 236 384 183 444 q 342 274 289 324 l 394 224 q 418 189 418 204 z "},"=":{"ha":589,"x_min":14,"x_max":575,"o":"m 532 557 q 371 560 501 560 l 58 557 q 14 617 14 557 q 44 665 14 651 q 72 671 57 671 q 374 669 247 669 q 522 670 500 669 q 558 657 543 671 q 574 634 572 643 q 575 617 575 625 q 574 600 575 610 q 561 574 572 590 q 532 557 550 557 m 532 306 q 371 308 501 308 l 58 306 q 14 365 14 306 q 44 414 14 400 q 72 419 57 419 q 374 418 247 418 q 522 419 500 418 q 558 406 543 419 q 574 383 572 392 q 575 366 575 374 q 574 349 575 358 q 561 322 572 339 q 532 306 550 306 z "},">":{"ha":435,"x_min":28,"x_max":419,"o":"m 190 361 q 204 376 190 361 q 241 422 218 392 q 264 470 264 453 q 211 548 264 488 q 106 658 158 608 l 51 710 q 28 743 28 729 q 94 765 28 765 q 165 754 140 765 q 249 685 189 747 q 357 563 308 622 l 406 503 q 419 472 419 488 q 406 433 419 450 q 168 179 225 201 q 109 167 138 167 q 55 170 81 167 q 29 189 29 174 q 53 224 29 204 q 76 245 61 232 q 126 294 90 258 q 190 361 163 331 z "},"?":{"ha":363,"x_min":-21,"x_max":446,"o":"m 46 56 q 97 138 50 106 q 190 169 144 169 q 261 151 235 169 q 288 106 288 133 q 238 19 288 51 q 143 -12 189 -12 q 72 6 97 -12 q 46 56 47 24 m -21 799 q 51 937 -21 885 q 219 989 124 989 q 381 938 315 989 q 446 792 446 888 q 336 564 446 696 q 265 422 265 493 q 275 385 265 404 q 285 353 285 365 q 237 289 285 311 q 140 267 189 267 q 60 332 60 267 q 139 515 60 413 q 204 616 176 561 q 232 704 232 671 q 231 724 232 713 q 211 756 229 736 q 161 775 193 775 q 111 758 138 775 q 72 714 85 742 q 38 694 60 694 q 3 717 15 694 q -21 799 -21 757 z "},"@":{"ha":1308,"x_min":21,"x_max":1286,"o":"m 631 160 q 696 203 669 160 q 722 278 722 246 q 676 342 722 342 q 611 302 636 342 q 586 218 586 263 q 631 160 586 160 m 885 439 l 879 235 q 981 19 879 19 q 1056 53 1025 19 q 1101 139 1088 86 q 1126 313 1126 236 q 1118 446 1126 390 q 1081 568 1110 501 q 1008 682 1053 635 q 880 762 963 729 q 688 794 797 794 q 345 642 475 794 q 215 278 215 490 q 320 -54 215 65 q 642 -174 425 -174 q 713 -218 713 -174 q 522 -292 713 -292 q 158 -134 294 -292 q 21 263 21 24 q 212 729 21 546 q 690 913 403 913 q 1151 736 1000 913 q 1286 332 1286 578 q 1200 42 1286 179 q 1093 -66 1160 -25 q 960 -107 1026 -107 q 853 -92 893 -107 q 792 -58 813 -78 q 742 17 750 -15 l 739 32 q 729 47 738 47 l 713 36 q 570 -21 660 -21 q 438 35 481 -21 q 396 185 396 90 q 456 358 396 294 q 576 442 514 422 q 678 467 642 464 l 694 468 l 708 486 q 635 533 707 533 q 549 516 585 533 q 496 499 513 499 q 463 554 463 499 q 676 674 463 674 q 867 571 828 674 q 885 439 885 522 z "},"A":{"ha":717,"x_min":-61,"x_max":733,"o":"m 710 128 q 733 85 733 111 q 665 -1 733 33 q 538 -36 596 -36 q 471 -15 492 -36 q 453 34 454 1 q 450 104 451 67 q 448 172 449 142 q 435 224 447 203 q 411 250 422 246 q 342 256 399 256 q 256 243 286 256 q 197 114 225 229 q 189 83 190 86 q 7 -43 151 -43 q -61 -3 -61 -43 q -39 61 -61 26 l -31 74 q 156 544 72 261 q 240 888 240 826 q 233 928 240 911 q 225 956 225 946 q 344 1025 225 1025 q 472 997 418 1025 q 539 907 525 968 q 642 290 597 449 q 710 128 674 153 m 367 646 q 357 663 365 663 q 343 650 353 663 q 286 443 286 500 q 297 422 286 426 q 339 418 308 418 q 383 426 369 418 q 396 451 396 433 q 371 631 385 574 l 367 646 z "},"B":{"ha":628,"x_min":-14,"x_max":614,"o":"m 614 304 q 503 55 614 143 q 240 -33 392 -33 q 137 -22 185 -33 q 68 3 89 -10 l 47 15 q 21 68 21 38 q 44 458 44 313 q 33 690 44 603 q 11 800 22 776 l -1 825 q -14 869 -14 843 q 33 949 -14 915 q 67 970 44 957 q 163 1006 89 983 q 325 1028 236 1028 q 486 986 414 1028 q 558 863 558 944 q 443 632 558 722 q 433 615 433 624 q 443 600 433 606 q 541 508 503 558 q 593 413 579 458 q 614 304 614 344 m 251 633 q 321 687 292 633 q 350 785 350 740 q 324 854 350 829 q 260 879 299 879 q 222 853 222 879 q 236 644 222 726 q 251 633 239 633 m 379 342 q 379 368 379 342 q 354 440 379 394 q 301 485 329 485 q 252 441 272 485 q 232 353 232 397 q 303 228 232 228 q 359 259 339 228 q 379 342 379 290 z "},"C":{"ha":574,"x_min":14,"x_max":574,"o":"m 574 242 q 499 46 574 121 q 303 -29 424 -29 q 108 58 174 -29 q 29 242 44 149 q 14 401 14 340 q 19 524 14 463 q 36 659 24 585 q 73 795 49 733 q 132 910 97 857 q 222 994 167 964 q 330 1025 276 1025 q 408 1018 383 1025 q 442 1011 432 1011 q 477 1022 453 1011 q 537 1033 501 1033 q 572 1004 572 1033 q 561 944 572 1003 q 550 823 550 885 q 561 741 550 761 q 572 703 572 721 q 540 649 572 668 q 471 629 508 629 q 374 729 374 629 q 382 789 374 751 q 390 838 390 826 q 358 867 390 867 q 269 786 314 867 q 218 514 218 693 q 235 375 218 436 q 340 260 267 260 q 439 329 404 260 q 490 363 454 363 q 550 322 526 363 q 574 242 574 282 z "},"D":{"ha":615,"x_min":0,"x_max":614,"o":"m 0 82 l 1 94 q 43 565 43 350 q 19 839 43 750 l 13 869 q 6 903 6 883 q 58 985 6 953 q 226 1024 113 1024 q 415 980 340 1024 q 532 863 490 936 q 614 526 614 718 q 561 215 614 350 q 489 89 533 142 q 374 3 444 36 q 215 -29 304 -29 q 97 -13 149 -29 q 22 26 44 3 q 0 82 0 49 m 400 551 q 336 846 400 781 q 294 869 314 869 q 256 835 260 869 q 233 415 233 692 q 240 232 233 319 q 271 201 240 201 q 400 551 400 201 z "},"E":{"ha":563,"x_min":1,"x_max":563,"o":"m 389 658 l 453 660 q 492 611 492 660 q 448 532 492 563 q 339 499 404 501 q 249 465 254 499 q 244 404 244 439 q 250 340 244 369 q 271 281 256 311 q 396 211 304 211 q 460 228 436 211 q 506 246 483 246 q 540 223 528 246 q 553 174 553 200 q 478 27 553 85 q 307 -31 403 -31 q 43 360 43 -31 l 49 467 q 1 513 1 467 q 23 593 1 549 q 74 650 44 638 q 101 781 79 710 q 165 910 124 853 q 418 1022 247 1022 q 543 973 524 1022 q 563 892 563 924 q 515 817 563 817 q 475 831 503 817 q 408 844 447 844 q 299 794 340 844 q 258 679 258 743 q 298 660 258 661 q 389 658 338 658 z "},"F":{"ha":407,"x_min":1,"x_max":465,"o":"m 354 658 l 410 660 q 449 618 449 660 q 410 533 449 563 q 313 499 371 503 q 274 488 292 499 q 256 465 257 478 q 246 229 246 364 q 260 -36 246 94 q 264 -67 264 -50 q 256 -101 264 -85 q 178 -178 229 -149 q 55 -215 108 -215 q 1 -176 1 -215 l 7 -149 q 61 442 61 74 l 61 458 q 54 467 61 467 q 1 514 1 467 q 25 592 1 542 q 75 650 49 643 q 76 694 76 668 q 35 856 76 822 q 21 897 21 872 q 79 976 21 942 q 339 1036 190 1036 q 398 1033 375 1036 q 443 1015 421 1031 q 465 968 465 999 q 390 894 465 917 q 289 833 315 872 q 263 725 263 794 q 265 679 263 710 q 354 658 267 658 z "},"G":{"ha":606,"x_min":15,"x_max":592,"o":"m 578 606 q 563 263 563 451 q 586 10 563 75 q 592 -20 592 -3 q 578 -49 592 -37 q 550 -61 564 -60 l 535 -61 q 420 -36 469 -60 q 371 39 371 -12 q 358 110 371 110 l 349 101 q 228 -18 301 7 q 183 -26 204 -26 q 96 8 132 -26 q 44 103 60 43 q 15 303 15 207 q 21 468 15 400 q 40 619 26 536 q 80 769 53 701 q 145 896 107 838 q 244 988 183 954 q 381 1021 304 1021 q 506 976 489 1021 q 515 908 515 953 q 465 801 515 801 q 426 824 449 801 q 366 846 404 846 q 294 810 328 846 q 244 718 260 774 q 217 526 217 617 q 258 300 217 361 q 317 268 281 268 q 369 306 353 268 q 385 399 385 344 q 366 519 385 453 q 347 590 347 586 q 371 633 347 615 q 535 678 435 678 q 581 643 581 678 l 578 606 z "},"H":{"ha":628,"x_min":-12,"x_max":642,"o":"m 382 168 l 388 425 q 385 482 388 451 q 329 524 382 524 q 225 469 225 524 q 240 83 225 167 q 243 64 243 75 q 176 -19 243 14 q 56 -53 108 -53 q 4 -8 4 -53 l 8 19 q 43 543 43 271 l 36 758 q 3 847 33 808 q -12 885 -12 863 q 62 976 -12 933 q 190 1019 136 1019 q 235 974 232 1019 q 236 926 236 957 q 226 700 236 926 q 240 665 226 674 q 307 657 254 657 q 393 703 392 657 l 394 756 l 390 897 q 454 985 390 949 q 575 1022 518 1022 q 609 1015 599 1022 q 619 986 619 1008 q 614 940 619 964 q 572 472 572 733 q 585 213 575 293 q 619 111 596 133 q 642 65 642 89 q 578 -8 642 22 q 475 -39 514 -39 q 417 -25 436 -39 q 396 3 399 -11 l 393 17 q 382 168 382 67 z "},"I":{"ha":272,"x_min":1,"x_max":258,"o":"m 258 63 q 189 -20 258 13 q 69 -53 119 -53 q 18 -7 18 -53 l 22 19 q 57 543 57 271 l 50 758 q 17 847 47 808 q 1 885 1 863 q 78 977 1 935 q 201 1019 156 1019 q 249 974 246 1019 q 250 905 250 957 q 243 763 250 853 q 239 385 239 611 q 254 83 239 160 q 258 63 258 75 z "},"J":{"ha":281,"x_min":-131,"x_max":257,"o":"m 246 393 l 251 128 q 229 -86 251 -15 q 150 -201 207 -157 q 24 -246 93 -246 q -87 -208 -44 -246 q -131 -114 -131 -169 q -119 -72 -131 -87 q -94 -54 -107 -57 l -83 -51 q -10 -24 -39 -50 q 26 25 19 1 l 33 50 q 63 474 63 147 l 57 764 q 49 808 57 789 q 24 842 40 826 q 8 879 8 857 q 85 974 8 928 q 208 1019 161 1019 q 257 974 254 1019 q 251 763 257 840 q 246 393 246 576 z "},"K":{"ha":622,"x_min":1,"x_max":669,"o":"m 532 315 q 543 282 532 315 q 585 190 554 250 q 642 113 615 129 q 669 71 669 97 q 603 -9 669 25 q 501 -43 538 -43 q 446 -30 464 -43 q 412 18 428 -17 q 367 169 396 53 q 319 378 338 285 l 300 472 q 277 506 293 506 q 250 467 261 506 q 239 410 239 428 q 257 83 239 178 q 260 64 260 75 q 190 -20 260 13 q 70 -53 121 -53 q 19 -7 19 -53 l 24 19 q 58 546 58 271 l 51 764 q 25 833 49 813 q 1 878 1 856 q 81 974 1 928 q 205 1019 160 1019 q 253 974 250 1019 q 238 714 238 821 q 251 671 238 671 q 264 681 258 671 q 328 790 283 719 q 405 906 372 861 q 476 989 438 951 q 539 1026 514 1026 q 607 981 581 1026 q 633 892 633 935 q 577 844 633 844 q 454 736 521 844 q 438 685 438 717 q 444 627 438 653 q 457 571 450 601 q 487 460 464 540 q 532 315 510 379 z "},"L":{"ha":517,"x_min":0,"x_max":517,"o":"m 517 225 q 465 36 517 94 q 219 -22 414 -22 q 85 -12 131 -22 q 31 9 40 -3 q 21 43 21 21 l 24 64 q 56 532 56 236 l 50 768 q 18 858 47 818 q 0 896 0 876 q 84 986 0 942 q 215 1031 168 1031 q 263 992 263 1031 q 241 738 244 853 q 238 477 238 624 q 239 300 238 331 q 241 267 240 269 q 245 257 242 264 q 256 244 249 250 q 307 232 272 232 q 429 285 383 232 q 474 307 451 307 q 517 225 517 307 z "},"M":{"ha":863,"x_min":-32,"x_max":874,"o":"m 189 414 l 192 193 l 188 72 q 159 4 185 32 q 97 -35 133 -24 q 2 -54 36 -54 q -32 -24 -32 -54 l -29 -7 q 11 144 -12 40 l 18 179 q 57 699 57 399 q 32 863 57 813 q 15 903 15 881 q 117 999 15 964 q 290 1035 219 1035 q 375 976 360 1035 q 404 844 393 914 q 447 699 428 699 q 469 715 461 699 q 533 883 518 839 q 551 939 547 928 q 579 974 556 950 q 639 1008 603 997 q 761 1029 693 1029 q 874 981 874 1029 q 861 940 874 965 q 813 740 826 889 q 799 447 799 592 q 839 129 799 157 q 865 80 865 108 q 826 24 865 51 q 742 -18 788 -4 q 663 -32 696 -32 q 613 -18 631 -32 q 592 10 594 -4 l 589 24 q 582 111 582 47 q 596 381 582 214 l 600 431 q 613 605 613 542 q 601 668 613 668 q 500 408 574 668 q 449 256 469 303 l 440 236 q 372 186 421 186 q 347 194 357 186 q 335 219 338 203 q 250 556 310 283 l 231 644 q 213 667 224 667 q 189 414 189 667 z "},"N":{"ha":692,"x_min":-14,"x_max":704,"o":"m 71 658 l 68 740 l 68 749 q 50 833 68 789 l 44 847 q 29 893 29 867 q 60 947 29 919 q 135 989 90 974 q 293 1021 228 1021 q 371 965 358 1021 q 408 815 388 910 q 436 688 428 719 q 485 543 458 594 q 494 539 489 539 q 511 571 508 539 q 506 765 511 696 q 501 870 501 833 q 506 919 501 907 q 569 996 521 965 q 660 1026 617 1026 q 704 992 704 1026 q 685 886 704 983 q 638 289 638 640 q 646 43 638 172 l 646 38 q 599 -19 646 -7 q 522 -29 563 -29 q 427 -10 481 -29 q 367 51 374 8 q 265 519 328 285 l 244 599 q 225 621 236 621 q 201 329 201 621 q 206 153 201 229 q 210 63 210 76 q 184 -1 210 25 q 121 -36 158 -26 q 22 -54 58 -54 q -14 -21 -14 -54 q 8 73 -14 -10 q 35 178 31 156 q 71 615 71 358 l 71 658 z "},"O":{"ha":651,"x_min":14,"x_max":638,"o":"m 340 1036 q 469 993 408 1036 q 638 474 638 875 q 567 142 638 299 q 467 14 532 63 q 323 -35 401 -35 q 190 -1 244 -35 q 102 85 135 33 q 49 203 69 136 q 14 424 14 315 q 29 625 14 533 q 78 814 44 717 q 179 974 111 911 q 340 1036 247 1036 m 356 867 q 276 793 313 867 q 220 624 239 719 q 201 443 201 528 q 226 313 201 358 q 289 267 250 267 q 392 371 349 267 q 436 671 436 475 q 356 867 436 867 z "},"P":{"ha":526,"x_min":1,"x_max":617,"o":"m 285 382 q 256 355 267 372 q 243 313 246 338 q 253 119 246 151 q 260 75 260 86 q 191 -8 260 25 q 70 -42 122 -42 q 18 8 18 -42 l 21 31 q 54 543 54 278 l 47 768 q 24 839 47 804 q 1 899 1 874 q 60 978 1 943 q 188 1027 119 1013 q 295 1042 257 1042 q 360 1039 333 1042 q 435 1022 386 1036 q 522 985 485 1008 q 588 911 560 961 q 617 783 617 861 q 583 628 617 704 q 500 508 549 553 q 319 393 401 419 l 285 382 m 358 638 q 371 669 358 638 q 388 734 383 700 q 392 794 392 768 q 385 844 392 819 q 371 880 379 868 q 351 899 363 892 q 322 908 336 908 q 271 878 290 908 q 251 814 251 847 q 240 658 240 743 q 242 560 240 574 q 261 536 242 536 q 290 547 274 536 q 358 638 333 575 z "},"Q":{"ha":651,"x_min":14,"x_max":638,"o":"m 340 1036 q 469 993 408 1036 q 638 474 638 875 q 543 97 638 243 q 588 74 565 75 q 628 39 628 68 q 569 -48 628 -11 q 460 -85 510 -85 q 428 -80 436 -85 q 419 -74 421 -75 q 406 -61 417 -74 q 382 -26 394 -49 q 315 -35 350 -35 q 190 -1 244 -35 q 102 85 135 33 q 49 203 69 136 q 14 424 14 315 q 29 625 14 533 q 78 814 44 717 q 179 974 111 911 q 340 1036 247 1036 m 356 867 q 276 793 313 867 q 220 624 239 719 q 201 444 201 528 q 286 249 201 249 q 314 254 303 249 l 314 278 q 321 351 314 319 q 404 444 347 444 q 417 443 413 444 q 436 657 436 547 q 356 867 436 867 z "},"R":{"ha":638,"x_min":1,"x_max":664,"o":"m 299 624 q 394 801 394 685 q 376 872 394 842 q 318 903 358 903 q 240 697 240 903 q 243 636 240 678 q 268 613 246 613 q 299 624 282 613 m 513 601 q 492 560 492 586 q 493 547 492 551 q 576 211 519 376 q 629 137 594 158 q 664 85 664 115 q 602 8 664 38 q 488 -22 540 -22 q 408 25 431 -22 q 404 33 404 32 q 340 331 365 108 q 326 443 329 431 q 307 458 326 458 q 254 429 268 458 q 243 286 243 400 q 251 129 243 172 q 258 75 258 86 q 190 -10 258 24 q 61 -43 121 -43 q 14 3 14 -43 l 18 31 q 53 564 53 289 l 47 768 q 24 840 47 803 q 1 899 1 878 q 118 1004 1 964 q 332 1044 235 1044 q 455 1028 399 1044 q 544 990 511 1013 q 600 926 576 968 q 624 828 624 885 q 513 601 624 690 z "},"S":{"ha":567,"x_min":1,"x_max":544,"o":"m 458 531 q 476 508 458 531 q 519 418 494 485 q 544 277 544 351 q 526 147 544 203 q 476 60 507 92 q 413 7 444 28 q 346 -22 382 -14 q 264 -35 292 -35 q 72 36 142 -35 q 1 221 1 107 q 33 341 1 285 q 113 397 64 397 q 140 385 129 397 q 153 342 150 372 q 165 283 156 311 q 186 241 175 254 q 211 219 197 228 q 244 210 231 210 q 299 234 279 210 q 318 299 318 258 q 292 387 318 339 q 228 478 265 435 q 154 567 192 522 q 64 769 64 674 q 148 962 64 894 q 363 1029 232 1029 q 466 1001 435 1029 q 497 903 497 974 q 457 833 497 833 q 420 844 443 833 q 368 854 397 854 q 319 831 339 854 q 300 772 300 807 q 325 696 300 736 q 386 616 350 656 q 458 531 422 576 z "},"T":{"ha":317,"x_min":-76,"x_max":419,"o":"m 124 1017 l 256 1010 q 353 1025 322 1010 q 388 1032 371 1032 q 419 986 419 1032 q 403 903 419 950 l 399 888 q 281 806 372 806 q 261 783 261 806 q 257 444 257 660 q 275 99 257 228 q 278 79 278 90 q 246 21 278 46 q 72 -37 174 -37 q 24 8 24 -37 l 28 35 q 74 781 74 389 q 69 794 74 790 q 42 799 65 799 q -8 783 18 799 q -47 768 -33 768 q -76 809 -76 768 q -56 906 -76 850 q -1 989 -36 961 q 124 1017 35 1017 z "},"U":{"ha":629,"x_min":1,"x_max":629,"o":"m 244 697 l 238 517 q 307 317 238 317 q 363 350 343 317 q 391 428 386 392 q 399 489 396 465 q 403 549 401 513 q 404 610 404 586 l 404 671 q 390 858 404 794 q 385 890 385 871 q 454 988 385 946 q 576 1031 524 1031 q 629 986 629 1031 q 619 926 629 975 q 601 792 610 878 q 592 644 593 706 q 590 492 590 582 q 587 326 589 403 q 560 176 585 249 q 503 66 536 104 q 425 6 469 28 q 278 -29 358 -29 q 140 20 199 -29 q 59 138 81 69 q 38 292 38 207 l 44 618 l 44 689 l 43 765 q 18 854 43 821 q 1 893 1 871 q 82 989 1 947 q 217 1031 163 1031 q 271 992 271 1031 q 265 939 271 989 q 244 697 246 769 z "},"V":{"ha":486,"x_min":-87,"x_max":597,"o":"m 596 963 q 506 555 571 778 q 389 201 440 332 l 336 71 q 176 -37 289 -37 q 101 13 106 -37 q 58 354 88 167 q 6 653 28 542 l -18 763 q -60 852 -32 825 q -87 901 -87 879 q -13 991 -87 949 q 116 1033 61 1033 q 179 981 171 1033 q 215 686 199 889 q 257 406 238 482 q 270 392 263 392 q 288 410 278 392 q 314 467 299 429 q 356 600 329 504 q 382 774 382 696 q 349 901 382 853 q 340 929 340 913 q 408 1003 340 974 q 529 1033 475 1033 q 597 978 597 1033 q 596 963 597 968 z "},"W":{"ha":878,"x_min":-103,"x_max":981,"o":"m 494 13 q 440 421 460 421 q 426 406 433 421 q 313 71 349 151 q 246 -8 289 22 q 143 -37 203 -37 q 101 -25 118 -37 q 83 13 83 -12 q 42 354 72 167 q -11 653 13 542 l -35 763 q -76 853 -49 826 q -103 901 -103 881 q -30 990 -103 947 q 97 1033 43 1033 q 158 981 151 1033 q 194 686 178 889 q 236 406 217 482 q 250 392 242 392 q 265 407 258 392 q 361 803 361 614 q 348 892 361 864 q 335 940 335 919 q 361 982 335 961 q 422 1019 382 1003 q 499 1035 463 1035 q 551 1025 535 1035 q 576 972 567 1015 q 600 733 585 928 q 646 406 628 482 q 659 392 651 392 q 676 407 667 392 q 740 592 713 490 q 768 774 768 694 q 735 901 768 853 q 728 928 728 913 q 794 1003 728 972 q 920 1033 860 1033 q 981 978 981 1033 l 979 963 q 889 551 953 774 q 775 200 825 328 l 724 71 q 554 -37 676 -37 q 512 -25 529 -37 q 494 13 494 -12 z "},"X":{"ha":703,"x_min":-46,"x_max":731,"o":"m 474 524 q 559 316 504 419 q 657 192 614 213 l 676 183 q 703 169 696 176 q 710 149 710 163 q 635 28 710 92 q 504 -35 560 -35 q 461 -22 479 -35 q 436 6 443 -8 l 431 19 q 385 129 417 39 q 326 318 353 219 q 317 332 322 332 q 303 321 308 332 q 207 100 261 242 l 190 57 q 56 -21 158 -21 q -46 21 -46 -21 q -22 65 -46 39 q 88 226 24 110 q 194 438 153 343 l 235 532 q 242 569 242 550 l 238 597 q 104 857 192 792 q 75 907 75 879 q 142 994 75 954 q 260 1033 208 1033 q 329 981 313 1033 q 392 792 354 921 q 406 776 397 776 q 419 789 414 776 q 492 972 476 913 l 496 985 q 517 1010 499 993 q 569 1038 535 1026 q 653 1050 603 1050 q 731 1015 731 1050 q 715 982 731 999 q 678 938 700 965 q 594 810 656 911 q 479 586 533 708 q 471 549 471 568 q 474 524 471 531 z "},"Y":{"ha":401,"x_min":-115,"x_max":586,"o":"m 349 914 l 343 951 q 388 1013 343 983 q 521 1043 432 1043 q 586 1006 586 1043 q 574 958 586 989 q 448 711 561 926 q 321 457 335 496 q 293 322 297 390 l 292 299 q 301 86 297 100 q 304 61 304 72 q 272 1 304 28 q 92 -50 206 -50 q 44 -6 44 -50 l 49 22 q 58 67 50 29 q 70 122 67 104 q 78 179 74 140 q 89 333 89 263 q 81 475 89 439 q -3 724 36 619 l -17 758 q -89 865 -40 828 q -115 914 -115 888 q -42 997 -115 964 q 86 1031 31 1031 q 153 985 142 1031 q 172 903 157 969 q 238 669 207 742 q 247 658 242 658 q 261 668 253 658 q 318 790 288 708 q 349 914 349 871 z "},"Z":{"ha":576,"x_min":0,"x_max":592,"o":"m 575 233 q 432 -19 575 -10 q 211 -31 329 -31 q 0 43 0 -31 q 51 221 0 96 q 153 444 101 346 l 203 544 q 335 821 335 799 q 299 843 335 843 q 226 824 264 843 q 169 786 188 806 l 151 768 q 106 740 129 740 q 72 826 72 740 q 104 964 72 913 q 178 1007 126 999 q 367 1018 267 1018 q 502 1015 467 1018 q 548 1009 538 1011 q 575 993 558 1007 q 592 953 592 979 q 566 887 592 926 q 508 791 540 847 q 412 585 476 735 q 322 314 347 435 q 319 283 319 306 q 386 244 319 244 q 506 300 453 244 q 535 311 514 311 q 565 295 556 311 q 575 233 575 279 z "},"[":{"ha":251,"x_min":21,"x_max":251,"o":"m 168 931 l 168 49 q 186 -8 168 28 q 250 -122 250 -93 q 231 -139 250 -139 l 196 -131 q 33 -17 78 -86 q 21 17 24 -1 l 21 963 q 32 992 21 972 q 60 1029 43 1013 q 196 1110 103 1072 q 234 1118 217 1118 q 251 1101 251 1118 q 235 1058 251 1083 q 186 988 199 1004 q 168 931 168 949 z "},"\\":{"ha":519,"x_min":-168,"x_max":535,"o":"m 479 -32 q 447 -23 461 -32 q 424 3 433 -14 l -164 1003 q -168 1018 -168 1011 q -119 1043 -168 1043 q -85 1037 -100 1043 q -62 1019 -71 1031 l 525 19 q 535 -6 535 7 q 479 -32 535 -32 z "},"]":{"ha":251,"x_min":0,"x_max":231,"o":"m 83 49 l 83 931 q 65 988 83 949 q 0 1097 0 1075 q 19 1118 0 1118 l 56 1110 q 176 1042 132 1079 q 225 983 219 1006 l 231 963 l 231 17 q 219 -13 231 7 q 192 -50 208 -33 q 56 -131 144 -97 q 19 -139 36 -139 q 1 -116 1 -139 q 65 -8 1 -93 q 83 49 83 29 z "},"^":{"ha":568,"x_min":69,"x_max":499,"o":"m 463 238 q 290 365 324 365 q 114 247 274 365 q 85 232 96 232 q 69 249 69 232 q 85 292 69 267 q 121 345 100 317 q 185 422 142 374 q 249 469 228 469 q 250 469 250 469 q 288 447 268 469 q 292 444 290 444 q 300 451 294 444 q 331 469 317 469 l 336 469 q 393 426 357 469 q 456 339 429 382 l 481 296 q 499 248 499 265 q 483 231 499 231 q 463 238 472 231 z "},"_":{"ha":658,"x_min":-42,"x_max":693,"o":"m 463 -24 l 624 -22 q 674 -38 656 -22 q 693 -72 693 -54 q 678 -101 693 -89 q 642 -114 664 -114 l 454 -112 l 8 -114 q -28 -103 -15 -114 q -42 -74 -42 -92 q -24 -40 -42 -56 q 25 -22 -7 -24 q 463 -24 310 -24 z "},"`":{"ha":540,"x_min":194,"x_max":390,"o":"m 221 833 q 194 860 197 842 q 217 910 194 883 q 262 938 240 938 q 311 907 283 938 q 371 822 350 864 q 390 774 390 790 q 375 757 390 757 q 354 763 365 757 q 221 833 264 819 z "},"a":{"ha":540,"x_min":8,"x_max":540,"o":"m 199 225 q 240 167 199 167 q 308 210 282 167 q 333 286 333 253 q 289 349 333 349 q 224 308 249 349 q 199 225 199 268 m 497 446 l 493 253 q 522 119 493 138 q 540 83 540 106 q 487 8 540 43 q 378 -26 433 -26 q 336 -15 350 -26 q 322 11 322 -3 q 313 49 322 49 q 295 33 311 49 q 248 1 279 17 q 169 -15 217 -15 q 84 8 121 -15 q 33 69 47 32 q 8 186 8 132 q 25 288 8 240 q 67 364 42 335 q 125 416 92 393 q 188 449 158 439 q 247 467 217 460 q 307 475 290 475 l 321 493 q 252 540 319 540 q 142 514 185 540 q 108 503 125 503 q 75 553 75 503 q 281 682 75 682 q 479 576 439 682 q 497 446 497 529 z "},"b":{"ha":556,"x_min":-21,"x_max":535,"o":"m 236 621 q 340 671 282 671 q 438 637 399 671 q 497 550 476 603 q 535 351 535 447 q 508 175 535 254 q 418 38 482 96 q 265 -21 354 -21 q 164 2 207 -21 q 97 60 121 25 q 58 147 72 94 q 35 358 35 231 l 39 476 q 49 679 49 594 l 43 794 q 28 836 40 818 q -3 868 17 854 q -21 900 -21 885 q 7 956 -21 933 l 17 963 q 91 1006 33 979 q 191 1033 149 1033 q 233 994 233 1033 q 218 622 218 864 q 226 613 221 613 q 236 621 231 613 m 240 238 q 251 222 240 238 q 297 206 263 206 q 351 238 332 206 q 371 319 371 269 q 343 427 371 369 q 269 485 315 485 q 220 453 239 485 q 201 381 201 421 q 209 306 201 340 q 240 238 217 271 z "},"c":{"ha":504,"x_min":15,"x_max":503,"o":"m 428 264 q 503 172 503 264 q 479 76 501 117 q 430 15 457 35 q 364 -17 403 -6 q 251 -32 313 -32 q 141 -3 190 -32 q 65 76 92 26 q 15 304 15 171 q 81 561 15 450 q 170 651 113 618 q 307 685 228 685 q 442 644 386 685 q 499 517 499 603 q 406 414 499 414 q 366 431 382 414 q 350 466 350 449 q 348 495 350 483 q 331 527 346 507 q 294 547 317 547 q 207 372 207 547 q 217 268 207 319 q 294 171 238 171 q 353 215 338 171 q 379 249 357 235 q 428 264 401 264 z "},"d":{"ha":607,"x_min":22,"x_max":614,"o":"m 547 292 l 549 258 l 549 253 q 593 149 549 179 q 614 113 614 132 q 604 79 614 93 q 528 8 574 35 q 421 -28 467 -28 q 371 17 375 -28 q 357 51 368 51 l 347 46 q 222 -19 300 -19 q 124 10 165 -19 q 63 89 83 39 q 22 301 22 183 q 86 544 22 428 q 172 635 118 600 q 292 671 226 671 q 342 663 322 671 l 361 654 q 373 676 371 654 q 375 734 375 699 q 372 792 375 769 q 365 826 369 815 q 356 844 361 838 q 328 868 347 856 q 310 903 310 881 q 388 990 310 949 q 518 1032 467 1032 q 561 997 557 1032 q 564 942 564 983 q 555 772 564 900 q 546 528 546 644 l 546 389 l 547 318 l 547 292 m 258 228 q 341 286 310 228 q 372 390 372 344 q 313 499 372 499 q 231 437 264 499 q 199 319 199 375 q 258 228 199 233 z "},"e":{"ha":510,"x_min":15,"x_max":494,"o":"m 203 417 q 208 403 203 408 q 222 396 214 396 q 328 471 301 403 q 338 507 335 486 q 299 556 336 556 q 233 514 256 556 q 203 417 210 472 m 298 683 q 344 683 298 683 q 442 636 390 683 q 494 493 494 589 q 419 335 494 397 q 228 272 343 272 q 211 256 211 272 q 235 198 211 222 q 302 174 260 174 q 378 213 344 174 q 438 251 413 251 q 479 229 464 251 q 494 166 494 207 q 474 84 494 125 q 426 22 454 43 q 364 -11 399 1 q 255 -31 313 -31 q 147 -3 197 -31 q 69 72 97 25 q 15 281 15 167 q 43 481 15 396 q 138 624 71 565 q 298 683 206 683 z "},"f":{"ha":331,"x_min":1,"x_max":371,"o":"m 7 -111 q 50 444 50 94 q 14 831 50 793 q 1 874 1 847 q 56 964 1 922 q 85 985 67 972 q 161 1017 104 997 q 272 1038 218 1038 q 371 983 371 1038 q 340 929 371 946 q 285 890 310 913 q 250 851 260 867 l 242 836 q 222 752 222 801 q 226 665 222 703 q 254 646 226 647 q 317 647 297 647 q 354 607 354 647 q 334 522 354 567 q 278 475 314 478 q 228 461 238 475 q 221 284 221 449 q 233 42 221 119 q 246 -53 246 -36 q 240 -81 246 -69 q 169 -150 218 -124 q 52 -185 101 -185 q 3 -139 3 -185 l 7 -111 z "},"g":{"ha":593,"x_min":21,"x_max":564,"o":"m 564 676 q 539 219 539 451 q 515 -115 539 -14 q 420 -282 490 -217 q 253 -347 350 -347 q 154 -316 196 -347 q 113 -229 113 -285 q 131 -174 113 -194 q 169 -150 150 -154 l 189 -147 q 273 -121 239 -144 q 321 -62 307 -97 q 343 44 343 -7 l 343 56 q 333 65 342 65 l 319 58 q 274 17 301 32 q 228 0 247 3 l 210 -1 q 108 30 150 -1 q 50 111 67 61 q 21 274 21 199 q 35 415 21 349 q 78 543 49 481 q 164 644 108 606 q 281 683 219 683 q 374 656 342 683 q 386 647 378 647 q 400 656 394 647 q 521 721 451 721 q 564 676 564 721 m 291 235 q 308 235 291 235 q 347 271 325 235 q 367 368 368 307 q 342 474 367 429 q 285 518 318 518 q 230 481 251 518 q 208 385 208 444 q 233 281 208 326 q 291 235 257 235 z "},"h":{"ha":567,"x_min":-14,"x_max":579,"o":"m 222 640 l 224 604 q 232 594 226 594 q 243 600 238 594 q 303 651 261 628 q 382 674 344 674 q 469 629 439 674 q 507 528 499 585 q 515 365 515 431 q 513 243 515 299 q 557 117 513 144 q 579 85 579 104 q 569 51 579 67 q 503 -1 547 18 q 428 -22 460 -21 l 396 -25 q 340 -1 354 -24 q 326 68 326 21 l 339 307 q 340 354 340 325 q 289 468 340 468 q 237 429 256 468 q 216 342 218 390 q 214 238 214 294 l 222 65 q 190 -3 222 19 q 72 -36 142 -36 q 1 10 1 -36 l 6 35 q 50 607 50 250 q 51 717 51 657 q 49 799 51 778 q 36 838 47 821 q 4 869 25 856 q -14 901 -14 883 q 64 990 -14 949 q 188 1032 142 1032 q 239 954 239 1032 q 231 793 239 897 q 222 640 222 689 z "},"i":{"ha":300,"x_min":8,"x_max":293,"o":"m 63 454 q 52 496 63 476 q 25 531 42 515 q 8 564 8 546 q 81 648 8 611 q 202 685 153 685 q 253 635 251 685 q 247 510 253 600 q 240 344 240 421 q 274 113 240 160 q 293 78 293 101 q 242 6 293 32 q 128 -21 192 -21 q 43 36 43 -21 q 47 68 43 39 q 67 317 67 179 l 63 454 m 267 896 q 217 813 267 844 q 122 782 168 782 q 51 799 76 782 q 25 846 25 817 q 75 931 25 899 q 170 964 125 964 q 241 946 215 964 q 267 896 267 928 z "},"j":{"ha":300,"x_min":-94,"x_max":276,"o":"m 246 125 l 247 15 q 229 -157 247 -90 q 153 -267 206 -226 q 43 -307 101 -307 q -47 -281 -15 -307 q -86 -231 -79 -256 l -93 -206 q -94 -181 -94 -199 q -84 -149 -94 -162 q -53 -131 -74 -135 q 10 -107 -17 -131 q 45 -64 36 -83 q 54 -39 54 -44 q 75 269 75 71 l 71 454 q 59 496 69 476 q 32 531 49 515 q 15 564 15 546 q 88 648 15 611 q 210 685 161 685 q 260 622 260 685 q 253 485 260 588 q 246 125 246 268 m 276 896 q 225 813 272 844 q 133 782 178 782 q 62 800 89 782 q 35 850 35 818 q 85 932 35 900 q 181 964 136 964 q 250 946 225 964 q 276 896 275 928 z "},"k":{"ha":579,"x_min":-12,"x_max":592,"o":"m 239 938 l 224 581 q 225 523 224 539 q 233 507 226 507 q 244 513 239 507 q 301 581 250 518 q 380 669 351 644 q 442 694 408 694 q 508 666 475 694 q 540 605 540 638 q 501 571 540 572 q 421 521 449 571 q 415 490 415 511 q 431 398 415 469 q 481 244 446 326 q 556 151 515 163 q 592 113 592 139 q 533 22 592 64 q 434 -21 474 -21 q 375 9 394 -21 q 333 131 356 39 q 297 299 310 222 l 285 375 q 269 396 281 396 q 239 374 251 396 q 224 326 226 351 q 222 245 222 301 q 227 133 222 189 q 232 65 232 76 q 200 -3 232 19 q 69 -36 153 -36 q 11 11 11 -36 l 15 35 q 53 607 53 231 q 54 717 54 657 q 51 799 54 778 q 38 838 49 821 q 7 869 26 856 q -12 903 -12 882 q 61 990 -12 947 q 185 1032 135 1032 q 238 982 236 1032 q 239 938 239 965 z "},"l":{"ha":311,"x_min":1,"x_max":310,"o":"m 253 982 q 244 770 253 900 q 235 493 235 640 q 238 248 235 346 q 286 118 242 150 q 310 75 310 104 q 274 21 310 46 q 124 -25 207 -25 q 53 22 67 -25 q 49 69 49 42 q 51 131 49 96 q 56 221 53 165 q 68 616 68 471 q 64 792 68 761 q 29 863 58 842 l 19 869 q 1 903 1 882 q 80 990 1 949 q 203 1032 158 1032 q 253 982 253 1032 z "},"m":{"ha":886,"x_min":0,"x_max":892,"o":"m 232 354 l 229 250 q 233 115 229 153 q 238 67 238 76 q 206 -1 238 21 q 74 -37 153 -37 q 17 11 17 -37 l 19 33 q 56 458 56 203 q 46 499 56 481 q 15 532 36 517 q 0 563 0 546 q 74 649 0 607 q 190 690 147 690 q 235 644 232 690 q 239 604 238 625 q 249 594 242 594 q 257 599 250 594 q 319 650 275 626 q 404 674 363 674 q 525 582 497 674 q 532 578 528 578 q 542 585 536 578 q 701 674 594 674 q 811 583 789 674 q 828 425 828 517 l 821 249 q 868 117 821 142 q 892 81 892 104 q 835 8 892 40 q 717 -25 779 -25 q 644 22 654 -25 q 642 86 642 35 l 650 307 q 651 344 651 321 q 600 467 651 467 q 549 427 567 467 q 531 353 532 388 q 529 264 529 318 q 531 169 529 210 q 536 105 533 129 q 539 75 539 81 q 503 6 539 33 q 399 -22 468 -22 q 331 22 331 -22 l 336 54 q 356 349 356 144 q 303 471 356 471 q 250 432 268 471 q 232 354 232 393 z "},"n":{"ha":611,"x_min":1,"x_max":611,"o":"m 240 354 l 238 250 q 242 138 238 208 l 246 67 q 214 -1 246 21 q 82 -37 163 -37 q 25 11 25 -37 l 28 33 q 63 308 63 196 q 56 458 64 421 q 25 522 49 496 q 1 564 1 547 q 74 651 1 610 q 188 693 146 693 q 236 647 231 693 q 251 586 239 586 q 261 590 256 586 q 278 614 267 600 q 330 651 290 628 q 421 674 369 674 q 506 632 472 674 q 546 533 539 590 q 549 456 549 510 l 543 250 q 586 121 543 156 q 611 90 611 108 q 600 56 611 71 q 428 -19 547 -19 q 361 26 371 -18 q 357 87 357 46 q 365 216 357 128 q 372 346 372 304 q 317 469 372 469 q 260 431 281 469 q 240 354 240 392 z "},"o":{"ha":546,"x_min":15,"x_max":532,"o":"m 285 693 q 469 588 406 693 q 532 329 532 482 q 417 24 532 128 q 275 -33 353 -33 q 147 -1 197 -33 q 69 83 96 31 q 15 303 15 186 q 78 558 15 439 q 163 656 108 618 q 285 693 217 693 m 365 397 q 349 472 365 439 q 294 506 332 506 q 220 452 256 506 q 185 322 185 399 q 256 215 185 215 q 330 264 294 215 q 365 397 365 313 z "},"p":{"ha":597,"x_min":-21,"x_max":583,"o":"m 199 696 q 244 614 244 696 q 253 606 249 606 q 264 613 258 606 q 278 631 269 621 q 317 658 288 642 q 392 675 347 675 q 478 645 436 675 q 542 564 519 615 q 583 331 583 468 q 567 218 583 288 q 529 102 551 149 q 461 19 507 56 q 354 -17 415 -17 q 294 -6 321 -17 q 258 17 268 6 l 247 26 q 239 31 243 31 q 229 18 232 31 q 225 -119 225 -51 q 228 -226 225 -186 q 232 -275 232 -265 q 200 -346 232 -321 q 21 -408 126 -408 q -21 -368 -21 -408 l -17 -343 q 40 -101 21 -236 q 62 131 58 33 q 65 327 65 229 q 64 456 65 425 q 28 525 60 507 l 18 532 q 0 565 0 549 q 73 654 0 613 q 199 696 146 696 m 243 371 q 243 341 243 371 q 267 266 243 311 q 325 221 292 221 q 381 258 358 221 q 403 355 403 294 q 378 460 403 415 q 319 506 353 506 q 265 468 286 506 q 243 371 243 431 z "},"q":{"ha":611,"x_min":14,"x_max":611,"o":"m 511 -47 q 540 -343 511 -226 q 542 -360 542 -350 q 494 -407 542 -407 q 328 -346 393 -407 q 303 -286 303 -322 l 307 -258 q 335 18 328 -153 q 327 31 332 31 q 317 26 322 31 q 215 -17 288 -17 q 94 31 142 -17 q 31 140 47 78 q 14 269 14 201 q 27 402 14 336 q 68 534 40 468 q 149 642 96 600 q 271 683 201 683 q 338 672 310 683 q 376 650 367 661 l 386 639 q 397 631 392 631 l 411 639 q 459 680 425 661 q 534 699 493 699 q 575 672 575 699 q 566 633 575 665 q 544 517 557 600 q 528 381 532 433 l 519 272 q 532 256 521 256 q 550 262 536 256 q 585 268 564 268 q 611 244 611 268 q 586 180 611 228 q 553 114 561 132 q 521 31 529 69 l 511 -47 m 197 372 q 197 342 197 372 q 222 267 197 313 q 281 221 247 221 q 335 258 314 221 q 357 355 357 294 q 332 460 357 415 q 274 506 307 506 q 219 469 240 506 q 197 372 197 432 z "},"r":{"ha":468,"x_min":0,"x_max":496,"o":"m 240 107 l 243 72 q 211 4 243 26 q 74 -33 157 -33 q 21 13 21 -33 l 25 36 q 58 438 58 200 q 15 540 58 510 q 0 572 0 550 q 69 656 0 615 q 179 697 138 697 q 226 651 221 697 q 232 603 232 619 q 243 588 232 588 q 253 594 250 588 q 260 606 257 600 q 276 628 264 613 q 303 656 289 644 q 383 688 339 688 q 442 669 413 688 q 496 538 496 636 q 471 429 496 475 q 390 383 446 383 q 321 460 321 383 l 322 481 q 303 504 322 504 q 229 292 229 504 q 240 107 229 236 z "},"s":{"ha":486,"x_min":0,"x_max":471,"o":"m 267 696 q 450 588 450 696 q 430 536 450 557 q 384 515 410 515 q 335 529 358 515 q 282 543 311 543 q 211 503 211 543 q 233 472 211 485 q 431 339 397 390 q 471 196 471 279 q 457 122 471 165 q 419 49 443 79 q 344 -6 396 19 q 222 -31 293 -31 q 115 -14 172 -31 q 0 124 0 19 q 28 208 0 172 q 97 243 56 243 q 157 218 139 243 q 165 206 158 217 q 178 189 172 194 q 225 171 196 171 q 271 185 254 171 q 288 225 288 200 q 249 276 288 250 q 163 322 210 303 q 78 384 117 342 q 39 483 39 426 q 102 638 39 581 q 267 696 165 696 z "},"t":{"ha":333,"x_min":-33,"x_max":347,"o":"m 228 879 l 225 813 q 241 772 225 776 q 272 768 257 768 q 318 771 288 768 q 347 733 347 771 q 246 624 347 663 q 226 599 232 618 q 218 400 218 514 q 226 250 218 286 q 276 210 233 217 q 294 200 286 210 q 310 165 310 182 q 307 131 310 147 q 294 87 304 115 q 267 34 283 58 q 219 -8 251 10 q 147 -26 188 -26 q 47 56 78 -26 q 36 132 36 88 l 47 506 q 40 617 47 574 q -14 697 32 660 q -33 736 -33 711 q -8 786 -33 761 q 132 935 68 833 q 181 961 151 961 q 228 879 228 961 z "},"u":{"ha":610,"x_min":0,"x_max":610,"o":"m 39 197 l 43 422 q 36 492 43 463 q 15 540 29 522 q 0 576 0 557 q 69 656 0 619 q 176 693 139 693 q 227 678 214 693 q 240 622 240 663 q 233 495 240 582 q 226 390 226 408 q 292 239 226 239 q 356 338 339 239 q 363 418 363 374 q 347 550 363 507 q 332 588 332 569 q 394 658 332 629 q 505 686 457 686 q 553 638 553 686 q 544 489 553 590 q 535 328 535 388 q 536 245 535 269 q 551 173 538 221 q 586 111 564 125 q 610 81 610 100 q 599 47 610 63 q 436 -24 547 -24 q 365 24 374 -19 l 356 71 q 347 81 354 81 l 336 75 q 183 -19 286 -19 q 39 197 39 -17 z "},"v":{"ha":557,"x_min":-26,"x_max":557,"o":"m 470 703 q 494 703 470 703 q 538 653 518 703 q 557 543 557 603 q 538 417 557 483 q 492 300 519 351 q 392 140 436 197 l 372 117 q 197 -31 260 -31 q 67 329 115 -31 q 40 449 57 401 q 10 508 22 497 l -3 519 q -26 560 -26 538 q 42 642 -26 601 q 156 682 111 682 q 208 635 200 682 q 235 446 221 585 q 279 253 249 307 q 297 239 285 239 q 318 250 308 239 q 385 442 385 325 q 368 510 385 475 q 329 557 351 544 q 308 589 308 571 q 365 667 308 631 q 470 703 422 703 z "},"w":{"ha":872,"x_min":-28,"x_max":872,"o":"m 404 172 q 193 -31 258 -31 q 117 81 147 -31 q 78 258 92 175 q 64 343 64 340 q 35 454 51 410 q 8 508 18 499 l -3 519 q -28 561 -28 539 q 41 642 -28 601 q 153 682 110 682 q 204 635 196 682 q 230 444 215 585 q 274 249 244 304 q 294 235 283 235 q 314 247 306 235 q 372 385 365 311 q 349 526 369 479 q 331 551 346 533 q 317 585 317 569 q 378 655 317 619 q 488 690 440 690 q 538 642 535 690 q 553 486 547 565 q 600 249 571 304 q 619 236 607 236 q 643 250 631 236 q 704 447 704 322 q 650 557 699 528 q 629 589 629 571 q 686 668 629 633 q 789 703 743 703 q 853 653 835 703 q 872 524 872 603 q 828 339 872 446 q 724 153 783 232 q 606 22 664 75 q 521 -31 549 -31 q 472 3 492 -31 q 439 86 449 46 q 425 147 429 126 q 419 171 421 167 q 412 178 415 178 q 404 172 408 178 z "},"x":{"ha":582,"x_min":-28,"x_max":603,"o":"m 275 169 q 261 183 268 183 q 239 168 249 183 q 189 38 194 90 q 90 -28 182 -28 q 12 -11 51 -28 q -28 40 -28 6 q -14 72 -28 58 q 53 142 21 101 q 144 300 113 225 l 157 328 q 167 369 167 347 l 163 392 q 35 543 103 508 q 7 581 7 558 q 61 653 7 618 q 159 688 115 688 q 225 639 203 688 q 292 514 251 596 q 308 496 299 496 q 326 510 318 496 q 384 631 367 571 q 497 690 401 690 q 593 644 593 690 q 584 617 593 628 q 572 601 575 606 q 558 586 569 597 l 543 571 q 415 369 464 479 q 410 340 410 357 q 425 299 410 322 q 474 242 440 275 q 526 199 507 208 q 561 184 544 189 q 590 169 578 179 q 603 136 603 160 q 553 38 603 92 q 440 -17 503 -17 l 421 -15 q 357 35 390 -11 q 275 169 324 81 z "},"y":{"ha":576,"x_min":0,"x_max":554,"o":"m 39 199 l 43 429 q 22 529 43 494 q 0 578 0 564 q 74 656 0 618 q 188 693 149 693 q 240 625 240 693 q 233 506 240 575 q 226 379 226 438 q 283 254 226 254 l 289 254 q 358 454 358 254 q 342 550 358 511 q 326 588 326 569 q 392 657 326 628 q 506 686 457 686 q 554 639 554 686 q 547 539 554 589 q 535 283 535 431 l 539 110 q 519 -129 539 -42 q 430 -283 499 -217 q 264 -349 361 -349 q 164 -317 207 -349 q 121 -226 121 -285 q 140 -174 121 -193 q 178 -151 158 -154 l 196 -149 q 313 -85 276 -147 q 349 78 349 -22 q 342 101 349 101 l 329 96 q 182 1 278 1 q 39 199 39 1 z "},"z":{"ha":496,"x_min":-6,"x_max":489,"o":"m 353 444 q 360 442 353 442 q 378 433 368 442 q 388 399 388 424 q 361 346 388 374 q 303 313 335 318 q 288 301 299 313 q 269 267 278 290 q 261 239 261 243 q 326 211 261 211 q 424 239 390 211 q 457 251 442 251 q 489 203 489 251 q 469 83 489 142 l 464 64 q 429 18 454 36 q 383 -4 404 0 l 364 -8 q 221 -17 306 -17 l 78 -10 q -6 58 -6 -3 q 7 108 -6 83 q 92 278 25 167 l 114 317 q 81 357 81 325 q 116 421 81 389 q 193 454 151 453 q 229 506 203 454 l 238 522 q 240 535 240 528 q 236 547 240 542 q 189 554 228 554 q 83 533 110 554 q 56 521 68 521 q 26 563 26 521 q 40 636 26 592 q 122 684 57 678 q 267 690 186 690 q 379 687 349 690 q 421 681 410 683 q 450 665 432 678 q 468 624 468 651 q 422 544 468 596 q 353 444 353 460 z "},"{":{"ha":300,"x_min":0,"x_max":300,"o":"m 226 819 l 232 694 q 135 501 232 574 q 126 490 126 497 q 135 478 126 483 q 232 283 232 406 l 226 160 l 231 82 q 267 -12 233 47 q 300 -81 300 -71 q 279 -96 300 -96 q 181 -67 236 -96 q 102 -3 126 -37 q 78 108 78 32 l 82 247 q 8 476 82 424 q 0 488 0 482 q 8 503 0 497 q 82 736 82 558 l 78 871 q 103 983 78 947 q 183 1047 129 1019 q 278 1075 236 1075 q 300 1058 300 1075 q 267 990 300 1050 q 230 902 233 931 q 226 819 226 874 z "},"|":{"ha":242,"x_min":56,"x_max":186,"o":"m 56 14 l 56 19 q 75 1019 75 939 q 115 1044 75 1044 q 186 1003 186 1044 l 167 3 q 122 -33 167 -33 q 76 -20 97 -33 q 56 14 56 -7 z "},"}":{"ha":300,"x_min":0,"x_max":300,"o":"m 74 160 l 68 285 q 165 478 68 406 q 174 489 174 482 q 165 501 174 496 q 68 696 68 574 l 74 819 l 69 897 q 33 991 67 932 q 0 1060 0 1050 q 21 1075 0 1075 q 119 1046 64 1075 q 198 982 174 1017 q 222 871 222 947 l 218 732 q 292 503 218 556 q 300 492 300 497 q 292 476 300 482 q 218 243 218 421 l 222 108 q 197 -4 222 32 q 117 -68 171 -40 q 22 -96 64 -96 q 0 -79 0 -96 q 33 -11 0 -71 q 70 77 67 49 q 74 160 74 106 z "},"~":{"ha":574,"x_min":39,"x_max":519,"o":"m 147 422 l 415 406 q 476 428 453 406 q 496 432 486 432 q 519 399 519 432 q 487 322 519 365 q 418 278 454 278 q 283 297 397 278 q 137 315 168 315 q 87 308 106 315 q 61 300 68 300 q 39 327 39 300 q 72 388 39 354 q 147 422 104 422 z "},"":{"ha":319,"x_min":14,"x_max":306,"o":"m 306 654 q 254 572 301 603 q 161 542 207 542 q 90 559 115 542 q 65 606 65 576 q 114 692 65 660 q 208 724 163 724 q 306 654 303 724 m 107 353 l 106 404 q 179 447 106 447 q 205 446 192 447 q 239 430 218 444 q 260 389 260 415 l 260 382 q 254 223 254 310 q 263 55 254 136 q 281 -61 272 -26 l 289 -94 q 297 -136 297 -117 q 237 -222 297 -190 q 114 -253 176 -253 q 14 -193 14 -253 l 22 -158 q 107 353 107 49 z "},"":{"ha":514,"x_min":14,"x_max":500,"o":"m 250 -90 l 250 -31 q 61 81 117 -25 q 14 302 14 172 q 75 541 14 432 q 250 676 136 650 l 250 731 q 262 757 250 746 q 294 768 274 768 q 332 740 332 768 l 332 682 q 442 643 393 678 q 497 524 490 608 q 404 414 497 414 q 363 431 379 414 q 347 466 347 449 q 345 495 347 483 q 329 526 343 507 q 287 546 315 546 q 237 514 258 546 q 210 447 215 482 q 204 378 204 413 q 208 314 204 343 q 219 250 211 285 q 247 194 228 215 q 292 172 265 172 q 350 215 335 172 q 376 249 354 233 q 425 265 399 265 q 500 172 500 265 q 332 -24 493 7 l 332 -82 q 317 -108 332 -96 q 279 -119 303 -119 q 250 -90 250 -119 z "},"":{"ha":517,"x_min":-47,"x_max":517,"o":"m 517 225 q 465 36 517 94 q 219 -22 414 -22 q 85 -12 131 -22 q 31 9 40 -3 q 21 43 21 21 l 24 64 q 56 517 53 224 l -21 517 q -47 547 -47 521 q -37 585 -47 574 q -10 599 -28 597 l 56 599 l 50 768 q 18 858 47 818 q 0 896 0 876 q 84 986 0 942 q 215 1031 168 1031 q 263 992 263 1031 q 242 776 244 853 q 238 599 239 700 l 357 599 q 388 572 388 599 q 377 538 388 551 q 344 517 367 524 l 238 517 l 238 457 q 240 272 238 281 q 245 257 242 264 q 256 244 249 250 q 307 232 272 232 q 429 285 383 232 q 474 307 451 307 q 517 225 517 307 z "},"":{"ha":1031,"x_min":211,"x_max":847,"o":"m 715 354 q 810 210 810 224 q 779 188 810 196 q 722 181 749 181 q 682 204 694 181 l 625 292 q 506 268 567 268 q 396 292 444 268 l 338 206 q 281 183 319 183 q 211 207 211 183 q 217 225 211 211 q 313 367 261 292 q 288 467 288 410 q 350 636 288 567 q 250 790 250 772 q 333 818 250 818 q 375 799 367 818 q 439 701 383 781 q 555 726 493 726 q 672 699 617 726 l 717 768 q 769 793 731 793 q 847 772 847 793 q 842 754 847 768 l 751 621 q 778 515 778 575 q 715 354 778 421 m 529 364 q 556 364 529 364 q 622 399 582 364 q 663 496 663 433 q 626 593 663 558 q 538 628 590 628 q 444 590 486 628 q 403 490 403 553 q 440 396 403 428 q 529 364 476 364 z "},"":{"ha":401,"x_min":-115,"x_max":586,"o":"m 349 914 l 343 951 q 388 1013 343 983 q 521 1043 432 1043 q 586 1006 586 1043 q 579 974 586 989 q 429 675 558 918 l 471 675 q 503 644 503 675 q 490 610 500 624 q 460 593 479 597 l 386 593 q 350 519 374 567 l 461 519 q 503 490 503 519 q 490 459 503 475 q 460 438 478 443 l 314 438 q 292 319 294 385 l 292 299 q 301 86 297 100 q 304 61 304 72 q 272 1 304 28 q 92 -50 206 -50 q 44 -6 44 -50 l 49 22 q 58 67 50 29 q 70 122 67 104 q 78 179 74 140 q 89 333 89 263 q 86 438 89 404 l -39 438 q -67 468 -67 440 q -57 500 -67 486 q -28 519 -42 519 l 67 519 q 42 593 58 546 l -39 593 q -58 601 -49 593 q -67 625 -67 610 q -57 653 -67 640 q -28 675 -42 675 l 14 675 l -17 758 q -89 865 -40 828 q -115 914 -115 888 q -42 997 -115 964 q 86 1031 31 1031 q 153 985 142 1031 q 171 903 157 967 q 235 675 203 754 l 265 675 q 321 795 293 718 q 349 914 349 872 z "},"":{"ha":242,"x_min":53,"x_max":186,"o":"m 68 638 l 69 717 q 75 1019 75 901 q 115 1044 75 1044 q 186 1003 186 1044 l 179 626 q 135 590 179 590 q 89 603 110 590 q 68 638 68 617 m 53 17 l 54 96 q 58 269 56 175 q 60 399 60 363 q 100 424 60 424 q 171 382 171 424 l 164 6 q 119 -31 164 -31 q 74 -17 94 -31 q 53 17 53 -4 z "},"":{"ha":688,"x_min":22,"x_max":682,"o":"m 132 306 q 109 315 132 306 q 54 358 86 325 q 22 431 22 390 q 48 509 22 472 q 111 569 74 546 q 247 642 189 622 l 272 651 q 286 663 286 656 l 279 674 q 143 815 143 725 q 167 879 143 843 q 222 940 190 915 q 315 983 253 964 q 458 1001 376 1001 q 568 953 568 1001 q 554 933 568 944 q 525 919 540 922 q 499 915 510 917 q 459 906 488 913 q 409 890 431 899 q 369 865 388 881 q 351 827 351 849 q 385 788 351 806 q 468 754 419 769 q 565 719 517 739 q 648 663 614 700 q 682 575 682 626 q 490 372 682 467 q 476 356 476 364 q 488 342 476 349 q 515 324 499 336 q 559 279 532 311 q 586 222 586 247 q 524 97 586 151 q 387 17 463 42 q 261 -8 311 -8 q 144 42 144 -8 q 207 83 144 69 q 318 142 282 99 q 333 184 333 160 q 301 231 333 208 q 224 269 269 253 q 132 306 178 286 m 465 529 q 444 568 465 551 q 390 585 424 585 q 303 554 356 585 q 250 474 250 524 q 273 428 250 443 q 333 413 296 413 q 417 452 369 413 q 465 529 465 492 z "},"":{"ha":540,"x_min":78,"x_max":494,"o":"m 427 900 q 443 900 427 900 q 476 885 458 900 q 494 838 494 869 q 462 780 494 807 q 398 753 429 753 q 348 769 367 753 q 329 815 329 785 q 363 873 329 846 q 427 900 396 900 m 176 900 q 191 900 176 900 q 225 885 207 900 q 243 838 243 869 q 210 780 243 807 q 147 753 178 753 q 97 769 115 753 q 78 815 78 785 q 111 873 78 846 q 176 900 144 900 z "},"":{"ha":861,"x_min":22,"x_max":863,"o":"m 79 111 q 22 313 22 190 q 89 538 22 435 q 259 694 156 642 q 479 746 363 746 q 748 653 633 746 q 863 379 863 561 q 723 81 863 197 q 401 -36 583 -36 q 79 111 185 -36 m 433 40 q 494 40 433 40 q 649 122 556 40 q 742 353 742 204 q 659 582 742 501 q 454 663 576 663 q 236 574 332 663 q 140 340 140 486 q 226 117 140 194 q 433 40 311 40 m 557 303 q 611 236 611 303 q 594 166 610 196 q 558 122 578 136 q 511 100 539 108 q 435 89 474 89 q 299 159 340 89 q 258 337 258 229 q 310 526 258 444 q 467 608 361 608 q 567 578 526 608 q 607 486 607 549 q 540 411 607 411 q 512 424 524 411 q 500 449 500 438 q 499 470 500 461 q 487 494 497 479 q 460 508 476 508 q 397 372 397 508 q 460 236 397 236 q 503 268 492 236 q 557 303 514 303 z "},"":{"ha":460,"x_min":42,"x_max":440,"o":"m 251 658 q 203 628 222 658 q 185 560 185 599 q 215 522 185 522 q 265 555 246 522 q 285 623 285 588 q 251 658 285 658 m 408 732 l 406 586 q 426 486 406 500 q 440 460 440 476 q 400 403 440 429 q 325 378 360 378 q 283 392 290 378 q 276 419 275 406 q 272 433 276 433 q 256 422 268 433 q 174 386 221 386 q 99 403 126 386 q 60 450 71 421 q 42 544 42 496 q 65 638 42 593 q 119 703 89 682 q 186 736 150 724 q 265 753 236 753 q 276 764 276 756 l 276 767 q 224 803 275 803 q 151 788 174 803 q 117 774 129 774 q 92 811 92 774 q 246 908 92 908 q 369 865 331 908 q 408 732 408 822 z "},"":{"ha":775,"x_min":28,"x_max":760,"o":"m 758 56 q 683 33 758 33 q 622 44 650 33 q 535 119 594 56 q 428 242 475 183 l 382 300 q 368 334 368 314 q 385 375 368 354 q 435 435 403 396 q 533 544 468 475 q 622 621 599 614 q 701 632 642 632 q 760 610 760 632 q 736 576 760 596 q 713 555 728 568 q 662 505 699 542 q 597 439 625 468 q 524 335 524 360 q 576 251 524 311 q 682 140 629 190 l 735 90 q 758 56 758 71 m 256 438 q 242 423 256 438 q 205 377 228 408 q 182 328 182 346 q 235 251 182 311 q 342 140 288 190 l 394 90 q 418 61 418 71 q 401 39 418 43 q 350 33 379 33 q 278 46 296 33 q 195 116 254 53 q 89 239 136 179 l 40 300 q 28 333 28 314 q 42 369 28 353 q 281 621 229 603 q 365 632 313 632 q 418 610 418 632 q 394 576 418 596 q 372 555 386 568 q 320 505 357 542 q 256 438 283 468 z "},"":{"ha":658,"x_min":39,"x_max":607,"o":"m 604 343 l 607 128 q 590 94 607 106 q 558 83 574 83 q 533 85 543 83 q 508 102 524 88 q 493 142 493 117 l 493 293 l 421 293 l 76 290 q 49 305 58 290 q 39 342 39 319 q 51 383 39 364 q 89 404 64 403 q 424 403 310 403 q 551 404 538 403 q 590 385 576 403 q 604 343 604 367 z "},"":{"ha":861,"x_min":22,"x_max":863,"o":"m 79 111 q 22 313 22 190 q 89 538 22 435 q 259 694 156 642 q 479 746 363 746 q 748 653 633 746 q 863 379 863 561 q 723 81 863 197 q 401 -36 583 -36 q 79 111 185 -36 m 433 40 q 494 40 433 40 q 649 122 556 40 q 742 353 742 204 q 659 582 742 501 q 454 663 576 663 q 236 574 332 663 q 140 340 140 486 q 226 117 140 194 q 433 40 311 40 m 425 411 q 475 490 475 439 q 435 542 475 542 q 396 446 396 542 l 396 418 q 410 407 399 407 q 425 411 414 407 m 536 400 q 525 385 525 394 q 526 375 525 376 q 569 219 540 296 q 597 185 578 196 q 615 160 615 174 q 583 124 615 138 q 530 110 550 110 q 500 116 510 110 q 485 129 490 122 q 479 136 481 136 q 451 251 461 175 q 440 331 440 326 q 426 335 440 335 q 401 321 411 335 q 396 253 396 306 q 400 181 396 200 q 404 156 404 161 q 369 116 404 132 q 306 100 333 100 q 278 121 278 100 l 279 135 q 299 383 299 258 l 294 479 q 283 513 294 494 q 271 540 271 531 q 331 590 271 571 q 428 608 392 608 q 485 605 464 608 q 533 592 506 601 q 576 561 560 583 q 593 507 593 539 q 536 400 593 443 z "},"":{"ha":540,"x_min":93,"x_max":494,"o":"m 467 742 q 364 743 447 743 l 119 742 q 93 778 93 742 q 102 808 93 794 q 128 822 111 821 l 457 822 q 494 783 494 822 q 467 742 494 744 z "},"":{"ha":396,"x_min":21,"x_max":375,"o":"m 211 1000 q 291 974 257 1000 q 342 908 325 949 q 375 734 375 831 q 328 553 375 638 q 194 468 282 468 q 63 534 106 468 q 21 706 21 600 q 74 906 21 813 q 211 1000 128 1000 m 197 904 q 139 765 139 904 q 160 669 139 701 q 208 638 181 638 q 251 663 235 638 q 268 747 268 689 q 249 854 268 804 q 197 904 229 904 z "},"":{"ha":667,"x_min":21,"x_max":646,"o":"m 332 803 q 390 764 393 803 q 388 615 388 703 l 433 615 q 594 617 571 615 q 646 563 638 617 q 606 503 646 504 q 428 506 575 506 l 388 506 l 390 361 q 374 328 390 339 q 342 317 357 317 q 317 319 326 317 q 292 335 307 321 q 276 374 276 350 q 278 504 276 397 l 65 503 q 21 563 21 503 q 51 611 21 597 q 117 616 64 617 q 278 615 171 615 l 278 660 l 276 750 q 290 785 276 772 q 318 800 304 799 l 332 803 m 607 176 q 463 179 581 179 l 60 176 q 32 191 42 176 q 22 228 22 206 q 35 269 22 250 q 72 290 47 289 q 465 289 351 289 q 593 290 579 289 q 632 271 618 289 q 646 231 646 253 q 635 193 646 208 q 607 176 625 178 z "},"":{"ha":414,"x_min":28,"x_max":386,"o":"m 361 954 q 376 897 376 928 q 373 844 376 865 q 358 798 369 822 q 342 763 347 774 q 292 681 328 735 l 206 525 q 199 500 199 511 q 231 478 199 478 q 311 503 292 478 q 358 539 339 539 q 386 497 386 539 q 344 325 386 358 q 189 306 328 306 l 74 308 q 28 354 28 310 q 92 529 28 414 q 126 590 94 535 q 176 678 158 646 q 213 758 194 711 q 231 831 231 806 q 219 870 231 857 q 186 885 208 883 q 147 875 164 886 q 118 842 131 864 q 83 821 106 821 q 56 876 56 821 q 102 990 56 960 q 225 1021 149 1021 q 361 954 319 1021 z "},"":{"ha":396,"x_min":28,"x_max":368,"o":"m 132 651 l 113 650 q 90 685 90 650 l 96 725 q 138 767 106 767 q 192 791 169 767 q 214 844 214 815 q 157 903 214 903 q 108 881 133 903 q 78 864 93 864 q 50 907 50 864 q 200 1024 50 1024 q 346 950 307 1024 q 360 886 361 922 q 350 822 360 850 q 325 778 340 794 q 264 733 294 744 q 257 724 257 731 l 263 715 q 368 544 368 675 q 350 431 368 479 q 308 360 332 383 q 254 325 285 338 q 162 307 214 307 q 69 328 110 307 q 28 417 28 350 q 38 500 28 444 q 71 533 44 533 q 94 521 85 533 q 152 493 114 493 q 210 518 190 493 q 229 578 229 543 q 200 633 229 614 q 132 651 171 651 z "},"":{"ha":540,"x_min":264,"x_max":460,"o":"m 393 938 q 438 910 415 938 q 460 862 460 882 q 438 835 460 842 q 324 778 396 822 l 300 763 q 279 757 288 757 q 264 781 264 757 q 312 871 264 804 q 393 938 360 938 z "},"":{"ha":610,"x_min":-126,"x_max":610,"o":"m 42 213 l 39 463 q 27 504 38 485 q 0 539 17 524 q -17 572 -17 554 q 56 656 -17 619 q 178 693 129 693 l 186 693 q 227 678 214 693 q 240 622 240 663 q 233 495 240 582 q 226 390 226 408 q 292 239 226 239 q 356 338 339 239 q 363 418 363 374 q 347 550 363 507 q 332 588 332 569 q 394 658 332 629 q 505 686 457 686 q 553 638 553 686 q 544 489 553 590 q 535 328 535 388 q 536 245 535 269 q 551 173 538 221 q 586 111 564 125 q 610 81 610 100 q 599 47 610 63 q 436 -24 547 -24 q 365 24 374 -19 l 356 71 q 347 81 354 81 l 336 75 q 214 -17 293 -4 q 197 -149 211 -93 q 122 -258 174 -218 q 11 -299 69 -299 q -79 -273 -47 -299 q -118 -222 -111 -247 l -125 -197 q -126 -172 -126 -190 q -116 -140 -126 -154 q -85 -122 -106 -126 q -22 -99 -49 -122 q 13 -56 4 -75 q 22 -31 22 -36 q 42 213 42 68 z "},"":{"ha":594,"x_min":0,"x_max":579,"o":"m 579 917 l 575 868 q 547 313 547 656 l 549 169 q 567 67 554 104 q 576 36 576 49 q 507 -8 576 -8 q 469 1 483 -8 q 447 37 454 11 q 439 165 439 63 q 441 355 439 267 q 447 524 443 443 q 453 674 450 604 q 461 832 461 826 q 421 890 461 890 q 395 879 404 890 q 380 832 386 868 q 367 600 374 796 q 360 233 361 404 l 358 63 q 317 -12 358 -12 q 238 94 238 -12 q 247 208 238 122 q 256 340 256 293 l 253 383 q 231 444 251 417 q 195 481 211 471 q 153 504 179 490 q 0 738 0 583 q 99 932 0 860 q 347 1004 199 1004 q 579 917 579 1004 z "},"":{"ha":263,"x_min":22,"x_max":240,"o":"m 150 444 q 172 444 150 444 q 217 428 194 444 q 240 377 239 411 q 198 311 240 343 q 112 279 156 279 q 45 295 68 279 q 22 338 22 311 q 64 413 22 381 q 150 444 106 444 z "},"":{"ha":501,"x_min":201,"x_max":333,"o":"m 310 -29 q 278 -57 278 -40 q 306 -83 278 -68 q 333 -125 333 -99 q 301 -168 333 -151 q 240 -185 269 -185 q 210 -176 210 -185 q 230 -149 210 -164 q 250 -122 250 -135 q 226 -100 250 -110 q 201 -73 201 -90 q 231 -37 201 -56 q 285 -18 260 -18 q 310 -29 310 -18 z "},"":{"ha":279,"x_min":28,"x_max":251,"o":"m 60 860 q 28 893 28 868 q 100 974 28 928 q 208 1019 172 1019 q 244 986 244 1019 q 240 864 244 975 q 236 603 236 753 q 247 399 236 453 q 251 382 251 392 q 202 325 251 347 q 117 303 153 303 q 81 336 81 303 l 83 354 q 107 685 107 519 l 103 814 q 60 860 103 850 z "},"":{"ha":457,"x_min":42,"x_max":429,"o":"m 244 906 q 382 826 335 906 q 429 636 429 747 q 378 442 429 525 q 230 360 326 360 q 88 438 133 360 q 42 598 42 517 q 61 743 42 679 q 129 856 81 807 q 244 906 178 906 m 304 667 q 304 690 304 667 q 292 739 304 714 q 251 764 279 764 q 196 724 222 764 q 169 626 169 683 q 222 547 169 547 q 278 583 251 547 q 304 667 304 619 z "},"":{"ha":772,"x_min":7,"x_max":739,"o":"m 169 228 q 183 243 169 228 q 220 289 197 258 q 243 337 243 319 q 190 415 243 354 q 83 525 138 475 l 31 576 q 7 610 7 596 q 74 632 7 632 q 144 621 119 632 q 228 551 168 614 q 336 429 288 489 l 385 369 q 399 339 399 354 q 385 300 399 317 q 147 46 204 68 q 89 33 117 33 q 35 37 61 33 q 8 56 8 40 q 32 90 8 71 q 55 112 40 99 q 106 161 69 125 q 169 228 142 197 m 511 228 q 525 243 511 228 q 562 289 539 258 q 585 337 585 319 q 531 415 585 354 q 425 525 478 475 l 372 576 q 349 610 349 596 q 401 632 349 632 q 481 622 454 632 q 568 550 508 613 q 676 428 628 488 l 725 369 q 739 339 739 351 q 722 294 739 315 q 674 233 706 274 q 577 123 642 193 q 489 46 513 53 q 439 33 474 33 q 349 57 349 33 q 372 90 349 71 q 395 112 381 99 q 447 161 410 125 q 511 228 483 197 z "},"":{"ha":907,"x_min":28,"x_max":847,"o":"m 576 1028 l 308 38 q 263 -11 301 0 q 229 -17 244 -17 q 201 7 201 -17 l 472 1008 q 549 1050 486 1050 q 576 1028 576 1050 m 60 860 q 28 893 28 868 q 100 974 28 928 q 208 1019 172 1019 q 244 986 244 1019 q 240 864 244 975 q 236 603 236 753 q 247 399 236 453 q 251 382 251 392 q 202 325 251 347 q 117 303 153 303 q 81 336 81 303 l 83 354 q 107 685 107 519 l 103 814 q 60 860 103 850 m 593 349 q 633 328 593 328 q 674 343 674 328 l 674 406 l 672 497 q 664 506 669 506 q 651 496 658 506 q 593 349 593 390 m 807 339 l 828 340 q 847 319 847 340 q 804 192 847 224 q 794 175 794 189 l 793 157 q 804 74 793 118 q 808 57 808 67 q 765 8 808 25 q 683 -8 722 -8 q 644 25 644 -8 l 649 42 q 665 160 665 94 q 650 172 665 172 q 599 171 635 171 l 503 174 q 433 229 433 174 q 504 423 444 306 q 608 606 564 540 l 654 669 q 771 708 685 708 q 814 679 814 708 q 803 626 814 675 q 791 534 792 576 q 790 410 790 492 l 790 346 q 807 339 790 339 z "},"":{"ha":907,"x_min":28,"x_max":853,"o":"m 576 1028 l 308 38 q 263 -11 301 0 q 229 -17 244 -17 q 201 7 201 -17 l 472 1008 q 549 1050 486 1050 q 576 1028 576 1050 m 60 860 q 28 893 28 868 q 100 974 28 928 q 208 1019 172 1019 q 244 986 244 1019 q 240 864 244 975 q 236 603 236 753 q 247 399 236 453 q 251 382 251 392 q 202 325 251 347 q 117 303 153 303 q 81 336 81 303 l 83 354 q 107 685 107 519 l 103 814 q 60 860 103 850 m 828 651 q 843 594 843 625 q 840 541 843 563 q 825 495 836 519 q 808 460 814 471 q 758 378 794 432 l 672 222 q 665 197 665 208 q 697 175 665 175 q 778 200 758 175 q 825 236 806 236 q 853 194 853 236 q 811 22 853 56 q 656 3 794 3 l 540 6 q 494 51 494 7 q 558 226 494 111 q 593 288 561 232 q 643 376 625 343 q 679 456 661 408 q 697 528 697 503 q 686 567 697 554 q 653 582 675 581 q 614 572 631 583 q 585 540 597 561 q 550 518 572 518 q 522 574 522 518 q 569 688 522 657 q 692 718 615 718 q 828 651 786 718 z "},"":{"ha":992,"x_min":28,"x_max":932,"o":"m 661 1028 l 393 38 q 347 -11 386 0 q 314 -17 329 -17 q 286 7 286 -17 l 557 1008 q 633 1050 571 1050 q 661 1028 661 1050 m 678 349 q 718 328 678 328 q 758 343 758 328 l 758 406 l 757 497 q 749 506 754 506 q 736 496 743 506 q 678 349 678 390 m 892 339 l 913 340 q 932 319 932 340 q 889 192 932 224 q 879 175 879 189 l 878 157 q 889 74 878 118 q 893 57 893 67 q 850 8 893 25 q 768 -8 807 -8 q 729 25 729 -8 l 733 42 q 750 160 750 94 q 735 172 750 172 q 683 171 719 171 l 588 174 q 518 229 518 174 q 589 423 529 306 q 694 606 649 540 l 739 669 q 856 708 769 708 q 899 679 899 708 q 888 626 899 675 q 876 534 876 576 q 875 410 875 492 l 875 346 q 892 339 875 339 m 132 651 l 113 650 q 90 685 90 650 l 96 725 q 138 767 106 767 q 192 791 169 767 q 214 844 214 815 q 157 903 214 903 q 108 881 133 903 q 78 864 93 864 q 50 907 50 864 q 200 1024 50 1024 q 346 950 307 1024 q 360 886 361 922 q 350 822 360 850 q 325 778 340 794 q 264 733 294 744 q 257 724 257 731 l 263 715 q 368 544 368 675 q 350 431 368 479 q 308 360 332 383 q 254 325 285 338 q 162 307 214 307 q 69 328 110 307 q 28 417 28 350 q 38 500 28 444 q 71 533 44 533 q 94 521 85 533 q 152 493 114 493 q 210 518 190 493 q 229 578 229 543 q 200 633 229 614 q 132 651 171 651 z "},"":{"ha":379,"x_min":-37,"x_max":429,"o":"m 363 658 q 311 576 358 608 q 219 544 264 544 q 147 563 174 544 q 121 608 121 581 q 170 694 121 663 q 265 726 219 726 q 336 708 311 726 q 363 658 361 690 m 429 -85 q 357 -223 429 -171 q 189 -275 285 -275 q 28 -224 93 -275 q -37 -81 -37 -174 q -9 29 -37 -25 q 53 121 19 83 q 143 292 143 222 q 133 348 143 324 q 124 386 124 372 q 236 442 124 442 q 309 420 271 442 q 347 364 347 399 q 269 199 347 300 q 204 98 232 153 q 176 10 176 43 q 178 -10 176 1 q 197 -42 179 -22 q 247 -61 215 -61 q 297 -44 271 -61 q 336 0 324 -28 q 374 19 349 19 q 415 -17 400 19 q 429 -85 429 -53 z "},"":{"ha":717,"x_min":-61,"x_max":733,"o":"m 710 128 q 733 85 733 111 q 665 -1 733 33 q 538 -36 596 -36 q 471 -15 492 -36 q 453 34 454 1 q 450 104 451 67 q 448 172 449 142 q 435 224 447 203 q 411 250 422 246 q 342 256 399 256 q 256 243 286 256 q 197 114 225 229 q 189 83 190 86 q 7 -43 151 -43 q -61 -3 -61 -43 q -39 61 -61 26 l -31 74 q 156 544 72 261 q 240 888 240 826 q 233 928 240 911 q 225 956 225 946 q 344 1025 225 1025 q 472 997 418 1025 q 539 907 525 968 q 642 290 597 449 q 710 128 674 153 m 367 646 q 357 663 365 663 q 343 650 353 663 q 286 443 286 500 q 297 422 286 426 q 339 418 308 418 q 383 426 369 418 q 396 451 396 433 q 371 631 385 574 l 367 646 m 286 1111 q 260 1138 263 1119 q 283 1188 260 1161 q 327 1215 306 1215 q 376 1185 349 1215 q 436 1100 415 1142 q 456 1051 456 1068 q 440 1035 456 1035 q 419 1040 431 1035 q 286 1111 329 1097 z "},"":{"ha":717,"x_min":-61,"x_max":733,"o":"m 710 128 q 733 85 733 111 q 665 -1 733 33 q 538 -36 596 -36 q 471 -15 492 -36 q 453 34 454 1 q 450 104 451 67 q 448 172 449 142 q 435 224 447 203 q 411 250 422 246 q 342 256 399 256 q 256 243 286 256 q 197 114 225 229 q 189 83 190 86 q 7 -43 151 -43 q -61 -3 -61 -43 q -39 61 -61 26 l -31 74 q 156 544 72 261 q 240 888 240 826 q 233 928 240 911 q 225 956 225 946 q 344 1025 225 1025 q 472 997 418 1025 q 539 907 525 968 q 642 290 597 449 q 710 128 674 153 m 367 646 q 357 663 365 663 q 343 650 353 663 q 286 443 286 500 q 297 422 286 426 q 339 418 308 418 q 383 426 369 418 q 396 451 396 433 q 371 631 385 574 l 367 646 m 429 1240 q 474 1213 451 1240 q 496 1165 496 1185 q 474 1138 496 1144 q 360 1081 432 1125 l 336 1065 q 315 1060 324 1060 q 300 1083 300 1060 q 348 1174 300 1107 q 429 1240 396 1240 z "},"":{"ha":717,"x_min":-61,"x_max":733,"o":"m 710 128 q 733 85 733 111 q 665 -1 733 33 q 538 -36 596 -36 q 471 -15 492 -36 q 453 34 454 1 q 450 104 451 67 q 448 172 449 142 q 435 224 447 203 q 411 250 422 246 q 342 256 399 256 q 256 243 286 256 q 197 114 225 229 q 189 83 190 86 q 7 -43 151 -43 q -61 -3 -61 -43 q -39 61 -61 26 l -31 74 q 156 544 72 261 q 240 888 240 826 q 233 928 240 911 q 225 956 225 946 q 344 1025 225 1025 q 472 997 418 1025 q 539 907 525 968 q 642 290 597 449 q 710 128 674 153 m 367 646 q 357 663 365 663 q 343 650 353 663 q 286 443 286 500 q 297 422 286 426 q 339 418 308 418 q 383 426 369 418 q 396 451 396 433 q 371 631 385 574 l 367 646 m 493 1051 q 358 1122 385 1122 q 283 1083 350 1122 q 207 1044 215 1044 q 192 1062 192 1044 q 204 1101 192 1079 q 228 1142 217 1122 q 267 1194 239 1161 q 317 1226 296 1226 q 318 1226 318 1226 q 356 1204 336 1226 q 360 1201 358 1201 q 369 1208 363 1201 q 400 1226 385 1226 l 404 1226 q 451 1197 425 1226 q 494 1139 478 1168 l 511 1110 q 529 1062 529 1079 q 514 1044 529 1044 q 493 1051 503 1044 z "},"":{"ha":717,"x_min":-61,"x_max":733,"o":"m 529 1067 q 476 1044 503 1044 q 397 1067 450 1044 q 306 1089 344 1089 q 244 1081 267 1089 q 211 1074 221 1074 q 188 1101 188 1074 q 234 1165 188 1129 q 342 1201 281 1201 q 410 1192 367 1201 q 486 1182 454 1182 q 547 1203 518 1182 q 574 1210 560 1210 q 596 1186 596 1210 q 529 1067 596 1124 m 710 128 q 733 85 733 111 q 665 -1 733 33 q 538 -36 596 -36 q 471 -15 492 -36 q 453 34 454 1 q 450 104 451 67 q 448 172 449 142 q 435 224 447 203 q 411 250 422 246 q 342 256 399 256 q 256 243 286 256 q 197 114 225 229 q 189 83 190 86 q 7 -43 151 -43 q -61 -3 -61 -43 q -39 61 -61 26 l -31 74 q 156 544 72 261 q 240 888 240 826 q 233 928 240 911 q 225 956 225 946 q 344 1025 225 1025 q 472 997 418 1025 q 539 907 525 968 q 642 290 597 449 q 710 128 674 153 m 367 646 q 357 663 365 663 q 343 650 353 663 q 286 443 286 500 q 297 422 286 426 q 339 418 308 418 q 383 426 369 418 q 396 451 396 433 q 371 631 385 574 l 367 646 z "},"":{"ha":717,"x_min":-61,"x_max":733,"o":"m 710 128 q 733 85 733 111 q 665 -1 733 33 q 538 -36 596 -36 q 471 -15 492 -36 q 453 34 454 1 q 450 104 451 67 q 448 172 449 142 q 435 224 447 203 q 411 250 422 246 q 342 256 399 256 q 256 243 286 256 q 197 114 225 229 q 189 83 190 86 q 7 -43 151 -43 q -61 -3 -61 -43 q -39 61 -61 26 l -31 74 q 156 544 72 261 q 240 888 240 826 q 233 928 240 911 q 225 956 225 946 q 344 1025 225 1025 q 472 997 418 1025 q 539 907 525 968 q 642 290 597 449 q 710 128 674 153 m 367 646 q 357 663 365 663 q 343 650 353 663 q 286 443 286 500 q 297 422 286 426 q 339 418 308 418 q 383 426 369 418 q 396 451 396 433 q 371 631 385 574 l 367 646 m 499 1206 q 515 1206 499 1206 q 549 1190 531 1206 q 567 1144 567 1175 q 534 1085 567 1113 q 470 1058 501 1058 q 420 1074 439 1058 q 401 1121 401 1090 q 435 1178 401 1151 q 499 1206 468 1206 m 248 1206 q 264 1206 248 1206 q 297 1190 279 1206 q 315 1144 315 1175 q 283 1085 315 1113 q 219 1058 250 1058 q 169 1074 188 1058 q 150 1121 150 1090 q 183 1178 150 1151 q 248 1206 217 1206 z "},"":{"ha":717,"x_min":-61,"x_max":733,"o":"m 710 128 q 733 85 733 111 q 665 -1 733 33 q 538 -36 596 -36 q 471 -15 492 -36 q 453 34 454 1 q 450 104 451 67 q 448 172 449 142 q 435 224 447 203 q 411 250 422 246 q 342 256 399 256 q 256 243 286 256 q 197 114 225 229 q 189 83 190 86 q 7 -43 151 -43 q -61 -3 -61 -43 q -39 61 -61 26 l -31 74 q 156 544 72 261 q 240 888 240 826 q 233 928 240 911 q 225 956 225 946 q 344 1025 225 1025 q 472 997 418 1025 q 539 907 525 968 q 642 290 597 449 q 710 128 674 153 m 367 646 q 357 663 365 663 q 343 650 353 663 q 286 443 286 500 q 297 422 286 426 q 339 418 308 418 q 383 426 369 418 q 396 451 396 433 q 371 631 385 574 l 367 646 m 390 1251 q 411 1251 390 1251 q 457 1232 433 1251 q 481 1174 481 1213 q 440 1099 481 1136 q 356 1063 399 1063 q 290 1081 313 1063 q 266 1137 267 1099 q 306 1213 265 1175 q 390 1251 346 1251 m 385 1199 q 343 1182 361 1199 q 325 1149 325 1165 q 361 1115 325 1115 q 403 1131 385 1115 q 421 1164 421 1147 q 385 1199 421 1199 z "},"":{"ha":949,"x_min":-61,"x_max":950,"o":"m 776 663 l 840 664 q 879 615 879 664 q 835 536 879 567 q 726 503 792 506 q 636 469 642 503 q 632 408 632 443 q 638 344 632 374 q 658 283 643 315 q 783 215 692 215 q 847 233 824 215 q 893 250 871 250 q 928 227 915 250 q 940 178 940 204 q 872 36 940 89 q 708 -17 804 -17 q 646 -10 678 -17 q 549 -36 586 -36 q 496 -30 513 -36 q 471 -15 479 -24 q 458 15 463 -7 q 452 51 453 36 q 450 104 451 67 q 448 172 449 142 q 435 224 447 203 q 411 250 422 246 q 342 256 399 256 q 256 243 286 256 q 197 114 225 229 q 189 83 190 86 q 7 -43 151 -43 q -61 -3 -61 -43 q -39 61 -61 26 l -31 74 q 156 544 72 261 q 240 888 240 826 q 233 928 240 911 q 225 956 225 946 q 344 1025 225 1025 q 472 997 418 1025 q 539 907 525 968 l 539 896 l 544 903 q 657 999 594 971 q 815 1026 719 1026 q 931 977 911 1026 q 950 896 950 928 q 903 821 950 821 q 863 835 890 821 q 796 849 835 849 q 687 798 728 849 q 646 683 646 747 q 685 664 646 665 q 776 663 725 663 m 396 451 q 389 515 389 493 l 367 646 q 357 663 365 663 q 343 650 353 663 q 286 443 286 500 q 297 422 286 426 q 339 418 308 418 q 383 426 369 418 q 396 451 396 433 z "},"":{"ha":574,"x_min":14,"x_max":574,"o":"m 574 242 q 514 62 574 135 q 356 -25 454 -11 q 329 -35 343 -26 q 315 -58 315 -44 q 349 -91 315 -71 q 382 -135 382 -111 q 345 -193 382 -172 q 271 -214 308 -214 q 233 -201 233 -214 q 261 -167 233 -189 q 283 -139 283 -151 q 254 -110 283 -122 q 225 -83 225 -99 q 246 -51 225 -67 q 267 -26 267 -35 q 151 19 200 -19 q 76 104 101 57 q 36 214 51 151 q 14 383 14 304 q 19 524 14 463 q 36 659 24 585 q 73 795 49 733 q 132 910 97 857 q 222 994 167 964 q 330 1025 276 1025 q 408 1018 383 1025 q 442 1011 432 1011 q 477 1022 453 1011 q 537 1033 501 1033 q 572 1004 572 1033 q 561 944 572 1003 q 550 823 550 885 q 561 741 550 761 q 572 703 572 721 q 540 649 572 668 q 471 629 508 629 q 374 729 374 629 q 382 789 374 751 q 390 838 390 826 q 358 867 390 867 q 269 786 314 867 q 218 514 218 693 q 235 375 218 436 q 340 260 267 260 q 439 329 404 260 q 490 363 454 363 q 550 322 526 363 q 574 242 574 282 z "},"":{"ha":563,"x_min":1,"x_max":563,"o":"m 389 658 l 453 660 q 492 611 492 660 q 448 532 492 563 q 339 499 404 501 q 249 465 254 499 q 244 404 244 439 q 250 340 244 369 q 271 281 256 311 q 396 211 304 211 q 460 228 436 211 q 506 246 483 246 q 540 223 528 246 q 553 174 553 200 q 478 27 553 85 q 307 -31 403 -31 q 43 360 43 -31 l 49 467 q 1 513 1 467 q 23 593 1 549 q 74 650 44 638 q 101 781 79 710 q 165 910 124 853 q 418 1022 247 1022 q 543 973 524 1022 q 563 892 563 924 q 515 817 563 817 q 475 831 503 817 q 408 844 447 844 q 299 794 340 844 q 258 679 258 743 q 298 660 258 661 q 389 658 338 658 m 261 1136 q 235 1163 238 1144 q 258 1213 235 1186 q 302 1240 281 1240 q 351 1210 324 1240 q 411 1125 390 1167 q 431 1076 431 1093 q 415 1060 431 1060 q 394 1065 406 1060 q 261 1136 304 1122 z "},"":{"ha":563,"x_min":1,"x_max":563,"o":"m 389 658 l 453 660 q 492 611 492 660 q 448 532 492 563 q 339 499 404 501 q 249 465 254 499 q 244 404 244 439 q 250 340 244 369 q 271 281 256 311 q 396 211 304 211 q 460 228 436 211 q 506 246 483 246 q 540 223 528 246 q 553 174 553 200 q 478 27 553 85 q 307 -31 403 -31 q 43 360 43 -31 l 49 467 q 1 513 1 467 q 23 593 1 549 q 74 650 44 638 q 101 781 79 710 q 165 910 124 853 q 418 1022 247 1022 q 543 973 524 1022 q 563 892 563 924 q 515 817 563 817 q 475 831 503 817 q 408 844 447 844 q 299 794 340 844 q 258 679 258 743 q 298 660 258 661 q 389 658 338 658 m 413 1215 q 457 1188 435 1215 q 479 1140 479 1160 q 457 1113 479 1119 q 343 1056 415 1100 l 319 1040 q 299 1035 307 1035 q 283 1058 283 1035 q 331 1149 283 1082 q 413 1215 379 1215 z "},"":{"ha":563,"x_min":1,"x_max":563,"o":"m 389 658 l 453 660 q 492 611 492 660 q 448 532 492 563 q 339 499 404 501 q 249 465 254 499 q 244 404 244 439 q 250 340 244 369 q 271 281 256 311 q 396 211 304 211 q 460 228 436 211 q 506 246 483 246 q 540 223 528 246 q 553 174 553 200 q 478 27 553 85 q 307 -31 403 -31 q 43 360 43 -31 l 49 467 q 1 513 1 467 q 23 593 1 549 q 74 650 44 638 q 101 781 79 710 q 165 910 124 853 q 418 1022 247 1022 q 543 973 524 1022 q 563 892 563 924 q 515 817 563 817 q 475 831 503 817 q 408 844 447 844 q 299 794 340 844 q 258 679 258 743 q 298 660 258 661 q 389 658 338 658 m 478 1063 q 343 1133 369 1133 q 268 1094 335 1133 q 192 1056 201 1056 q 176 1073 176 1056 q 189 1112 176 1090 q 213 1153 201 1133 q 252 1205 224 1172 q 301 1238 281 1238 q 303 1238 303 1238 q 340 1215 321 1238 q 345 1213 343 1213 q 353 1219 347 1213 q 383 1238 369 1238 l 389 1238 q 436 1208 410 1238 q 479 1150 463 1179 l 496 1121 q 514 1073 514 1090 q 499 1056 514 1056 q 478 1063 489 1056 z "},"":{"ha":563,"x_min":1,"x_max":563,"o":"m 389 658 l 453 660 q 492 611 492 660 q 448 532 492 563 q 339 499 404 501 q 249 465 254 499 q 244 404 244 439 q 250 340 244 369 q 271 281 256 311 q 396 211 304 211 q 460 228 436 211 q 506 246 483 246 q 540 223 528 246 q 553 174 553 200 q 478 27 553 85 q 307 -31 403 -31 q 43 360 43 -31 l 49 467 q 1 513 1 467 q 23 593 1 549 q 74 650 44 638 q 101 781 79 710 q 165 910 124 853 q 418 1022 247 1022 q 543 973 524 1022 q 563 892 563 924 q 515 817 563 817 q 475 831 503 817 q 408 844 447 844 q 299 794 340 844 q 258 679 258 743 q 298 660 258 661 q 389 658 338 658 m 481 1213 q 497 1213 481 1213 q 531 1197 513 1213 q 549 1151 549 1182 q 516 1092 549 1119 q 452 1065 483 1065 q 402 1081 421 1065 q 383 1128 383 1097 q 417 1185 383 1158 q 481 1213 450 1213 m 230 1213 q 245 1213 230 1213 q 279 1197 261 1213 q 297 1151 297 1182 q 265 1092 297 1119 q 201 1065 232 1065 q 151 1081 169 1065 q 132 1128 132 1097 q 165 1185 132 1158 q 230 1213 199 1213 z "},"":{"ha":272,"x_min":1,"x_max":258,"o":"m 258 63 q 189 -20 258 13 q 69 -53 119 -53 q 18 -7 18 -53 l 22 19 q 57 543 57 271 l 50 758 q 17 847 47 808 q 1 885 1 863 q 78 977 1 935 q 201 1019 156 1019 q 249 974 246 1019 q 250 905 250 957 q 243 763 250 853 q 239 385 239 611 q 254 83 239 160 q 258 63 258 75 m 65 1133 q 39 1160 42 1142 q 62 1210 39 1183 q 106 1238 85 1238 q 156 1207 128 1238 q 215 1122 194 1164 q 235 1074 235 1090 q 219 1057 235 1057 q 199 1063 210 1057 q 65 1133 108 1119 z "},"":{"ha":272,"x_min":1,"x_max":258,"o":"m 258 63 q 189 -20 258 13 q 69 -53 119 -53 q 18 -7 18 -53 l 22 19 q 57 543 57 271 l 50 758 q 17 847 47 808 q 1 885 1 863 q 78 977 1 935 q 201 1019 156 1019 q 249 974 246 1019 q 250 905 250 957 q 243 763 250 853 q 239 385 239 611 q 254 83 239 160 q 258 63 258 75 m 168 1215 q 213 1188 190 1215 q 235 1140 235 1160 q 213 1113 235 1119 q 99 1056 171 1100 l 75 1040 q 54 1035 63 1035 q 39 1058 39 1035 q 87 1149 39 1082 q 168 1215 135 1215 z "},"":{"ha":272,"x_min":-32,"x_max":306,"o":"m 258 63 q 189 -20 258 13 q 69 -53 119 -53 q 18 -7 18 -53 l 22 19 q 57 543 57 271 l 50 758 q 17 847 47 808 q 1 885 1 863 q 78 977 1 935 q 201 1019 156 1019 q 249 974 246 1019 q 250 905 250 957 q 243 763 250 853 q 239 385 239 611 q 254 83 239 160 q 258 63 258 75 m 269 1033 q 135 1104 161 1104 q 60 1065 126 1104 q -17 1026 -7 1026 q -32 1044 -32 1026 q -19 1083 -32 1061 q 4 1124 -7 1104 q 44 1176 15 1143 q 93 1208 72 1208 q 94 1208 94 1208 q 132 1186 113 1208 q 137 1183 135 1183 q 144 1190 139 1183 q 175 1208 161 1208 l 181 1208 q 228 1179 201 1208 q 271 1121 254 1150 l 288 1092 q 306 1044 306 1061 q 290 1026 306 1026 q 269 1033 279 1026 z "},"":{"ha":272,"x_min":-54,"x_max":363,"o":"m 258 63 q 189 -20 258 13 q 69 -53 119 -53 q 18 -7 18 -53 l 22 19 q 57 543 57 271 l 50 758 q 17 847 47 808 q 1 885 1 863 q 78 977 1 935 q 201 1019 156 1019 q 249 974 246 1019 q 250 905 250 957 q 243 763 250 853 q 239 385 239 611 q 254 83 239 160 q 258 63 258 75 m 295 1192 q 311 1192 295 1192 q 344 1176 326 1192 q 363 1130 363 1161 q 330 1072 363 1099 q 266 1044 297 1044 q 216 1060 235 1044 q 197 1107 197 1076 q 231 1165 197 1138 q 295 1192 264 1192 m 44 1192 q 59 1192 44 1192 q 93 1176 75 1192 q 111 1130 111 1161 q 78 1072 111 1099 q 15 1044 46 1044 q -35 1060 -17 1044 q -54 1107 -54 1076 q -21 1165 -54 1138 q 44 1192 13 1192 z "},"":{"ha":615,"x_min":-60,"x_max":614,"o":"m 0 82 l 1 94 q 40 461 33 288 l -33 460 q -60 515 -60 460 q -25 574 -60 569 q 43 572 4 572 q 19 840 43 753 l 13 869 q 6 903 6 883 q 58 985 6 953 q 226 1024 113 1024 q 415 980 340 1024 q 532 863 490 936 q 614 526 614 718 q 561 215 614 350 q 489 89 533 142 q 374 3 444 36 q 215 -29 304 -29 q 97 -13 149 -29 q 22 26 44 3 q 0 82 0 49 m 308 460 q 233 463 278 463 l 233 415 q 240 232 233 319 q 271 201 240 201 q 400 551 400 201 q 336 846 400 781 q 294 869 314 869 q 256 835 260 869 q 236 572 239 731 q 299 574 290 572 q 326 554 317 572 q 336 513 336 536 q 308 460 336 464 z "},"":{"ha":692,"x_min":-14,"x_max":704,"o":"m 529 1067 q 476 1044 503 1044 q 397 1067 450 1044 q 306 1089 344 1089 q 244 1081 267 1089 q 211 1074 221 1074 q 188 1101 188 1074 q 234 1165 188 1129 q 342 1201 281 1201 q 410 1192 367 1201 q 486 1182 454 1182 q 547 1203 518 1182 q 574 1210 560 1210 q 596 1186 596 1210 q 529 1067 596 1124 m 71 658 l 68 740 l 68 749 q 50 833 68 789 l 44 847 q 29 893 29 867 q 60 947 29 919 q 135 989 90 974 q 293 1021 228 1021 q 371 965 358 1021 q 408 815 388 910 q 436 688 428 719 q 485 543 458 594 q 494 539 489 539 q 511 571 508 539 q 506 765 511 696 q 501 870 501 833 q 506 919 501 907 q 569 996 521 965 q 660 1026 617 1026 q 704 992 704 1026 q 685 886 704 983 q 638 289 638 640 q 646 43 638 172 l 646 38 q 599 -19 646 -7 q 522 -29 563 -29 q 427 -10 481 -29 q 367 51 374 8 q 265 519 328 285 l 244 599 q 225 621 236 621 q 201 329 201 621 q 206 153 201 229 q 210 63 210 76 q 184 -1 210 25 q 121 -36 158 -26 q 22 -54 58 -54 q -14 -21 -14 -54 q 8 73 -14 -10 q 35 178 31 156 q 71 615 71 358 l 71 658 z "},"":{"ha":651,"x_min":14,"x_max":638,"o":"m 340 1036 q 469 993 408 1036 q 638 474 638 875 q 567 142 638 299 q 467 14 532 63 q 323 -35 401 -35 q 190 -1 244 -35 q 102 85 135 33 q 49 203 69 136 q 14 424 14 315 q 29 625 14 533 q 78 814 44 717 q 179 974 111 911 q 340 1036 247 1036 m 356 867 q 276 793 313 867 q 220 624 239 719 q 201 443 201 528 q 226 313 201 358 q 289 267 250 267 q 392 371 349 267 q 436 671 436 475 q 356 867 436 867 m 254 1150 q 228 1176 231 1158 q 251 1228 228 1201 q 295 1254 274 1254 q 344 1224 317 1254 q 404 1139 383 1181 q 424 1090 424 1107 q 408 1074 424 1074 q 388 1079 399 1074 q 254 1150 297 1136 z "},"":{"ha":651,"x_min":14,"x_max":638,"o":"m 340 1036 q 469 993 408 1036 q 638 474 638 875 q 567 142 638 299 q 467 14 532 63 q 323 -35 401 -35 q 190 -1 244 -35 q 102 85 135 33 q 49 203 69 136 q 14 424 14 315 q 29 625 14 533 q 78 814 44 717 q 179 974 111 911 q 340 1036 247 1036 m 356 867 q 276 793 313 867 q 220 624 239 719 q 201 443 201 528 q 226 313 201 358 q 289 267 250 267 q 392 371 349 267 q 436 671 436 475 q 356 867 436 867 m 381 1254 q 425 1226 403 1254 q 447 1178 447 1199 q 425 1151 447 1158 q 311 1094 383 1139 l 288 1079 q 267 1074 275 1074 q 251 1097 251 1074 q 299 1188 251 1121 q 381 1254 347 1254 z "},"":{"ha":651,"x_min":14,"x_max":638,"o":"m 340 1036 q 469 993 408 1036 q 638 474 638 875 q 567 142 638 299 q 467 14 532 63 q 323 -35 401 -35 q 190 -1 244 -35 q 102 85 135 33 q 49 203 69 136 q 14 424 14 315 q 29 625 14 533 q 78 814 44 717 q 179 974 111 911 q 340 1036 247 1036 m 356 867 q 276 793 313 867 q 220 624 239 719 q 201 443 201 528 q 226 313 201 358 q 289 267 250 267 q 392 371 349 267 q 436 671 436 475 q 356 867 436 867 m 458 1057 q 324 1128 350 1128 q 248 1089 315 1128 q 172 1050 181 1050 q 157 1067 157 1050 q 169 1106 157 1085 q 193 1147 182 1128 q 233 1199 204 1167 q 282 1232 261 1232 q 283 1232 283 1232 q 321 1210 301 1232 q 326 1207 324 1207 q 333 1214 328 1207 q 364 1232 350 1232 l 369 1232 q 417 1203 390 1232 q 460 1144 443 1174 l 476 1115 q 494 1067 494 1085 q 479 1050 494 1050 q 458 1057 469 1050 z "},"":{"ha":651,"x_min":14,"x_max":638,"o":"m 529 1067 q 476 1044 503 1044 q 397 1067 450 1044 q 306 1089 344 1089 q 244 1081 267 1089 q 211 1074 221 1074 q 188 1101 188 1074 q 234 1165 188 1129 q 342 1201 281 1201 q 410 1192 367 1201 q 486 1182 454 1182 q 547 1203 518 1182 q 574 1210 560 1210 q 596 1186 596 1210 q 529 1067 596 1124 m 340 1036 q 469 993 408 1036 q 638 474 638 875 q 567 142 638 299 q 467 14 532 63 q 323 -35 401 -35 q 190 -1 244 -35 q 102 85 135 33 q 49 203 69 136 q 14 424 14 315 q 29 625 14 533 q 78 814 44 717 q 179 974 111 911 q 340 1036 247 1036 m 356 867 q 276 793 313 867 q 220 624 239 719 q 201 443 201 528 q 226 313 201 358 q 289 267 250 267 q 392 371 349 267 q 436 671 436 475 q 356 867 436 867 z "},"":{"ha":651,"x_min":14,"x_max":638,"o":"m 340 1036 q 469 993 408 1036 q 638 474 638 875 q 567 142 638 299 q 467 14 532 63 q 323 -35 401 -35 q 190 -1 244 -35 q 102 85 135 33 q 49 203 69 136 q 14 424 14 315 q 29 625 14 533 q 78 814 44 717 q 179 974 111 911 q 340 1036 247 1036 m 356 867 q 276 793 313 867 q 220 624 239 719 q 201 443 201 528 q 226 313 201 358 q 289 267 250 267 q 392 371 349 267 q 436 671 436 475 q 356 867 436 867 m 476 1217 q 491 1217 476 1217 q 525 1201 507 1217 q 543 1155 543 1186 q 510 1097 543 1124 q 447 1069 478 1069 q 397 1085 415 1069 q 378 1132 378 1101 q 411 1190 378 1163 q 476 1217 444 1217 m 224 1217 q 240 1217 224 1217 q 274 1201 256 1217 q 292 1155 292 1186 q 259 1097 292 1124 q 195 1069 226 1069 q 145 1085 164 1069 q 126 1132 126 1101 q 160 1190 126 1163 q 224 1217 193 1217 z "},"":{"ha":526,"x_min":14,"x_max":513,"o":"m 192 483 q 63 670 92 626 q 33 731 33 714 q 58 756 33 747 q 107 765 83 765 q 171 733 154 765 q 264 590 178 719 q 358 733 349 714 q 438 767 378 767 q 499 738 499 767 q 489 714 499 728 l 335 485 l 504 238 q 513 210 513 224 q 494 187 513 196 q 456 178 475 178 q 378 211 404 178 q 263 378 325 286 l 150 211 q 69 178 124 178 q 14 213 14 178 q 24 238 14 224 q 192 483 107 360 z "},"":{"ha":651,"x_min":-51,"x_max":651,"o":"m 60 1 q -3 -33 44 -33 q -51 -7 -51 -33 q -42 18 -51 6 l 56 183 q 14 447 14 299 q 78 814 14 628 q 179 974 111 911 q 341 1036 247 1036 q 510 957 435 1036 l 546 1018 q 605 1042 558 1042 q 651 1017 651 1042 q 647 1001 651 1010 l 569 868 q 638 474 638 724 q 567 142 638 299 q 467 14 532 63 q 315 -35 401 -35 q 106 79 183 -35 l 60 1 m 418 801 q 355 867 397 867 q 276 793 313 867 q 220 624 239 719 q 201 444 201 528 l 201 432 l 418 801 m 289 267 q 391 366 347 267 q 436 642 435 465 l 233 299 q 289 267 256 267 z "},"":{"ha":629,"x_min":1,"x_max":629,"o":"m 244 697 l 238 517 q 307 317 238 317 q 363 350 343 317 q 391 428 386 392 q 399 489 396 465 q 403 549 401 513 q 404 610 404 586 l 404 671 q 390 858 404 794 q 385 890 385 871 q 454 988 385 946 q 576 1031 524 1031 q 629 986 629 1031 q 619 926 629 975 q 601 792 610 878 q 592 644 593 706 q 590 492 590 582 q 587 326 589 403 q 560 176 585 249 q 503 66 536 104 q 425 6 469 28 q 278 -29 358 -29 q 140 20 199 -29 q 59 138 81 69 q 38 292 38 207 l 44 618 l 44 689 l 43 765 q 18 854 43 821 q 1 893 1 871 q 82 989 1 947 q 217 1031 163 1031 q 271 992 271 1031 q 265 939 271 989 q 244 697 246 769 m 236 1129 q 210 1156 213 1138 q 233 1207 210 1181 q 277 1233 256 1233 q 326 1203 299 1233 q 386 1118 365 1160 q 406 1069 406 1086 q 390 1053 406 1053 q 369 1058 381 1053 q 236 1129 279 1115 z "},"":{"ha":629,"x_min":1,"x_max":629,"o":"m 244 697 l 238 517 q 307 317 238 317 q 363 350 343 317 q 391 428 386 392 q 399 489 396 465 q 403 549 401 513 q 404 610 404 586 l 404 671 q 390 858 404 794 q 385 890 385 871 q 454 988 385 946 q 576 1031 524 1031 q 629 986 629 1031 q 619 926 629 975 q 601 792 610 878 q 592 644 593 706 q 590 492 590 582 q 587 326 589 403 q 560 176 585 249 q 503 66 536 104 q 425 6 469 28 q 278 -29 358 -29 q 140 20 199 -29 q 59 138 81 69 q 38 292 38 207 l 44 618 l 44 689 l 43 765 q 18 854 43 821 q 1 893 1 871 q 82 989 1 947 q 217 1031 163 1031 q 271 992 271 1031 q 265 939 271 989 q 244 697 246 769 m 382 1264 q 426 1236 404 1264 q 449 1188 449 1208 q 426 1161 449 1168 q 313 1103 385 1149 l 289 1089 q 268 1083 276 1083 q 253 1107 253 1083 q 301 1197 253 1131 q 382 1264 349 1264 z "},"":{"ha":629,"x_min":1,"x_max":629,"o":"m 244 697 l 238 517 q 307 317 238 317 q 363 350 343 317 q 391 428 386 392 q 399 489 396 465 q 403 549 401 513 q 404 610 404 586 l 404 671 q 390 858 404 794 q 385 890 385 871 q 454 988 385 946 q 576 1031 524 1031 q 629 986 629 1031 q 619 926 629 975 q 601 792 610 878 q 592 644 593 706 q 590 492 590 582 q 587 326 589 403 q 560 176 585 249 q 503 66 536 104 q 425 6 469 28 q 278 -29 358 -29 q 140 20 199 -29 q 59 138 81 69 q 38 292 38 207 l 44 618 l 44 689 l 43 765 q 18 854 43 821 q 1 893 1 871 q 82 989 1 947 q 217 1031 163 1031 q 271 992 271 1031 q 265 939 271 989 q 244 697 246 769 m 465 1075 q 331 1146 357 1146 q 256 1107 322 1146 q 179 1068 189 1068 q 164 1085 164 1068 q 176 1124 164 1103 q 200 1165 189 1146 q 240 1217 211 1185 q 289 1250 268 1250 q 290 1250 290 1250 q 328 1228 308 1250 q 333 1225 331 1225 q 342 1232 335 1225 q 372 1250 357 1250 l 376 1250 q 424 1221 397 1250 q 467 1163 450 1192 l 483 1133 q 501 1085 501 1103 q 486 1068 501 1068 q 465 1075 475 1068 z "},"":{"ha":629,"x_min":1,"x_max":629,"o":"m 244 697 l 238 517 q 307 317 238 317 q 363 350 343 317 q 391 428 386 392 q 399 489 396 465 q 403 549 401 513 q 404 610 404 586 l 404 671 q 390 858 404 794 q 385 890 385 871 q 454 988 385 946 q 576 1031 524 1031 q 629 986 629 1031 q 619 926 629 975 q 601 792 610 878 q 592 644 593 706 q 590 492 590 582 q 587 326 589 403 q 560 176 585 249 q 503 66 536 104 q 425 6 469 28 q 278 -29 358 -29 q 140 20 199 -29 q 59 138 81 69 q 38 292 38 207 l 44 618 l 44 689 l 43 765 q 18 854 43 821 q 1 893 1 871 q 82 989 1 947 q 217 1031 163 1031 q 271 992 271 1031 q 265 939 271 989 q 244 697 246 769 m 465 1224 q 480 1224 465 1224 q 514 1208 496 1224 q 532 1162 532 1193 q 499 1103 532 1131 q 435 1076 467 1076 q 385 1092 404 1076 q 367 1139 367 1108 q 400 1197 367 1169 q 465 1224 433 1224 m 213 1224 q 229 1224 213 1224 q 263 1208 244 1224 q 281 1162 281 1193 q 248 1103 281 1131 q 184 1076 215 1076 q 134 1092 153 1076 q 115 1139 115 1108 q 149 1197 115 1169 q 213 1224 182 1224 z "},"":{"ha":401,"x_min":-115,"x_max":586,"o":"m 349 914 l 343 951 q 388 1013 343 983 q 521 1043 432 1043 q 586 1006 586 1043 q 574 958 586 989 q 448 711 561 926 q 321 457 335 496 q 293 322 297 390 l 292 299 q 301 86 297 100 q 304 61 304 72 q 272 1 304 28 q 92 -50 206 -50 q 44 -6 44 -50 l 49 22 q 58 67 50 29 q 70 122 67 104 q 78 179 74 140 q 89 333 89 263 q 81 475 89 439 q -3 724 36 619 l -17 758 q -89 865 -40 828 q -115 914 -115 888 q -42 997 -115 964 q 86 1031 31 1031 q 153 985 142 1031 q 172 903 157 969 q 238 669 207 742 q 247 658 242 658 q 261 668 253 658 q 318 790 288 708 q 349 914 349 871 m 322 1271 q 367 1243 344 1271 q 389 1195 389 1215 q 367 1168 389 1175 q 253 1111 325 1156 l 229 1096 q 208 1090 217 1090 q 193 1114 193 1090 q 241 1204 193 1138 q 322 1271 289 1271 z "},"":{"ha":539,"x_min":-4,"x_max":593,"o":"m 242 207 q 255 107 250 128 q 260 75 260 86 q 191 -8 260 25 q 70 -42 122 -42 q 18 8 18 -42 l 21 31 q 54 543 54 278 q 47 733 54 674 l 44 758 q 11 847 42 808 q -4 885 -4 863 q 73 977 -4 935 q 195 1019 150 1019 q 243 974 240 1019 q 244 925 244 957 q 243 872 244 893 q 297 874 256 874 q 388 863 339 874 q 486 825 438 851 q 564 747 535 799 q 593 619 593 694 q 563 474 593 543 q 491 361 532 404 q 394 283 450 318 q 242 207 310 228 m 238 364 q 267 375 250 364 q 335 465 310 403 q 368 598 368 549 q 362 672 368 647 q 347 708 356 696 q 328 726 339 719 q 299 736 313 736 q 235 682 256 736 q 238 364 235 481 z "},"":{"ha":657,"x_min":-8,"x_max":640,"o":"m 232 636 l 236 397 l 231 114 q 199 29 231 63 q 38 -26 146 -26 q -8 11 -8 -26 q -1 44 -8 24 q 19 153 6 65 q 60 629 60 404 q 46 799 60 731 q 40 833 40 813 q 104 935 40 896 q 232 984 150 963 q 372 1006 314 1006 q 472 999 431 1006 q 553 976 513 992 q 617 927 593 960 q 640 849 640 894 q 553 686 640 761 q 464 571 464 614 q 503 504 464 539 q 622 347 589 439 q 638 250 638 308 q 615 135 638 192 q 561 53 593 78 q 446 -4 497 -1 l 424 -6 q 311 40 339 -6 q 289 116 289 78 q 305 181 289 154 q 353 208 321 208 q 406 234 386 213 q 431 275 426 256 l 433 294 q 413 371 433 333 q 369 428 392 408 l 349 446 q 292 535 292 488 q 354 646 292 583 q 431 797 431 738 q 409 859 431 835 q 355 883 388 883 q 299 869 322 883 q 267 839 275 854 l 258 825 q 232 636 232 781 z "},"":{"ha":540,"x_min":8,"x_max":540,"o":"m 199 225 q 240 167 199 167 q 308 210 282 167 q 333 286 333 253 q 289 349 333 349 q 224 308 249 349 q 199 225 199 268 m 497 446 l 493 253 q 522 119 493 138 q 540 83 540 106 q 487 8 540 43 q 378 -26 433 -26 q 336 -15 350 -26 q 322 11 322 -3 q 313 49 322 49 q 295 33 311 49 q 248 1 279 17 q 169 -15 217 -15 q 84 8 121 -15 q 33 69 47 32 q 8 186 8 132 q 25 288 8 240 q 67 364 42 335 q 125 416 92 393 q 188 449 158 439 q 247 467 217 460 q 307 475 290 475 l 321 493 q 252 540 319 540 q 142 514 185 540 q 108 503 125 503 q 75 553 75 503 q 281 682 75 682 q 479 576 439 682 q 497 446 497 529 m 199 833 q 172 860 175 842 q 195 910 172 883 q 240 938 218 938 q 289 907 261 938 q 349 822 328 864 q 368 774 368 790 q 353 757 368 757 q 332 763 343 757 q 199 833 242 819 z "},"":{"ha":540,"x_min":8,"x_max":540,"o":"m 199 225 q 240 167 199 167 q 308 210 282 167 q 333 286 333 253 q 289 349 333 349 q 224 308 249 349 q 199 225 199 268 m 497 446 l 493 253 q 522 119 493 138 q 540 83 540 106 q 487 8 540 43 q 378 -26 433 -26 q 336 -15 350 -26 q 322 11 322 -3 q 313 49 322 49 q 295 33 311 49 q 248 1 279 17 q 169 -15 217 -15 q 84 8 121 -15 q 33 69 47 32 q 8 186 8 132 q 25 288 8 240 q 67 364 42 335 q 125 416 92 393 q 188 449 158 439 q 247 467 217 460 q 307 475 290 475 l 321 493 q 252 540 319 540 q 142 514 185 540 q 108 503 125 503 q 75 553 75 503 q 281 682 75 682 q 479 576 439 682 q 497 446 497 529 m 331 938 q 375 910 353 938 q 397 862 397 882 q 375 835 397 842 q 261 778 333 822 l 238 763 q 217 757 225 757 q 201 781 201 757 q 249 871 201 804 q 331 938 297 938 z "},"":{"ha":540,"x_min":8,"x_max":540,"o":"m 199 225 q 240 167 199 167 q 308 210 282 167 q 333 286 333 253 q 289 349 333 349 q 224 308 249 349 q 199 225 199 268 m 497 446 l 493 253 q 522 119 493 138 q 540 83 540 106 q 487 8 540 43 q 378 -26 433 -26 q 336 -15 350 -26 q 322 11 322 -3 q 313 49 322 49 q 295 33 311 49 q 248 1 279 17 q 169 -15 217 -15 q 84 8 121 -15 q 33 69 47 32 q 8 186 8 132 q 25 288 8 240 q 67 364 42 335 q 125 416 92 393 q 188 449 158 439 q 247 467 217 460 q 307 475 290 475 l 321 493 q 252 540 319 540 q 142 514 185 540 q 108 503 125 503 q 75 553 75 503 q 281 682 75 682 q 479 576 439 682 q 497 446 497 529 m 421 756 q 286 826 313 826 q 211 788 278 826 q 135 749 144 749 q 119 766 119 749 q 132 805 119 783 q 156 846 144 826 q 195 898 167 865 q 244 931 224 931 q 246 931 246 931 q 283 908 264 931 q 288 906 286 906 q 297 913 290 906 q 328 931 313 931 l 332 931 q 379 901 353 931 q 422 843 406 872 l 439 814 q 457 766 457 783 q 442 749 457 749 q 421 756 431 749 z "},"":{"ha":540,"x_min":8,"x_max":540,"o":"m 199 225 q 240 167 199 167 q 308 210 282 167 q 333 286 333 253 q 289 349 333 349 q 224 308 249 349 q 199 225 199 268 m 497 446 l 493 253 q 522 119 493 138 q 540 83 540 106 q 487 8 540 43 q 378 -26 433 -26 q 336 -15 350 -26 q 322 11 322 -3 q 313 49 322 49 q 295 33 311 49 q 248 1 279 17 q 169 -15 217 -15 q 84 8 121 -15 q 33 69 47 32 q 8 186 8 132 q 25 288 8 240 q 67 364 42 335 q 125 416 92 393 q 188 449 158 439 q 247 467 217 460 q 307 475 290 475 l 321 493 q 252 540 319 540 q 142 514 185 540 q 108 503 125 503 q 75 553 75 503 q 281 682 75 682 q 479 576 439 682 q 497 446 497 529 m 443 885 q 467 851 467 885 q 434 774 467 818 q 365 731 401 731 q 305 749 344 731 q 234 768 265 768 q 184 760 203 768 q 158 753 165 753 q 136 780 136 753 q 169 841 136 807 q 240 875 201 875 q 311 867 278 875 q 372 858 344 858 q 424 881 400 858 q 443 885 433 885 z "},"":{"ha":540,"x_min":8,"x_max":540,"o":"m 199 225 q 240 167 199 167 q 308 210 282 167 q 333 286 333 253 q 289 349 333 349 q 224 308 249 349 q 199 225 199 268 m 497 446 l 493 253 q 522 119 493 138 q 540 83 540 106 q 487 8 540 43 q 378 -26 433 -26 q 336 -15 350 -26 q 322 11 322 -3 q 313 49 322 49 q 295 33 311 49 q 248 1 279 17 q 169 -15 217 -15 q 84 8 121 -15 q 33 69 47 32 q 8 186 8 132 q 25 288 8 240 q 67 364 42 335 q 125 416 92 393 q 188 449 158 439 q 247 467 217 460 q 307 475 290 475 l 321 493 q 252 540 319 540 q 142 514 185 540 q 108 503 125 503 q 75 553 75 503 q 281 682 75 682 q 479 576 439 682 q 497 446 497 529 m 412 900 q 427 900 412 900 q 461 885 443 900 q 479 838 479 869 q 447 780 479 807 q 383 753 414 753 q 333 769 351 753 q 314 815 314 785 q 347 873 314 846 q 412 900 381 900 m 160 900 q 176 900 160 900 q 210 885 192 900 q 228 838 228 869 q 195 780 228 807 q 131 753 163 753 q 81 769 100 753 q 63 815 63 785 q 96 873 63 846 q 160 900 129 900 z "},"":{"ha":540,"x_min":8,"x_max":540,"o":"m 199 225 q 240 167 199 167 q 308 210 282 167 q 333 286 333 253 q 289 349 333 349 q 224 308 249 349 q 199 225 199 268 m 497 446 l 493 253 q 522 119 493 138 q 540 83 540 106 q 487 8 540 43 q 378 -26 433 -26 q 336 -15 350 -26 q 322 11 322 -3 q 313 49 322 49 q 295 33 311 49 q 248 1 279 17 q 169 -15 217 -15 q 84 8 121 -15 q 33 69 47 32 q 8 186 8 132 q 25 288 8 240 q 67 364 42 335 q 125 416 92 393 q 188 449 158 439 q 247 467 217 460 q 307 475 290 475 l 321 493 q 252 540 319 540 q 142 514 185 540 q 108 503 125 503 q 75 553 75 503 q 281 682 75 682 q 479 576 439 682 q 497 446 497 529 m 310 935 q 332 935 310 935 q 378 915 354 935 q 401 858 401 896 q 360 783 401 819 q 276 746 319 746 q 210 764 233 746 q 187 820 188 782 q 226 897 186 858 q 310 935 267 935 m 306 882 q 264 865 282 882 q 246 832 246 849 q 282 799 246 799 q 324 815 306 799 q 342 847 342 831 q 306 882 342 882 z "},"":{"ha":818,"x_min":8,"x_max":803,"o":"m 685 219 q 743 257 714 257 q 788 233 772 257 q 803 179 803 208 q 733 31 803 86 q 564 -25 664 -25 q 499 -15 531 -25 q 463 -4 467 -4 q 438 -13 460 -4 q 387 -22 415 -22 q 348 -19 358 -22 q 333 -8 338 -15 q 323 26 326 1 q 311 51 319 51 q 292 35 306 51 q 249 6 279 19 q 200 -10 219 -8 l 181 -11 q 50 46 92 -11 q 8 196 8 103 q 68 375 8 310 q 247 471 136 447 q 290 478 274 476 l 307 478 q 319 493 319 481 l 319 497 q 251 544 318 544 q 153 526 183 544 q 107 508 124 508 q 74 565 74 508 q 124 653 74 621 q 272 686 175 686 q 435 640 369 686 q 447 635 440 635 q 460 640 454 635 q 608 689 521 689 q 749 642 694 689 q 803 504 803 596 q 783 419 803 463 q 737 347 764 375 q 656 299 710 319 q 529 278 601 278 q 518 267 518 278 q 522 240 518 256 q 546 203 525 225 q 608 180 567 181 q 685 219 650 179 m 242 171 q 307 213 281 171 q 333 288 333 256 q 292 353 333 353 q 224 313 250 353 q 197 222 197 272 q 242 171 197 172 m 604 561 q 535 513 560 561 q 511 415 511 465 q 529 401 511 401 q 608 436 572 401 q 644 517 644 471 q 633 548 644 535 q 604 561 622 561 z "},"":{"ha":501,"x_min":14,"x_max":500,"o":"m 236 -31 q 14 304 14 -4 q 147 624 14 511 q 314 683 217 683 q 413 663 371 683 q 496 524 490 622 q 474 446 496 478 q 403 414 451 414 q 363 431 379 414 q 347 466 347 449 q 344 495 347 483 q 328 526 342 507 q 292 546 314 546 q 224 494 243 546 q 204 376 204 442 q 292 172 204 172 q 350 215 335 172 q 374 249 354 233 q 415 265 393 265 q 500 169 500 265 q 444 28 500 74 q 310 -29 388 -18 q 278 -57 278 -40 q 306 -83 278 -68 q 333 -125 333 -99 q 301 -168 333 -151 q 240 -185 269 -185 q 210 -176 210 -185 q 230 -149 210 -164 q 250 -122 250 -135 q 226 -100 250 -110 q 201 -77 201 -90 q 220 -49 201 -64 q 239 -33 239 -35 q 236 -31 239 -31 z "},"":{"ha":510,"x_min":15,"x_max":494,"o":"m 203 417 q 208 403 203 408 q 222 396 214 396 q 328 471 301 403 q 338 507 335 486 q 299 556 336 556 q 233 514 256 556 q 203 417 210 472 m 298 683 q 344 683 298 683 q 442 636 390 683 q 494 493 494 589 q 419 335 494 397 q 228 272 343 272 q 211 256 211 272 q 235 198 211 222 q 302 174 260 174 q 378 213 344 174 q 438 251 413 251 q 479 229 464 251 q 494 166 494 207 q 474 84 494 125 q 426 22 454 43 q 364 -11 399 1 q 255 -31 313 -31 q 147 -3 197 -31 q 69 72 97 25 q 15 281 15 167 q 43 481 15 396 q 138 624 71 565 q 298 683 206 683 m 183 833 q 157 860 160 842 q 180 910 157 883 q 224 938 203 938 q 274 907 246 938 q 333 822 313 864 q 353 774 353 790 q 338 757 353 757 q 317 763 328 757 q 183 833 226 819 z "},"":{"ha":510,"x_min":15,"x_max":494,"o":"m 203 417 q 208 403 203 408 q 222 396 214 396 q 328 471 301 403 q 338 507 335 486 q 299 556 336 556 q 233 514 256 556 q 203 417 210 472 m 298 683 q 344 683 298 683 q 442 636 390 683 q 494 493 494 589 q 419 335 494 397 q 228 272 343 272 q 211 256 211 272 q 235 198 211 222 q 302 174 260 174 q 378 213 344 174 q 438 251 413 251 q 479 229 464 251 q 494 166 494 207 q 474 84 494 125 q 426 22 454 43 q 364 -11 399 1 q 255 -31 313 -31 q 147 -3 197 -31 q 69 72 97 25 q 15 281 15 167 q 43 481 15 396 q 138 624 71 565 q 298 683 206 683 m 356 938 q 400 910 378 938 q 422 862 422 882 q 400 835 422 842 q 286 778 358 822 l 263 763 q 242 757 250 757 q 226 781 226 757 q 274 871 226 804 q 356 938 322 938 z "},"":{"ha":510,"x_min":15,"x_max":494,"o":"m 203 417 q 208 403 203 408 q 222 396 214 396 q 328 471 301 403 q 338 507 335 486 q 299 556 336 556 q 233 514 256 556 q 203 417 210 472 m 298 683 q 344 683 298 683 q 442 636 390 683 q 494 493 494 589 q 419 335 494 397 q 228 272 343 272 q 211 256 211 272 q 235 198 211 222 q 302 174 260 174 q 378 213 344 174 q 438 251 413 251 q 479 229 464 251 q 494 166 494 207 q 474 84 494 125 q 426 22 454 43 q 364 -11 399 1 q 255 -31 313 -31 q 147 -3 197 -31 q 69 72 97 25 q 15 281 15 167 q 43 481 15 396 q 138 624 71 565 q 298 683 206 683 m 403 756 q 268 826 294 826 q 192 788 260 826 q 117 749 125 749 q 101 766 101 749 q 114 805 101 783 q 138 846 126 826 q 177 898 149 865 q 226 931 206 931 q 228 931 228 931 q 265 908 246 931 q 270 906 268 906 q 278 913 272 906 q 308 931 294 931 l 314 931 q 361 901 335 931 q 404 843 388 872 l 421 814 q 439 766 439 783 q 424 749 439 749 q 403 756 414 749 z "},"":{"ha":510,"x_min":15,"x_max":494,"o":"m 203 417 q 208 403 203 408 q 222 396 214 396 q 328 471 301 403 q 338 507 335 486 q 299 556 336 556 q 233 514 256 556 q 203 417 210 472 m 298 683 q 344 683 298 683 q 442 636 390 683 q 494 493 494 589 q 419 335 494 397 q 228 272 343 272 q 211 256 211 272 q 235 198 211 222 q 302 174 260 174 q 378 213 344 174 q 438 251 413 251 q 479 229 464 251 q 494 166 494 207 q 474 84 494 125 q 426 22 454 43 q 364 -11 399 1 q 255 -31 313 -31 q 147 -3 197 -31 q 69 72 97 25 q 15 281 15 167 q 43 481 15 396 q 138 624 71 565 q 298 683 206 683 m 416 900 q 432 900 416 900 q 465 885 447 900 q 483 838 483 869 q 451 780 483 807 q 387 753 418 753 q 337 769 356 753 q 318 815 318 785 q 351 873 318 846 q 416 900 385 900 m 165 900 q 180 900 165 900 q 214 885 196 900 q 232 838 232 869 q 199 780 232 807 q 135 753 167 753 q 85 769 104 753 q 67 815 67 785 q 100 873 67 846 q 165 900 133 900 z "},"":{"ha":300,"x_min":8,"x_max":293,"o":"m 63 454 q 52 496 63 476 q 25 531 42 515 q 8 564 8 546 q 81 648 8 611 q 202 685 153 685 q 253 635 251 685 q 247 510 253 600 q 240 344 240 421 q 274 113 240 160 q 293 78 293 101 q 242 6 293 32 q 128 -21 192 -21 q 43 36 43 -21 q 47 68 43 39 q 67 317 67 179 l 63 454 m 64 833 q 38 860 40 842 q 60 910 38 883 q 105 938 83 938 q 154 907 126 938 q 214 822 193 864 q 233 774 233 790 q 218 757 233 757 q 197 763 208 757 q 64 833 107 819 z "},"":{"ha":300,"x_min":8,"x_max":293,"o":"m 63 454 q 52 496 63 476 q 25 531 42 515 q 8 564 8 546 q 81 648 8 611 q 202 685 153 685 q 253 635 251 685 q 247 510 253 600 q 240 344 240 421 q 274 113 240 160 q 293 78 293 101 q 242 6 293 32 q 128 -21 192 -21 q 43 36 43 -21 q 47 68 43 39 q 67 317 67 179 l 63 454 m 197 938 q 242 910 219 938 q 264 862 264 882 q 242 835 264 842 q 128 778 200 822 l 104 763 q 83 757 92 757 q 68 781 68 757 q 116 871 68 804 q 197 938 164 938 z "},"":{"ha":300,"x_min":-18,"x_max":319,"o":"m 63 454 q 52 496 63 476 q 25 531 42 515 q 8 564 8 546 q 81 648 8 611 q 202 685 153 685 q 253 635 251 685 q 247 510 253 600 q 240 344 240 421 q 274 113 240 160 q 293 78 293 101 q 242 6 293 32 q 128 -21 192 -21 q 43 36 43 -21 q 47 68 43 39 q 67 317 67 179 l 63 454 m 283 756 q 149 826 175 826 q 73 788 140 826 q -3 749 6 749 q -18 766 -18 749 q -6 805 -18 783 q 18 846 7 826 q 58 898 29 865 q 107 931 86 931 q 108 931 108 931 q 146 908 126 931 q 151 906 149 906 q 158 913 153 906 q 189 931 175 931 l 194 931 q 242 901 215 931 q 285 843 268 872 l 301 814 q 319 766 319 783 q 304 749 319 749 q 283 756 294 749 z "},"":{"ha":300,"x_min":-58,"x_max":358,"o":"m 63 454 q 52 496 63 476 q 25 531 42 515 q 8 564 8 546 q 81 648 8 611 q 202 685 153 685 q 253 635 251 685 q 247 510 253 600 q 240 344 240 421 q 274 113 240 160 q 293 78 293 101 q 242 6 293 32 q 128 -21 192 -21 q 43 36 43 -21 q 47 68 43 39 q 67 317 67 179 l 63 454 m 291 900 q 307 900 291 900 q 340 885 322 900 q 358 838 358 869 q 326 780 358 807 q 262 753 293 753 q 212 769 231 753 q 193 815 193 785 q 226 873 193 846 q 291 900 260 900 m 40 900 q 55 900 40 900 q 89 885 71 900 q 107 838 107 869 q 74 780 107 807 q 10 753 42 753 q -40 769 -21 753 q -58 815 -58 785 q -25 873 -58 846 q 40 900 8 900 z "},"":{"ha":542,"x_min":14,"x_max":528,"o":"m 243 729 q 214 721 229 721 q 188 731 199 721 q 176 751 176 740 q 189 782 176 767 l 286 858 q 165 982 240 935 q 158 1000 158 990 q 192 1024 158 1024 q 378 929 290 1024 l 458 992 q 488 1001 471 1001 q 516 992 504 1001 q 528 972 528 982 q 513 939 528 954 l 422 868 q 518 435 518 713 q 467 156 518 286 q 417 65 446 103 q 342 0 389 26 q 238 -26 296 -26 q 138 -2 181 -26 q 72 56 94 22 q 35 136 49 90 q 14 277 14 207 q 26 405 14 347 q 65 518 39 463 q 139 613 90 574 q 253 663 188 653 q 328 640 307 663 q 340 633 335 633 q 347 644 346 633 q 319 789 347 710 l 243 729 m 208 268 q 221 244 208 268 q 271 221 235 221 q 331 261 307 221 q 356 347 356 301 q 347 426 356 392 q 316 490 339 460 q 260 519 293 519 q 203 479 226 519 q 181 377 181 439 q 208 268 181 315 z "},"":{"ha":611,"x_min":1,"x_max":611,"o":"m 240 354 l 238 250 q 242 138 238 208 l 246 67 q 214 -1 246 21 q 82 -37 163 -37 q 25 11 25 -37 l 28 33 q 63 308 63 196 q 56 458 64 421 q 25 522 49 496 q 1 564 1 547 q 74 651 1 610 q 188 693 146 693 q 236 647 231 693 q 251 586 239 586 q 261 590 256 586 q 278 614 267 600 q 330 651 290 628 q 421 674 369 674 q 506 632 472 674 q 546 533 539 590 q 549 456 549 510 l 543 250 q 586 121 543 156 q 611 90 611 108 q 600 56 611 71 q 428 -19 547 -19 q 361 26 371 -18 q 357 87 357 46 q 365 216 357 128 q 372 346 372 304 q 317 469 372 469 q 260 431 281 469 q 240 354 240 392 m 447 885 q 471 851 471 885 q 438 774 471 818 q 369 731 406 731 q 309 749 349 731 q 238 768 269 768 q 188 760 207 768 q 163 753 169 753 q 140 780 140 753 q 173 841 140 807 q 244 875 206 875 q 315 867 282 875 q 376 858 349 858 q 428 881 404 858 q 447 885 438 885 z "},"":{"ha":546,"x_min":15,"x_max":532,"o":"m 285 693 q 469 588 406 693 q 532 329 532 482 q 417 24 532 128 q 275 -33 353 -33 q 147 -1 197 -33 q 69 83 96 31 q 15 303 15 186 q 78 558 15 439 q 163 656 108 618 q 285 693 217 693 m 365 397 q 349 472 365 439 q 294 506 332 506 q 220 452 256 506 q 185 322 185 399 q 256 215 185 215 q 330 264 294 215 q 365 397 365 313 m 201 833 q 175 860 178 842 q 198 910 175 883 q 242 938 221 938 q 292 907 264 938 q 351 822 331 864 q 371 774 371 790 q 356 757 371 757 q 335 763 346 757 q 201 833 244 819 z "},"":{"ha":546,"x_min":15,"x_max":532,"o":"m 285 693 q 469 588 406 693 q 532 329 532 482 q 417 24 532 128 q 275 -33 353 -33 q 147 -1 197 -33 q 69 83 96 31 q 15 303 15 186 q 78 558 15 439 q 163 656 108 618 q 285 693 217 693 m 365 397 q 349 472 365 439 q 294 506 332 506 q 220 452 256 506 q 185 322 185 399 q 256 215 185 215 q 330 264 294 215 q 365 397 365 313 m 339 938 q 383 910 361 938 q 406 862 406 882 q 383 835 406 842 q 269 778 342 822 l 246 763 q 225 757 233 757 q 210 781 210 757 q 258 871 210 804 q 339 938 306 938 z "},"":{"ha":546,"x_min":15,"x_max":532,"o":"m 285 693 q 469 588 406 693 q 532 329 532 482 q 417 24 532 128 q 275 -33 353 -33 q 147 -1 197 -33 q 69 83 96 31 q 15 303 15 186 q 78 558 15 439 q 163 656 108 618 q 285 693 217 693 m 365 397 q 349 472 365 439 q 294 506 332 506 q 220 452 256 506 q 185 322 185 399 q 256 215 185 215 q 330 264 294 215 q 365 397 365 313 m 415 756 q 281 826 307 826 q 205 788 272 826 q 129 749 138 749 q 114 766 114 749 q 126 805 114 783 q 150 846 139 826 q 190 898 161 865 q 239 931 218 931 q 240 931 240 931 q 278 908 258 931 q 283 906 281 906 q 292 913 285 906 q 322 931 307 931 l 326 931 q 374 901 347 931 q 417 843 400 872 l 433 814 q 451 766 451 783 q 436 749 451 749 q 415 756 425 749 z "},"":{"ha":546,"x_min":15,"x_max":532,"o":"m 285 693 q 469 588 406 693 q 532 329 532 482 q 417 24 532 128 q 275 -33 353 -33 q 147 -1 197 -33 q 69 83 96 31 q 15 303 15 186 q 78 558 15 439 q 163 656 108 618 q 285 693 217 693 m 365 397 q 349 472 365 439 q 294 506 332 506 q 220 452 256 506 q 185 322 185 399 q 256 215 185 215 q 330 264 294 215 q 365 397 365 313 m 415 885 q 439 851 439 885 q 406 774 439 818 q 338 731 374 731 q 277 749 317 731 q 206 768 238 768 q 156 760 175 768 q 131 753 138 753 q 108 780 108 753 q 141 841 108 807 q 212 875 174 875 q 283 867 250 875 q 344 858 317 858 q 396 881 372 858 q 415 885 406 885 z "},"":{"ha":546,"x_min":15,"x_max":532,"o":"m 285 693 q 469 588 406 693 q 532 329 532 482 q 417 24 532 128 q 275 -33 353 -33 q 147 -1 197 -33 q 69 83 96 31 q 15 303 15 186 q 78 558 15 439 q 163 656 108 618 q 285 693 217 693 m 365 397 q 349 472 365 439 q 294 506 332 506 q 220 452 256 506 q 185 322 185 399 q 256 215 185 215 q 330 264 294 215 q 365 397 365 313 m 415 900 q 430 900 415 900 q 464 885 446 900 q 482 838 482 869 q 449 780 482 807 q 385 753 417 753 q 335 769 354 753 q 317 815 317 785 q 350 873 317 846 q 415 900 383 900 m 163 900 q 179 900 163 900 q 213 885 194 900 q 231 838 231 869 q 198 780 231 807 q 134 753 165 753 q 84 769 103 753 q 65 815 65 785 q 99 873 65 846 q 163 900 132 900 z "},"":{"ha":653,"x_min":14,"x_max":639,"o":"m 588 547 q 639 493 633 547 q 600 433 639 435 q 421 436 569 436 l 58 433 q 14 493 14 433 q 44 542 14 528 q 72 547 57 547 q 426 546 276 546 l 588 547 m 351 783 q 425 719 425 783 q 385 659 425 685 q 309 633 346 633 q 250 648 272 633 q 228 686 228 663 q 268 756 228 729 q 351 783 308 783 m 351 350 q 425 286 425 350 q 385 226 425 251 q 309 200 346 200 q 250 215 272 200 q 228 253 228 229 q 268 323 228 296 q 351 350 308 350 z "},"":{"ha":546,"x_min":15,"x_max":532,"o":"m 100 -25 q 55 -50 89 -50 q 21 -32 21 -50 l 28 -14 l 76 69 q 15 303 15 163 q 78 558 15 439 q 163 656 108 618 q 289 693 217 693 q 415 647 361 693 l 447 701 q 489 718 456 718 q 522 700 522 718 q 519 689 522 697 l 464 594 q 532 329 532 493 q 417 24 532 128 q 268 -33 353 -33 q 124 15 183 -33 l 100 -25 m 297 506 q 220 452 256 506 q 185 322 185 399 q 192 267 185 292 l 326 497 q 297 506 314 506 m 256 215 q 330 264 294 215 q 365 397 365 313 q 364 424 365 414 l 242 217 q 256 215 246 215 z "},"":{"ha":610,"x_min":0,"x_max":610,"o":"m 39 197 l 43 422 q 36 492 43 463 q 15 540 29 522 q 0 576 0 557 q 69 656 0 619 q 176 693 139 693 q 227 678 214 693 q 240 622 240 663 q 233 495 240 582 q 226 390 226 408 q 292 239 226 239 q 356 338 339 239 q 363 418 363 374 q 347 550 363 507 q 332 588 332 569 q 394 658 332 629 q 505 686 457 686 q 553 638 553 686 q 544 489 553 590 q 535 328 535 388 q 536 245 535 269 q 551 173 538 221 q 586 111 564 125 q 610 81 610 100 q 599 47 610 63 q 436 -24 547 -24 q 365 24 374 -19 l 356 71 q 347 81 354 81 l 336 75 q 183 -19 286 -19 q 39 197 39 -17 m 207 833 q 181 860 183 842 q 203 910 181 883 q 248 938 226 938 q 297 907 269 938 q 357 822 336 864 q 376 774 376 790 q 361 757 376 757 q 340 763 351 757 q 207 833 250 819 z "},"":{"ha":610,"x_min":0,"x_max":610,"o":"m 39 197 l 43 422 q 36 492 43 463 q 15 540 29 522 q 0 576 0 557 q 69 656 0 619 q 176 693 139 693 q 227 678 214 693 q 240 622 240 663 q 233 495 240 582 q 226 390 226 408 q 292 239 226 239 q 356 338 339 239 q 363 418 363 374 q 347 550 363 507 q 332 588 332 569 q 394 658 332 629 q 505 686 457 686 q 553 638 553 686 q 544 489 553 590 q 535 328 535 388 q 536 245 535 269 q 551 173 538 221 q 586 111 564 125 q 610 81 610 100 q 599 47 610 63 q 436 -24 547 -24 q 365 24 374 -19 l 356 71 q 347 81 354 81 l 336 75 q 183 -19 286 -19 q 39 197 39 -17 m 375 938 q 419 910 397 938 q 442 862 442 882 q 419 835 442 842 q 306 778 378 822 l 282 763 q 261 757 269 757 q 246 781 246 757 q 294 871 246 804 q 375 938 342 938 z "},"":{"ha":610,"x_min":0,"x_max":610,"o":"m 39 197 l 43 422 q 36 492 43 463 q 15 540 29 522 q 0 576 0 557 q 69 656 0 619 q 176 693 139 693 q 227 678 214 693 q 240 622 240 663 q 233 495 240 582 q 226 390 226 408 q 292 239 226 239 q 356 338 339 239 q 363 418 363 374 q 347 550 363 507 q 332 588 332 569 q 394 658 332 629 q 505 686 457 686 q 553 638 553 686 q 544 489 553 590 q 535 328 535 388 q 536 245 535 269 q 551 173 538 221 q 586 111 564 125 q 610 81 610 100 q 599 47 610 63 q 436 -24 547 -24 q 365 24 374 -19 l 356 71 q 347 81 354 81 l 336 75 q 183 -19 286 -19 q 39 197 39 -17 m 438 756 q 303 826 329 826 q 228 788 294 826 q 151 749 161 749 q 136 766 136 749 q 149 805 136 783 q 172 846 161 826 q 212 898 183 865 q 261 931 240 931 q 263 931 263 931 q 300 908 281 931 q 305 906 303 906 q 314 913 307 906 q 344 931 329 931 l 349 931 q 396 901 369 931 q 439 843 422 872 l 456 814 q 474 766 474 783 q 458 749 474 749 q 438 756 447 749 z "},"":{"ha":610,"x_min":0,"x_max":610,"o":"m 39 197 l 43 422 q 36 492 43 463 q 15 540 29 522 q 0 576 0 557 q 69 656 0 619 q 176 693 139 693 q 227 678 214 693 q 240 622 240 663 q 233 495 240 582 q 226 390 226 408 q 292 239 226 239 q 356 338 339 239 q 363 418 363 374 q 347 550 363 507 q 332 588 332 569 q 394 658 332 629 q 505 686 457 686 q 553 638 553 686 q 544 489 553 590 q 535 328 535 388 q 536 245 535 269 q 551 173 538 221 q 586 111 564 125 q 610 81 610 100 q 599 47 610 63 q 436 -24 547 -24 q 365 24 374 -19 l 356 71 q 347 81 354 81 l 336 75 q 183 -19 286 -19 q 39 197 39 -17 m 445 900 q 461 900 445 900 q 494 885 476 900 q 513 838 513 869 q 480 780 513 807 q 416 753 447 753 q 366 769 385 753 q 347 815 347 785 q 381 873 347 846 q 445 900 414 900 m 194 900 q 209 900 194 900 q 243 885 225 900 q 261 838 261 869 q 228 780 261 807 q 165 753 196 753 q 115 769 133 753 q 96 815 96 785 q 129 873 96 846 q 194 900 163 900 z "},"":{"ha":576,"x_min":0,"x_max":554,"o":"m 39 199 l 43 429 q 22 529 43 494 q 0 578 0 564 q 74 656 0 618 q 188 693 149 693 q 240 625 240 693 q 233 506 240 575 q 226 379 226 438 q 283 254 226 254 l 289 254 q 358 454 358 254 q 342 550 358 511 q 326 588 326 569 q 392 657 326 628 q 506 686 457 686 q 554 639 554 686 q 547 539 554 589 q 535 283 535 431 l 539 110 q 519 -129 539 -42 q 430 -283 499 -217 q 264 -349 361 -349 q 164 -317 207 -349 q 121 -226 121 -285 q 140 -174 121 -193 q 178 -151 158 -154 l 196 -149 q 313 -85 276 -147 q 349 78 349 -22 q 342 101 349 101 l 329 96 q 182 1 278 1 q 39 199 39 1 m 358 938 q 403 910 381 938 q 425 862 425 882 q 403 835 425 842 q 289 778 361 822 l 265 763 q 244 757 253 757 q 229 781 229 757 q 277 871 229 804 q 358 938 325 938 z "},"":{"ha":581,"x_min":-42,"x_max":563,"o":"m 239 982 q 233 812 239 900 q 224 622 226 724 l 224 614 q 233 606 228 606 q 244 613 239 606 q 258 631 249 621 q 297 658 267 642 q 371 675 326 675 q 457 645 415 675 q 521 564 499 615 q 563 331 563 468 q 547 218 563 288 q 508 102 531 149 q 440 19 486 56 q 333 -17 394 -17 q 274 -6 300 -17 q 236 17 247 6 l 226 26 q 219 31 222 31 q 208 18 211 31 q 204 -119 204 -51 q 208 -226 204 -186 q 211 -275 211 -265 q 179 -346 211 -321 q 0 -408 106 -408 q -42 -368 -42 -408 l -37 -343 q 47 319 36 -132 q 54 667 54 572 q 50 792 54 761 q 15 863 44 842 l 6 869 q -12 903 -12 882 q 66 990 -12 949 q 189 1032 144 1032 q 239 982 239 1032 m 222 371 q 222 341 222 371 q 247 266 222 311 q 304 221 271 221 q 360 258 338 221 q 382 355 382 294 q 357 460 382 415 q 299 506 332 506 q 244 468 265 506 q 222 371 222 431 z "},"":{"ha":576,"x_min":0,"x_max":554,"o":"m 39 199 l 43 429 q 22 529 43 494 q 0 578 0 564 q 74 656 0 618 q 188 693 149 693 q 240 625 240 693 q 233 506 240 575 q 226 379 226 438 q 283 254 226 254 l 289 254 q 358 454 358 254 q 342 550 358 511 q 326 588 326 569 q 392 657 326 628 q 506 686 457 686 q 554 639 554 686 q 547 539 554 589 q 535 283 535 431 l 539 110 q 519 -129 539 -42 q 430 -283 499 -217 q 264 -349 361 -349 q 164 -317 207 -349 q 121 -226 121 -285 q 140 -174 121 -193 q 178 -151 158 -154 l 196 -149 q 313 -85 276 -147 q 349 78 349 -22 q 342 101 349 101 l 329 96 q 182 1 278 1 q 39 199 39 1 m 438 900 q 454 900 438 900 q 488 885 469 900 q 506 838 506 869 q 473 780 506 807 q 409 753 440 753 q 359 769 378 753 q 340 815 340 785 q 374 873 340 846 q 438 900 407 900 m 187 900 q 202 900 187 900 q 236 885 218 900 q 254 838 254 869 q 222 780 254 807 q 158 753 189 753 q 108 769 126 753 q 89 815 89 785 q 122 873 89 846 q 187 900 156 900 z "},"":{"ha":300,"x_min":8,"x_max":293,"o":"m 63 454 q 52 496 63 476 q 25 531 42 515 q 8 564 8 546 q 81 648 8 611 q 202 685 153 685 q 253 635 251 685 q 247 510 253 600 q 240 344 240 421 q 274 113 240 160 q 293 78 293 101 q 242 6 293 32 q 128 -21 192 -21 q 43 36 43 -21 q 47 68 43 39 q 67 317 67 179 l 63 454 z "},"":{"ha":517,"x_min":-40,"x_max":517,"o":"m 517 225 q 465 36 517 94 q 219 -22 414 -22 q 85 -12 131 -22 q 31 9 40 -3 q 21 43 21 21 l 24 64 q 54 419 50 208 l 13 400 q 10 399 11 399 q -24 429 -7 399 q -40 480 -40 460 q -33 504 -40 500 q 56 547 -8 515 l 50 768 q 18 858 47 818 q 0 896 0 876 q 84 986 0 942 q 215 1031 168 1031 q 263 992 263 1031 q 242 788 244 853 q 239 647 240 722 q 285 665 275 665 q 324 635 307 665 q 342 581 342 604 q 238 515 342 571 l 238 457 q 240 272 238 281 q 245 257 242 264 q 256 244 249 250 q 307 232 272 232 q 429 285 383 232 q 474 307 451 307 q 517 225 517 307 z "},"":{"ha":311,"x_min":-40,"x_max":342,"o":"m 253 982 q 247 817 253 900 q 238 647 242 733 q 290 665 274 665 q 324 635 307 665 q 342 581 342 604 q 235 514 342 572 l 235 440 q 238 248 235 346 q 286 118 242 150 q 310 75 310 104 q 274 21 310 46 q 124 -25 207 -25 q 53 22 67 -25 q 49 69 49 42 q 51 131 49 96 q 56 221 53 165 q 61 331 58 276 q 64 425 64 386 l 13 400 q 10 399 11 399 q -24 429 -7 399 q -40 480 -40 460 q -33 504 -40 500 q 68 554 17 525 l 68 639 q 64 792 68 761 q 29 863 58 842 l 19 869 q 1 903 1 882 q 80 990 1 949 q 203 1032 158 1032 q 253 982 253 1032 z "},"":{"ha":956,"x_min":14,"x_max":942,"o":"m 768 658 l 832 660 q 871 611 871 660 q 827 532 871 563 q 722 500 783 501 q 638 481 660 499 l 638 474 q 628 346 638 424 q 775 211 651 211 q 839 228 815 211 q 885 246 863 246 q 919 223 907 246 q 932 174 932 200 q 857 27 932 85 q 675 -31 782 -31 q 503 46 568 -31 q 315 -35 425 -35 q 190 -1 244 -35 q 102 85 135 33 q 49 203 69 136 q 14 424 14 315 q 29 625 14 533 q 78 814 44 717 q 179 974 111 911 q 340 1036 247 1036 q 453 1003 399 1036 q 544 911 507 971 q 797 1022 632 1022 q 922 973 903 1022 q 942 892 942 924 q 894 817 942 817 q 854 831 882 817 q 788 844 826 844 q 678 794 719 844 q 638 679 638 743 q 677 660 638 661 q 768 658 717 658 m 356 867 q 276 793 313 867 q 220 624 239 719 q 201 443 201 528 q 226 313 201 358 q 289 267 250 267 q 392 371 349 267 q 436 671 436 475 q 356 867 436 867 z "},"":{"ha":857,"x_min":15,"x_max":842,"o":"m 285 693 q 460 600 394 693 q 650 683 533 683 q 790 636 738 683 q 842 493 842 589 q 766 335 842 397 q 575 272 690 272 q 558 256 558 272 q 583 198 558 222 q 649 174 607 174 q 726 213 692 174 q 785 251 760 251 q 826 229 811 251 q 842 166 842 207 q 822 84 842 125 q 774 22 801 43 q 711 -11 746 1 q 613 -31 660 -31 q 438 43 504 -31 q 264 -33 368 -33 q 147 -1 197 -33 q 69 83 96 31 q 15 303 15 186 q 78 558 15 439 q 163 656 108 618 q 285 693 217 693 m 365 397 q 349 472 365 439 q 294 506 332 506 q 220 452 256 506 q 185 322 185 399 q 256 215 185 215 q 330 264 294 215 q 365 397 365 313 m 550 417 q 556 403 550 408 q 569 396 561 396 q 675 471 649 403 q 685 507 682 486 q 646 556 683 556 q 580 514 603 556 q 550 417 557 472 z "},"":{"ha":567,"x_min":1,"x_max":544,"o":"m 458 531 q 476 508 458 531 q 519 418 494 485 q 544 277 544 351 q 526 147 544 203 q 476 60 507 92 q 413 7 444 28 q 346 -22 382 -14 q 264 -35 292 -35 q 72 36 142 -35 q 1 221 1 107 q 33 341 1 285 q 113 397 64 397 q 140 385 129 397 q 153 342 150 372 q 165 283 156 311 q 186 241 175 254 q 211 219 197 228 q 244 210 231 210 q 299 234 279 210 q 318 299 318 258 q 292 387 318 339 q 228 478 265 435 q 154 567 192 522 q 64 769 64 674 q 148 962 64 894 q 363 1029 232 1029 q 466 1001 435 1029 q 497 903 497 974 q 457 833 497 833 q 420 844 443 833 q 368 854 397 854 q 319 831 339 854 q 300 772 300 807 q 325 696 300 736 q 386 616 350 656 q 458 531 422 576 m 201 1246 q 336 1175 310 1175 q 411 1214 344 1175 q 488 1253 478 1253 q 503 1235 503 1253 q 490 1197 503 1218 q 467 1156 478 1175 q 427 1103 456 1136 q 378 1071 399 1071 q 376 1071 376 1071 q 339 1093 358 1071 q 334 1096 336 1096 q 325 1089 332 1096 q 294 1071 310 1071 l 290 1071 q 243 1100 269 1071 q 200 1158 217 1129 l 183 1188 q 165 1235 165 1218 q 181 1253 165 1253 q 201 1246 192 1253 z "},"":{"ha":486,"x_min":0,"x_max":471,"o":"m 267 696 q 450 588 450 696 q 430 536 450 557 q 384 515 410 515 q 335 529 358 515 q 282 543 311 543 q 211 503 211 543 q 233 472 211 485 q 431 339 397 390 q 471 196 471 279 q 457 122 471 165 q 419 49 443 79 q 344 -6 396 19 q 222 -31 293 -31 q 115 -14 172 -31 q 0 124 0 19 q 28 208 0 172 q 97 243 56 243 q 157 218 139 243 q 165 206 158 217 q 178 189 172 194 q 225 171 196 171 q 271 185 254 171 q 288 225 288 200 q 249 276 288 250 q 163 322 210 303 q 78 384 117 342 q 39 483 39 426 q 102 638 39 581 q 267 696 165 696 m 111 925 q 246 854 219 854 q 322 893 254 854 q 397 932 389 932 q 413 915 413 932 q 400 876 413 897 q 376 835 388 854 q 337 783 365 815 q 288 750 308 750 q 286 750 286 750 q 249 772 268 750 q 244 775 246 775 q 236 768 242 775 q 206 750 219 750 l 200 750 q 153 779 179 750 q 110 838 126 808 l 93 867 q 75 915 75 897 q 90 932 75 932 q 111 925 100 932 z "},"":{"ha":401,"x_min":-115,"x_max":586,"o":"m 349 914 l 343 951 q 388 1013 343 983 q 521 1043 432 1043 q 586 1006 586 1043 q 574 958 586 989 q 448 711 561 926 q 321 457 335 496 q 293 322 297 390 l 292 299 q 301 86 297 100 q 304 61 304 72 q 272 1 304 28 q 92 -50 206 -50 q 44 -6 44 -50 l 49 22 q 58 67 50 29 q 70 122 67 104 q 78 179 74 140 q 89 333 89 263 q 81 475 89 439 q -3 724 36 619 l -17 758 q -89 865 -40 828 q -115 914 -115 888 q -42 997 -115 964 q 86 1031 31 1031 q 153 985 142 1031 q 172 903 157 969 q 238 669 207 742 q 247 658 242 658 q 261 668 253 658 q 318 790 288 708 q 349 914 349 871 m 369 1231 q 384 1231 369 1231 q 418 1215 400 1231 q 436 1169 436 1200 q 403 1110 436 1138 q 340 1083 371 1083 q 290 1099 308 1083 q 271 1146 271 1115 q 304 1203 271 1176 q 369 1231 338 1231 m 117 1231 q 133 1231 117 1231 q 167 1215 149 1231 q 185 1169 185 1200 q 152 1110 185 1138 q 88 1083 119 1083 q 38 1099 57 1083 q 19 1146 19 1115 q 53 1203 19 1176 q 117 1231 86 1231 z "},"":{"ha":576,"x_min":0,"x_max":592,"o":"m 575 233 q 432 -19 575 -10 q 211 -31 329 -31 q 0 43 0 -31 q 51 221 0 96 q 153 444 101 346 l 203 544 q 335 821 335 799 q 299 843 335 843 q 226 824 264 843 q 169 786 188 806 l 151 768 q 106 740 129 740 q 72 826 72 740 q 104 964 72 913 q 178 1007 126 999 q 367 1018 267 1018 q 502 1015 467 1018 q 548 1009 538 1011 q 575 993 558 1007 q 592 953 592 979 q 566 887 592 926 q 508 791 540 847 q 412 585 476 735 q 322 314 347 435 q 319 283 319 306 q 386 244 319 244 q 506 300 453 244 q 535 311 514 311 q 565 295 556 311 q 575 233 575 279 m 231 1243 q 365 1172 339 1172 q 440 1211 374 1172 q 517 1250 507 1250 q 532 1233 532 1250 q 519 1194 532 1215 q 496 1153 507 1172 q 456 1101 485 1133 q 407 1068 428 1068 q 406 1068 406 1068 q 368 1090 388 1068 q 363 1093 365 1093 q 356 1086 361 1093 q 325 1068 339 1068 l 319 1068 q 272 1097 299 1068 q 229 1156 246 1126 l 213 1185 q 194 1233 194 1215 q 210 1250 194 1250 q 231 1243 219 1250 z "},"":{"ha":496,"x_min":-6,"x_max":489,"o":"m 353 444 q 360 442 353 442 q 378 433 368 442 q 388 399 388 424 q 361 346 388 374 q 303 313 335 318 q 288 301 299 313 q 269 267 278 290 q 261 239 261 243 q 326 211 261 211 q 424 239 390 211 q 457 251 442 251 q 489 203 489 251 q 469 83 489 142 l 464 64 q 429 18 454 36 q 383 -4 404 0 l 364 -8 q 221 -17 306 -17 l 78 -10 q -6 58 -6 -3 q 7 108 -6 83 q 92 278 25 167 l 114 317 q 81 357 81 325 q 116 421 81 389 q 193 454 151 453 q 229 506 203 454 l 238 522 q 240 535 240 528 q 236 547 240 542 q 189 554 228 554 q 83 533 110 554 q 56 521 68 521 q 26 563 26 521 q 40 636 26 592 q 122 684 57 678 q 267 690 186 690 q 379 687 349 690 q 421 681 410 683 q 450 665 432 678 q 468 624 468 651 q 422 544 468 596 q 353 444 353 460 m 115 925 q 250 854 224 854 q 325 893 258 854 q 401 932 392 932 q 417 915 417 932 q 404 876 417 897 q 381 835 392 854 q 341 783 369 815 q 292 750 313 750 q 290 750 290 750 q 253 772 272 750 q 248 775 250 775 q 239 768 246 775 q 208 750 224 750 l 204 750 q 157 779 183 750 q 114 838 131 808 l 97 867 q 79 915 79 897 q 94 932 79 932 q 115 925 106 932 z "},"":{"ha":540,"x_min":124,"x_max":461,"o":"m 425 756 q 290 826 317 826 q 215 788 282 826 q 139 749 147 749 q 124 766 124 749 q 136 805 124 783 q 160 846 149 826 q 199 898 171 865 q 249 931 228 931 q 250 931 250 931 q 288 908 268 931 q 292 906 290 906 q 300 913 294 906 q 331 931 317 931 l 336 931 q 383 901 357 931 q 426 843 410 872 l 443 814 q 461 766 461 783 q 446 749 461 749 q 425 756 436 749 z "},"":{"ha":540,"x_min":117,"x_max":454,"o":"m 153 925 q 288 854 261 854 q 363 893 296 854 q 439 932 431 932 q 454 915 454 932 q 442 876 454 897 q 418 835 429 854 q 378 783 407 815 q 329 750 350 750 q 328 750 328 750 q 290 772 310 750 q 285 775 288 775 q 278 768 283 775 q 247 750 261 750 l 242 750 q 194 779 221 750 q 151 838 168 808 l 135 867 q 117 915 117 897 q 132 932 117 932 q 153 925 142 932 z "},"":{"ha":540,"x_min":117,"x_max":454,"o":"m 153 925 q 289 849 229 849 q 419 925 349 849 q 440 932 426 932 q 454 917 454 932 q 436 867 454 901 q 286 760 379 760 q 135 867 193 760 q 117 917 117 901 q 132 932 117 932 q 153 925 142 932 z "},"":{"ha":300,"x_min":25,"x_max":267,"o":"m 267 896 q 217 813 267 844 q 122 782 168 782 q 51 799 76 782 q 25 846 25 817 q 75 931 25 899 q 170 964 125 964 q 241 946 215 964 q 267 896 267 928 z "},"":{"ha":540,"x_min":193,"x_max":408,"o":"m 317 935 q 339 935 317 935 q 385 915 361 935 q 408 858 408 896 q 367 783 408 819 q 283 746 326 746 q 217 764 240 746 q 194 820 194 782 q 233 897 193 858 q 317 935 274 935 m 313 882 q 271 865 289 882 q 253 832 253 849 q 289 799 253 799 q 331 815 313 799 q 349 847 349 831 q 313 882 349 882 z "},"":{"ha":501,"x_min":299,"x_max":446,"o":"m 401 -118 q 442 -106 422 -118 q 446 -126 446 -115 q 396 -165 446 -165 q 322 -137 346 -165 q 299 -70 299 -108 q 319 -4 299 -32 q 367 24 340 24 q 406 18 394 24 q 358 -78 358 -22 q 401 -118 358 -118 z "},"":{"ha":611,"x_min":149,"x_max":479,"o":"m 456 885 q 479 851 479 885 q 447 774 479 818 q 378 731 414 731 q 317 749 357 731 q 247 768 278 768 q 197 760 215 768 q 171 753 178 753 q 149 780 149 753 q 181 841 149 807 q 252 875 214 875 q 324 867 290 875 q 385 858 357 858 q 436 881 413 858 q 456 885 446 885 z "},"":{"ha":574,"x_min":69,"x_max":504,"o":"m 199 938 q 243 910 221 938 q 265 862 265 882 q 243 835 265 842 q 129 778 201 822 l 106 763 q 85 757 93 757 q 69 781 69 757 q 117 871 69 804 q 199 938 165 938 m 438 938 q 482 910 460 938 q 504 862 504 882 q 482 835 504 842 q 368 778 440 822 l 344 763 q 324 757 332 757 q 308 781 308 757 q 356 871 308 804 q 438 938 404 938 z "},"":{"ha":501,"x_min":39,"x_max":440,"o":"m 421 290 q 349 293 407 293 l 58 290 q 39 345 39 290 q 64 404 39 400 q 350 403 293 403 q 414 404 407 403 q 440 349 440 403 q 421 290 440 294 z "},"":{"ha":901,"x_min":39,"x_max":840,"o":"m 801 290 q 657 293 775 293 l 76 290 q 49 305 58 290 q 39 342 39 319 q 51 383 39 364 q 89 404 64 403 q 660 403 546 403 q 788 404 774 403 q 826 385 813 403 q 840 344 840 367 q 830 307 840 322 q 801 290 819 292 z "},"":{"ha":169,"x_min":0,"x_max":142,"o":"m 79 774 q 22 852 44 778 q 0 967 0 926 q 22 1031 0 1007 q 76 1054 44 1054 q 142 996 142 1054 q 125 911 142 986 q 107 808 108 836 q 79 774 106 779 z "},"":{"ha":156,"x_min":14,"x_max":156,"o":"m 69 774 q 44 808 47 779 q 28 910 42 836 q 14 996 14 985 q 79 1054 14 1054 q 133 1031 111 1054 q 156 968 156 1007 q 130 853 156 929 q 69 774 104 778 z "},"":{"ha":269,"x_min":22,"x_max":249,"o":"m 158 165 q 249 74 249 165 q 204 -61 249 14 q 103 -136 160 -136 q 82 -119 82 -136 l 86 -101 q 107 -39 107 -61 q 88 6 107 1 l 81 7 q 22 60 22 17 q 65 135 24 106 q 158 165 106 165 z "},"":{"ha":376,"x_min":0,"x_max":349,"o":"m 79 774 q 22 852 44 778 q 0 967 0 926 q 22 1031 0 1007 q 76 1054 44 1054 q 142 996 142 1054 q 125 911 142 986 q 107 808 108 836 q 79 774 106 779 m 286 774 q 229 852 251 778 q 207 967 207 926 q 229 1031 207 1007 q 283 1054 251 1054 q 349 997 349 1054 q 332 908 349 981 q 314 807 315 835 q 286 774 313 779 z "},"":{"ha":363,"x_min":14,"x_max":363,"o":"m 276 774 q 251 808 254 779 q 235 910 249 836 q 221 996 221 985 q 286 1054 221 1054 q 340 1031 318 1054 q 363 968 363 1007 q 337 853 363 929 q 276 774 311 778 m 69 774 q 42 806 43 779 q 27 906 40 833 q 14 997 14 979 q 79 1054 14 1054 q 133 1031 111 1054 q 156 968 156 1007 q 131 853 156 929 q 69 774 106 778 z "},"":{"ha":556,"x_min":22,"x_max":535,"o":"m 158 165 q 249 74 249 165 q 204 -61 249 14 q 103 -136 160 -136 q 82 -119 82 -136 l 86 -101 q 107 -39 107 -61 q 88 6 107 1 l 81 7 q 22 60 22 17 q 65 135 24 106 q 158 165 106 165 m 444 165 q 535 74 535 165 q 490 -61 535 14 q 389 -136 446 -136 q 368 -119 368 -136 l 372 -101 q 393 -39 393 -61 q 374 6 393 1 l 367 7 q 308 60 308 17 q 351 135 310 106 q 444 165 392 165 z "},"":{"ha":653,"x_min":28,"x_max":625,"o":"m 415 764 q 398 696 415 760 q 381 585 381 632 l 381 546 l 426 546 q 521 558 471 546 q 574 571 571 571 q 609 551 596 571 q 624 513 622 532 l 625 493 q 616 433 625 464 q 585 400 607 401 q 524 418 579 400 q 421 436 468 436 l 381 436 l 383 -193 q 367 -226 383 -215 q 335 -237 350 -237 q 310 -235 319 -237 q 285 -219 300 -233 q 269 -179 269 -204 q 271 435 269 200 q 97 408 174 435 l 72 400 q 40 431 51 400 q 28 479 28 463 q 28 501 28 496 q 32 520 29 507 q 40 544 35 533 q 86 571 54 571 q 271 546 164 546 l 271 590 q 253 690 271 635 q 235 750 235 746 q 258 785 235 772 q 303 800 281 799 l 325 803 q 384 794 354 803 q 415 764 414 785 z "},"":{"ha":263,"x_min":26,"x_max":228,"o":"m 228 365 q 228 345 228 365 q 199 292 228 325 q 122 258 169 258 q 50 283 74 258 q 26 347 26 307 q 56 422 26 386 q 133 457 86 457 q 203 431 179 457 q 228 365 228 406 z "},"":{"ha":911,"x_min":22,"x_max":889,"o":"m 469 167 q 492 167 469 167 q 536 150 514 167 q 559 99 558 133 q 517 33 560 65 q 431 1 475 1 q 365 17 388 1 q 342 60 342 33 q 383 135 342 103 q 469 167 425 167 m 150 167 q 172 167 150 167 q 217 150 194 167 q 240 99 239 133 q 198 33 240 65 q 112 1 156 1 q 45 17 68 1 q 22 60 22 33 q 64 135 22 103 q 150 167 106 167 m 799 167 q 821 167 799 167 q 865 150 843 167 q 888 99 888 133 q 847 33 889 65 q 760 1 804 1 q 694 17 717 1 q 671 60 671 33 q 713 135 671 103 q 799 167 754 167 z "},"":{"ha":1226,"x_min":15,"x_max":1204,"o":"m 203 1010 q 323 940 281 1010 q 365 789 365 871 q 351 642 365 707 q 292 527 336 576 q 171 478 249 478 q 54 547 93 478 q 15 721 15 617 q 63 917 15 825 q 203 1010 110 1010 m 260 757 q 260 786 260 757 q 240 865 260 815 q 189 914 221 914 q 131 775 131 914 q 151 679 131 711 q 199 647 171 647 q 243 673 226 647 q 260 757 260 699 m 181 1 q 117 -33 165 -33 q 69 -7 69 -33 q 79 18 69 1 l 668 1018 q 726 1042 681 1042 q 772 1017 772 1042 q 768 1001 772 1010 l 181 1 m 650 510 q 770 440 728 510 q 813 289 813 371 q 798 142 813 207 q 740 27 783 76 q 618 -22 696 -22 q 501 47 540 -22 q 463 221 463 117 q 510 417 463 325 q 650 510 557 510 m 707 257 q 707 286 707 257 q 688 365 707 315 q 636 414 668 414 q 578 275 578 414 q 598 179 578 211 q 646 147 618 147 q 690 173 674 147 q 707 257 707 199 m 1042 510 q 1162 440 1119 510 q 1204 289 1204 371 q 1190 142 1204 207 q 1131 27 1175 76 q 1010 -22 1088 -22 q 893 47 932 -22 q 854 221 854 117 q 901 417 854 325 q 1042 510 949 510 m 1099 257 q 1099 286 1099 257 q 1079 365 1099 315 q 1028 414 1060 414 q 969 275 969 414 q 990 179 969 211 q 1038 147 1010 147 q 1082 173 1065 147 q 1099 257 1099 199 z "},"":{"ha":435,"x_min":28,"x_max":419,"o":"m 418 56 q 343 33 418 33 q 283 44 311 33 q 194 119 254 56 q 89 242 135 183 l 42 300 q 28 334 28 314 q 45 375 28 354 q 95 435 63 396 q 193 544 128 475 q 282 621 258 614 q 360 632 301 632 q 419 610 419 632 q 396 576 419 596 q 373 555 388 568 q 322 505 358 542 q 257 439 285 468 q 183 335 183 360 q 236 251 183 311 q 342 140 289 190 l 394 90 q 418 56 418 71 z "},"":{"ha":432,"x_min":7,"x_max":399,"o":"m 169 228 q 183 243 169 228 q 220 289 197 258 q 243 337 243 319 q 190 415 243 354 q 83 525 138 475 l 31 576 q 7 610 7 596 q 74 632 7 632 q 144 621 119 632 q 228 551 168 614 q 336 429 288 489 l 385 369 q 399 339 399 354 q 385 300 399 317 q 147 46 204 68 q 89 33 117 33 q 35 37 61 33 q 8 56 8 40 q 32 90 8 71 q 55 112 40 99 q 106 161 69 125 q 169 228 142 197 z "},"":{"ha":522,"x_min":-60,"x_max":643,"o":"m 51 1 q -12 -33 36 -33 q -60 -7 -60 -33 q -50 18 -60 6 l 539 1018 q 597 1042 551 1042 q 643 1017 643 1042 q 639 1001 643 1010 l 51 1 z "},"":{"ha":469,"x_min":28,"x_max":442,"o":"m 188 656 q 228 635 188 635 q 268 650 268 635 l 268 713 l 267 804 q 258 813 264 813 q 246 803 253 813 q 188 656 188 697 m 401 646 l 422 647 q 442 626 442 647 q 399 499 442 531 q 389 482 389 496 l 388 464 q 399 381 388 425 q 403 364 403 374 q 360 315 403 332 q 278 299 317 299 q 239 332 239 299 l 243 349 q 260 467 260 400 q 244 478 260 479 q 193 478 229 478 l 97 481 q 28 536 28 481 q 99 730 39 613 q 203 911 158 847 l 249 976 q 365 1015 279 1015 q 408 986 408 1015 q 397 933 408 982 q 385 841 386 883 q 385 717 385 799 l 385 653 q 401 646 385 646 z "},"":{"ha":601,"x_min":0,"x_max":601,"o":"m 436 438 l 288 438 q 429 210 303 210 q 503 228 478 210 q 552 247 529 247 q 588 225 575 247 q 601 174 601 203 q 528 27 601 83 q 366 -29 454 -29 q 221 11 278 -29 q 136 119 164 51 q 82 422 82 249 l 82 438 l 28 438 q 0 468 0 440 q 10 500 0 486 q 39 519 25 519 l 85 519 q 92 593 86 543 l 28 593 q 9 601 18 593 q 0 625 0 610 q 10 653 0 640 q 39 675 25 675 l 106 675 q 450 1025 181 1025 q 583 971 560 1025 q 599 882 599 925 q 557 810 599 818 q 510 828 536 810 q 447 851 485 847 q 300 675 335 851 l 447 675 q 479 644 479 675 q 466 610 476 624 q 436 593 456 597 l 289 593 q 286 519 286 538 l 438 519 q 479 490 479 519 q 467 459 479 475 q 436 438 454 443 z "},"":{"ha":672,"x_min":82,"x_max":621,"o":"m 163 967 l 215 964 q 253 968 244 964 q 268 972 261 972 q 281 954 281 972 l 272 914 q 225 882 263 882 q 218 872 218 882 q 215 738 215 824 q 224 599 215 651 l 224 592 q 211 568 224 578 q 142 544 183 544 q 122 563 122 544 q 143 872 143 729 q 131 879 143 879 q 110 873 119 879 q 94 867 100 867 q 82 883 82 867 q 90 922 82 899 q 113 956 99 944 q 163 967 128 967 m 615 936 q 590 710 590 899 q 607 611 590 624 q 617 593 617 603 q 588 560 617 574 q 540 547 558 547 q 508 564 510 547 q 504 607 504 592 l 511 732 q 515 797 515 767 q 511 826 515 826 q 471 722 499 826 l 447 654 q 419 633 438 633 q 404 647 407 633 l 363 817 q 356 826 361 826 q 347 748 346 826 q 347 636 347 669 l 346 589 q 325 556 344 568 q 280 538 301 538 q 258 550 258 538 l 278 631 q 293 803 293 719 q 285 900 293 886 q 276 921 276 914 q 317 960 276 946 q 386 974 358 974 q 421 949 414 974 q 435 882 428 925 q 449 839 442 839 q 458 846 456 839 q 489 928 478 894 q 526 963 494 953 q 585 971 549 971 q 621 951 621 971 q 615 936 621 947 z "},"":{"ha":658,"x_min":14,"x_max":644,"o":"m 601 435 q 440 438 571 438 l 58 435 q 14 494 14 435 q 44 543 14 529 q 72 549 57 549 q 443 547 317 547 q 591 548 569 547 q 627 535 613 549 q 643 512 642 521 q 644 495 644 503 q 643 478 644 488 q 631 451 642 468 q 601 435 619 435 z "},"":{"ha":333,"x_min":-33,"x_max":347,"o":"m 228 879 l 225 813 q 241 772 225 776 q 272 768 257 768 q 318 771 288 768 q 347 733 347 771 q 246 624 347 663 q 226 599 232 618 q 218 400 218 514 q 226 250 218 286 q 276 210 233 217 q 294 200 286 210 q 310 165 310 182 q 307 131 310 147 q 294 87 304 115 q 267 34 283 58 q 219 -8 251 10 q 147 -26 188 -26 q 47 56 78 -26 q 36 132 36 88 l 47 506 q 40 617 47 574 q -14 697 32 660 q -33 736 -33 711 q -8 786 -33 761 q 132 935 68 833 q 181 961 151 961 q 228 879 228 961 z "},"":{"ha":589,"x_min":14,"x_max":575,"o":"m 194 215 q 131 181 179 181 q 83 207 83 181 q 93 232 83 215 l 135 307 l 58 306 q 14 365 14 306 q 44 414 14 400 q 94 419 57 419 q 199 418 131 418 l 279 560 l 58 557 q 14 617 14 557 q 44 665 14 651 q 72 671 57 671 q 340 669 215 669 l 399 771 q 458 794 411 794 q 504 769 504 794 q 500 754 504 763 l 451 669 q 525 670 507 669 q 558 657 543 671 q 574 634 572 643 q 575 617 575 625 q 574 600 575 610 q 561 574 572 590 q 527 558 550 557 q 389 560 504 560 l 310 418 l 379 418 q 522 419 500 418 q 558 406 543 419 q 574 383 572 392 q 575 366 575 374 q 574 349 575 358 q 561 322 572 339 q 532 306 550 306 q 371 308 501 308 l 247 308 l 194 215 z "},"":{"ha":593,"x_min":14,"x_max":579,"o":"m 564 449 q 564 435 564 449 q 553 403 564 422 q 524 383 543 383 q 481 396 504 383 q 172 492 429 422 l 88 515 q 21 588 21 525 q 97 693 21 667 q 444 797 269 757 q 533 815 513 815 q 566 794 553 815 q 579 740 579 772 q 543 703 579 708 l 333 660 q 197 610 196 626 q 225 589 196 596 q 550 490 536 515 q 564 449 564 475 m 71 315 l 340 319 q 494 314 457 319 q 519 299 503 313 q 536 260 535 285 q 485 204 536 204 q 243 206 450 206 l 53 206 q 14 261 14 210 q 31 298 14 281 q 71 315 47 315 z "},"":{"ha":588,"x_min":14,"x_max":574,"o":"m 104 392 q 72 383 89 383 q 31 447 31 383 q 44 490 31 474 q 289 569 56 511 l 368 589 q 394 606 393 594 l 396 610 q 310 647 397 624 q 136 686 224 669 l 50 703 q 14 740 14 708 q 27 794 14 772 q 67 815 40 815 q 149 797 94 815 q 450 711 318 758 l 497 693 q 574 595 574 665 q 506 515 574 525 q 104 392 176 428 m 86 204 q 35 260 35 204 q 51 299 36 285 q 88 315 65 313 q 221 318 110 318 l 499 315 q 536 300 522 315 q 557 261 557 281 q 518 206 557 210 l 326 206 q 86 204 121 206 z "},"":{"ha":878,"x_min":0,"x_max":878,"o":"m 603 1025 l 478 907 q 439 908 465 908 q 400 907 413 908 l 275 1025 l 357 1025 l 438 940 l 519 1025 l 603 1025 m 749 732 q 813 667 749 732 q 878 422 878 603 q 749 113 878 242 q 438 -17 619 -17 q 128 112 257 -17 q 0 422 0 240 q 128 733 0 604 q 438 861 257 861 q 749 732 619 861 m 704 156 q 759 211 704 156 q 814 422 814 267 q 704 688 814 578 q 439 799 594 799 q 173 688 283 799 q 63 422 63 578 q 173 156 63 267 q 439 46 283 46 q 704 156 594 46 m 636 283 q 574 172 636 210 q 433 133 513 133 q 242 188 353 133 l 254 253 q 432 196 346 196 q 522 219 488 196 q 557 276 557 242 q 526 337 557 310 q 450 385 494 364 q 361 431 406 407 q 285 490 317 454 q 254 568 254 525 q 309 677 254 643 q 436 711 364 711 q 519 696 488 711 q 604 651 583 665 l 589 592 q 440 650 522 650 q 360 628 390 650 q 329 574 329 607 q 361 517 329 542 q 438 473 393 492 q 528 433 483 454 q 604 373 572 411 q 636 283 636 335 z "},"":{"ha":672,"x_min":1,"x_max":665,"o":"m 7 -111 q 50 444 50 94 q 14 831 50 793 q 1 874 1 847 q 56 964 1 922 q 85 985 67 972 q 161 1017 104 997 q 272 1038 218 1038 q 371 983 371 1038 q 340 929 371 946 q 285 890 310 913 q 250 851 260 867 l 242 836 q 222 752 222 801 q 226 665 222 703 q 254 646 226 647 q 317 647 297 647 q 354 607 354 647 q 334 522 354 567 q 278 475 314 478 q 228 461 238 475 q 221 284 221 449 q 233 42 221 119 q 246 -53 246 -36 q 240 -81 246 -69 q 169 -150 218 -124 q 52 -185 101 -185 q 3 -139 3 -185 l 7 -111 m 435 454 q 424 496 435 476 q 397 531 414 515 q 381 564 381 546 q 453 648 381 611 q 574 685 525 685 q 625 635 624 685 q 619 510 625 600 q 613 344 613 421 q 646 113 613 160 q 665 78 665 101 q 615 6 665 32 q 500 -21 564 -21 q 415 36 415 -21 q 419 68 415 39 q 439 317 439 179 l 435 454 m 639 896 q 590 813 639 844 q 494 782 540 782 q 423 799 449 782 q 397 846 397 817 q 447 931 397 899 q 542 964 497 964 q 613 946 588 964 q 639 896 639 928 z "},"":{"ha":683,"x_min":1,"x_max":682,"o":"m 7 -111 q 50 444 50 94 q 14 831 50 793 q 1 874 1 847 q 56 964 1 922 q 85 985 67 972 q 161 1017 104 997 q 272 1038 218 1038 q 371 983 371 1038 q 340 929 371 946 q 285 890 310 913 q 250 851 260 867 l 242 836 q 222 752 222 801 q 226 665 222 703 q 254 646 226 647 q 317 647 297 647 q 354 607 354 647 q 334 522 354 567 q 278 475 314 478 q 228 461 238 475 q 221 284 221 449 q 233 42 221 119 q 246 -53 246 -36 q 240 -81 246 -69 q 169 -150 218 -124 q 52 -185 101 -185 q 3 -139 3 -185 l 7 -111 m 625 982 q 616 770 625 900 q 607 493 607 640 q 610 248 607 346 q 658 118 614 150 q 682 75 682 104 q 646 21 682 46 q 496 -25 579 -25 q 425 22 439 -25 q 421 68 421 40 q 423 131 421 96 q 428 221 425 165 q 440 616 440 471 q 436 792 440 761 q 401 863 431 842 l 392 869 q 374 903 374 882 q 452 990 374 949 q 575 1032 531 1032 q 625 982 625 1032 z "},"":{"ha":278,"x_min":0,"x_max":0,"o":""}}}
